<?xml version="1.0" encoding="UTF-8"?>
<!--Generator: Apple Native CoreSVG 149-->
<!DOCTYPE svg
PUBLIC "-//W3C//DTD SVG 1.1//EN"
       "http://www.w3.org/Graphics/SVG/1.1/DTD/svg11.dtd">
<svg version="1.1" xmlns="http://www.w3.org/2000/svg" xmlns:xlink="http://www.w3.org/1999/xlink" width="3300" height="2200">
 <!--glyph: "uni100AD8.medium", point size: 100.000000, font version: "Version 16.0d12e3", template writer version: "8"-->
 <g id="Notes">
  <rect height="2200" id="artboard" style="fill:white;opacity:1" width="3300" x="0" y="0"/>
  <line id="" style="fill:none;stroke:black;opacity:1;stroke-width:0.5;" x1="263" x2="3036" y1="292" y2="292"/>
  <text style="stroke:none;fill:black;font-family:-apple-system,&quot;SF Pro Display&quot;,&quot;SF Pro Text&quot;,Helvetica,sans-serif;font-weight:bold;" transform="matrix(1 0 0 1 263 322)">Weight/Scale Variations</text>
  <text style="stroke:none;fill:black;font-family:-apple-system,&quot;SF Pro Display&quot;,&quot;SF Pro Text&quot;,Helvetica,sans-serif;text-anchor:middle;" transform="matrix(1 0 0 1 559.711 322)">Ultralight</text>
  <text style="stroke:none;fill:black;font-family:-apple-system,&quot;SF Pro Display&quot;,&quot;SF Pro Text&quot;,Helvetica,sans-serif;text-anchor:middle;" transform="matrix(1 0 0 1 856.422 322)">Thin</text>
  <text style="stroke:none;fill:black;font-family:-apple-system,&quot;SF Pro Display&quot;,&quot;SF Pro Text&quot;,Helvetica,sans-serif;text-anchor:middle;" transform="matrix(1 0 0 1 1153.13 322)">Light</text>
  <text style="stroke:none;fill:black;font-family:-apple-system,&quot;SF Pro Display&quot;,&quot;SF Pro Text&quot;,Helvetica,sans-serif;text-anchor:middle;" transform="matrix(1 0 0 1 1449.84 322)">Regular</text>
  <text style="stroke:none;fill:black;font-family:-apple-system,&quot;SF Pro Display&quot;,&quot;SF Pro Text&quot;,Helvetica,sans-serif;text-anchor:middle;" transform="matrix(1 0 0 1 1746.56 322)">Medium</text>
  <text style="stroke:none;fill:black;font-family:-apple-system,&quot;SF Pro Display&quot;,&quot;SF Pro Text&quot;,Helvetica,sans-serif;text-anchor:middle;" transform="matrix(1 0 0 1 2043.27 322)">Semibold</text>
  <text style="stroke:none;fill:black;font-family:-apple-system,&quot;SF Pro Display&quot;,&quot;SF Pro Text&quot;,Helvetica,sans-serif;text-anchor:middle;" transform="matrix(1 0 0 1 2339.98 322)">Bold</text>
  <text style="stroke:none;fill:black;font-family:-apple-system,&quot;SF Pro Display&quot;,&quot;SF Pro Text&quot;,Helvetica,sans-serif;text-anchor:middle;" transform="matrix(1 0 0 1 2636.69 322)">Heavy</text>
  <text style="stroke:none;fill:black;font-family:-apple-system,&quot;SF Pro Display&quot;,&quot;SF Pro Text&quot;,Helvetica,sans-serif;text-anchor:middle;" transform="matrix(1 0 0 1 2933.4 322)">Black</text>
  <line id="" style="fill:none;stroke:black;opacity:1;stroke-width:0.5;" x1="263" x2="3036" y1="1903" y2="1903"/>
  <g id="" transform="matrix(1 0 0 1 263 1933)">
   <path d="M9.24805 0.830078C13.5547 0.830078 17.1387-2.74414 17.1387-7.05078C17.1387-11.3574 13.5449-14.9316 9.23828-14.9316C4.94141-14.9316 1.36719-11.3574 1.36719-7.05078C1.36719-2.74414 4.95117 0.830078 9.24805 0.830078ZM9.24805-0.654297C5.70312-0.654297 2.87109-3.49609 2.87109-7.05078C2.87109-10.6055 5.69336-13.4473 9.23828-13.4473C12.793-13.4473 15.6348-10.6055 15.6445-7.05078C15.6543-3.49609 12.8027-0.654297 9.24805-0.654297ZM9.22852-3.62305C9.69727-3.62305 9.9707-3.93555 9.9707-4.45312L9.9707-6.31836L12.002-6.31836C12.5-6.31836 12.832-6.57227 12.832-7.04102C12.832-7.51953 12.5195-7.7832 12.002-7.7832L9.9707-7.7832L9.9707-9.81445C9.9707-10.332 9.69727-10.6543 9.22852-10.6543C8.75977-10.6543 8.50586-10.3125 8.50586-9.81445L8.50586-7.7832L6.49414-7.7832C5.97656-7.7832 5.64453-7.51953 5.64453-7.04102C5.64453-6.57227 5.99609-6.31836 6.49414-6.31836L8.50586-6.31836L8.50586-4.45312C8.50586-3.95508 8.75977-3.62305 9.22852-3.62305Z"/>
  </g>
  <g id="" transform="matrix(1 0 0 1 281.506 1933)">
   <path d="M11.709 2.91016C17.1582 2.91016 21.6699-1.61133 21.6699-7.05078C21.6699-12.5 17.1484-17.0117 11.6992-17.0117C6.25977-17.0117 1.74805-12.5 1.74805-7.05078C1.74805-1.61133 6.26953 2.91016 11.709 2.91016ZM11.709 1.25C7.09961 1.25 3.41797-2.44141 3.41797-7.05078C3.41797-11.6602 7.08984-15.3516 11.6992-15.3516C16.3086-15.3516 20-11.6602 20.0098-7.05078C20.0195-2.44141 16.3184 1.25 11.709 1.25ZM11.6797-2.66602C12.207-2.66602 12.5098-3.01758 12.5098-3.59375L12.5098-6.23047L15.3223-6.23047C15.8691-6.23047 16.25-6.51367 16.25-7.03125C16.25-7.55859 15.8887-7.86133 15.3223-7.86133L12.5098-7.86133L12.5098-10.6836C12.5098-11.25 12.207-11.6113 11.6797-11.6113C11.1621-11.6113 10.8789-11.2305 10.8789-10.6836L10.8789-7.86133L8.07617-7.86133C7.50977-7.86133 7.13867-7.55859 7.13867-7.03125C7.13867-6.51367 7.5293-6.23047 8.07617-6.23047L10.8789-6.23047L10.8789-3.59375C10.8789-3.03711 11.1621-2.66602 11.6797-2.66602Z"/>
  </g>
  <g id="" transform="matrix(1 0 0 1 304.924 1933)">
   <path d="M14.9707 5.66406C21.9336 5.66406 27.6953-0.0976562 27.6953-7.05078C27.6953-14.0137 21.9238-19.7754 14.9609-19.7754C8.00781-19.7754 2.25586-14.0137 2.25586-7.05078C2.25586-0.0976562 8.01758 5.66406 14.9707 5.66406ZM14.9707 3.84766C8.93555 3.84766 4.08203-1.01562 4.08203-7.05078C4.08203-13.0957 8.92578-17.9492 14.9609-17.9492C21.0059-17.9492 25.8594-13.0957 25.8691-7.05078C25.8789-1.01562 21.0156 3.84766 14.9707 3.84766ZM14.9414-1.38672C15.5176-1.38672 15.8594-1.77734 15.8594-2.38281L15.8594-6.13281L19.7754-6.13281C20.3711-6.13281 20.7812-6.46484 20.7812-7.02148C20.7812-7.59766 20.3906-7.93945 19.7754-7.93945L15.8594-7.93945L15.8594-11.8652C15.8594-12.4805 15.5176-12.8711 14.9414-12.8711C14.375-12.8711 14.0527-12.4609 14.0527-11.8652L14.0527-7.93945L10.1465-7.93945C9.53125-7.93945 9.13086-7.59766 9.13086-7.02148C9.13086-6.46484 9.55078-6.13281 10.1465-6.13281L14.0527-6.13281L14.0527-2.38281C14.0527-1.79688 14.375-1.38672 14.9414-1.38672Z"/>
  </g>
  <text style="stroke:none;fill:black;font-family:-apple-system,&quot;SF Pro Display&quot;,&quot;SF Pro Text&quot;,Helvetica,sans-serif;font-weight:bold;" transform="matrix(1 0 0 1 263 1953)">Design Variations</text>
  <text style="stroke:none;fill:black;font-family:-apple-system,&quot;SF Pro Display&quot;,&quot;SF Pro Text&quot;,Helvetica,sans-serif;" transform="matrix(1 0 0 1 263 1971)">Symbols are supported in up to nine weights and three scales.</text>
  <text style="stroke:none;fill:black;font-family:-apple-system,&quot;SF Pro Display&quot;,&quot;SF Pro Text&quot;,Helvetica,sans-serif;" transform="matrix(1 0 0 1 263 1989)">For optimal layout with text and other symbols, vertically align</text>
  <text style="stroke:none;fill:black;font-family:-apple-system,&quot;SF Pro Display&quot;,&quot;SF Pro Text&quot;,Helvetica,sans-serif;" transform="matrix(1 0 0 1 263 2007)">symbols with the adjacent text.</text>
  <line id="" style="fill:none;stroke:#00AEEF;stroke-width:0.5;opacity:1.0;" x1="776" x2="776" y1="1919" y2="1933"/>
  <g id="" transform="matrix(1 0 0 1 776 1933)">
   <path d="M3.31055 0.126953C3.82812 0.126953 4.08203-0.0683594 4.26758-0.605469L5.52734-4.0625L11.2891-4.0625L12.5488-0.605469C12.7344-0.0683594 12.9883 0.126953 13.4961 0.126953C14.0137 0.126953 14.3457-0.185547 14.3457-0.673828C14.3457-0.839844 14.3164-0.986328 14.2383-1.20117L9.6582-13.3887C9.43359-13.9941 9.0332-14.2871 8.4082-14.2871C7.80273-14.2871 7.39258-13.9941 7.17773-13.3984L2.59766-1.19141C2.51953-0.976562 2.49023-0.830078 2.49023-0.664062C2.49023-0.175781 2.80273 0.126953 3.31055 0.126953ZM6.00586-5.53711L8.37891-12.1094L8.42773-12.1094L10.8008-5.53711Z"/>
  </g>
  <line id="" style="fill:none;stroke:#00AEEF;stroke-width:0.5;opacity:1.0;" x1="792.836" x2="792.836" y1="1919" y2="1933"/>
  <text style="stroke:none;fill:black;font-family:-apple-system,&quot;SF Pro Display&quot;,&quot;SF Pro Text&quot;,Helvetica,sans-serif;font-weight:bold;" transform="matrix(1 0 0 1 776 1953)">Margins</text>
  <text style="stroke:none;fill:black;font-family:-apple-system,&quot;SF Pro Display&quot;,&quot;SF Pro Text&quot;,Helvetica,sans-serif;" transform="matrix(1 0 0 1 776 1971)">Leading and trailing margins on the left and right side of each symbol</text>
  <text style="stroke:none;fill:black;font-family:-apple-system,&quot;SF Pro Display&quot;,&quot;SF Pro Text&quot;,Helvetica,sans-serif;" transform="matrix(1 0 0 1 776 1989)">can be adjusted by modifying the x-location of the margin guidelines.</text>
  <text style="stroke:none;fill:black;font-family:-apple-system,&quot;SF Pro Display&quot;,&quot;SF Pro Text&quot;,Helvetica,sans-serif;" transform="matrix(1 0 0 1 776 2007)">Modifications are automatically applied proportionally to all</text>
  <text style="stroke:none;fill:black;font-family:-apple-system,&quot;SF Pro Display&quot;,&quot;SF Pro Text&quot;,Helvetica,sans-serif;" transform="matrix(1 0 0 1 776 2025)">scales and weights.</text>
  <g id="" transform="matrix(1 0 0 1 1289 1933)">
   <path d="M2.8418 1.86523L4.54102 3.57422C5.40039 4.44336 6.38672 4.38477 7.31445 3.35938L17.4902-7.85156C17.7539-7.76367 18.0273-7.7832 18.3398-7.8418L19.4043-8.03711L20.0684-7.36328L20.0293-6.80664C19.9902-6.30859 20.1172-5.92773 20.6055-5.44922L21.3672-4.70703C21.8457-4.22852 22.4609-4.19922 22.9297-4.66797L25.8398-7.58789C26.3086-8.05664 26.2891-8.65234 25.8105-9.13086L25.0391-9.89258C24.5605-10.3711 24.1895-10.5273 23.7109-10.4883L23.1348-10.4395L22.4902-11.0742L22.7344-12.1973C22.8613-12.7637 22.7051-13.2031 22.1191-13.7891L19.9219-15.9766C16.582-19.2969 12.1484-19.2188 9.25781-16.3281C8.83789-15.918 8.80859-15.3418 9.04297-14.9512C9.27734-14.5898 9.73633-14.3555 10.3809-14.5215C11.8457-14.8633 13.3691-14.9219 14.7949-13.9844L14.209-12.5293C14.0137-12.0508 13.9844-11.6504 14.1113-11.2891L3.04688-0.898438C2.06055 0.0195312 1.98242 0.996094 2.8418 1.86523ZM10.752-15.957C13.1836-17.7344 16.4746-17.4316 18.7012-15.2051L21.1328-12.793C21.3672-12.5586 21.4062-12.373 21.3379-12.0312L21.0156-10.5469L22.5195-9.0625L23.5059-9.12109C23.7598-9.13086 23.8379-9.11133 24.0332-8.91602L24.6094-8.33984L22.168-5.89844L21.5918-6.47461C21.3965-6.66992 21.3672-6.74805 21.377-7.01172L21.4453-7.98828L19.9512-9.47266L18.4277-9.21875C18.1055-9.15039 17.959-9.17969 17.7148-9.41406L15.7129-11.416C15.459-11.6504 15.4297-11.8164 15.5859-12.1875L16.4648-14.2773C14.9023-15.7324 12.8711-16.3574 10.8398-15.7617C10.6836-15.7227 10.625-15.8496 10.752-15.957ZM5.27344 2.30469L4.10156 1.14258C3.63281 0.683594 3.74023 0.341797 4.14062-0.0195312L14.9512-10.1953L16.416-8.71094L6.42578 2.27539C6.07422 2.67578 5.74219 2.77344 5.27344 2.30469Z"/>
  </g>
  <text style="stroke:none;fill:black;font-family:-apple-system,&quot;SF Pro Display&quot;,&quot;SF Pro Text&quot;,Helvetica,sans-serif;font-weight:bold;" transform="matrix(1 0 0 1 1289 1953)">Exporting</text>
  <text style="stroke:none;fill:black;font-family:-apple-system,&quot;SF Pro Display&quot;,&quot;SF Pro Text&quot;,Helvetica,sans-serif;" transform="matrix(1 0 0 1 1289 1971)">Symbols should be outlined when exporting to ensure the</text>
  <text style="stroke:none;fill:black;font-family:-apple-system,&quot;SF Pro Display&quot;,&quot;SF Pro Text&quot;,Helvetica,sans-serif;" transform="matrix(1 0 0 1 1289 1989)">design is preserved when submitting to Xcode.</text>
  <text id="template-version" style="stroke:none;fill:black;font-family:-apple-system,&quot;SF Pro Display&quot;,&quot;SF Pro Text&quot;,Helvetica,sans-serif;text-anchor:end;" transform="matrix(1 0 0 1 3036 1933)">Template v.2.0</text>
  <text style="stroke:none;fill:black;font-family:-apple-system,&quot;SF Pro Display&quot;,&quot;SF Pro Text&quot;,Helvetica,sans-serif;text-anchor:end;" transform="matrix(1 0 0 1 3036 1951)">Requires Xcode 12 or greater</text>
  <text style="stroke:none;fill:black;font-family:-apple-system,&quot;SF Pro Display&quot;,&quot;SF Pro Text&quot;,Helvetica,sans-serif;text-anchor:end;" transform="matrix(1 0 0 1 3036 1969)">Generated from text.book.closed.fill</text>
  <text style="stroke:none;fill:black;font-family:-apple-system,&quot;SF Pro Display&quot;,&quot;SF Pro Text&quot;,Helvetica,sans-serif;text-anchor:end;" transform="matrix(1 0 0 1 3036 1987)">Typeset at 100 points</text>
  <text style="stroke:none;fill:black;font-family:-apple-system,&quot;SF Pro Display&quot;,&quot;SF Pro Text&quot;,Helvetica,sans-serif;" transform="matrix(1 0 0 1 263 726)">Small</text>
  <text style="stroke:none;fill:black;font-family:-apple-system,&quot;SF Pro Display&quot;,&quot;SF Pro Text&quot;,Helvetica,sans-serif;" transform="matrix(1 0 0 1 263 1156)">Medium</text>
  <text style="stroke:none;fill:black;font-family:-apple-system,&quot;SF Pro Display&quot;,&quot;SF Pro Text&quot;,Helvetica,sans-serif;" transform="matrix(1 0 0 1 263 1586)">Large</text>
 </g>
 <g id="Guides">
  <g id="H-reference" style="fill:#27AAE1;stroke:none;" transform="matrix(1 0 0 1 339 696)">
   <path d="M0.976562 0L3.66211 0L12.9883-24.4629L45.752-24.4629L55.127 0L57.7637 0L30.6152-70.459L28.125-70.459ZM29.3457-67.1387L29.4434-67.1387L44.873-26.709L13.8672-26.709Z"/>
  </g>
  <line id="Baseline-S" style="fill:none;stroke:#27AAE1;opacity:1;stroke-width:0.5;" x1="263" x2="3036" y1="696" y2="696"/>
  <line id="Capline-S" style="fill:none;stroke:#27AAE1;opacity:1;stroke-width:0.5;" x1="263" x2="3036" y1="625.541" y2="625.541"/>
  <g id="H-reference" style="fill:#27AAE1;stroke:none;" transform="matrix(1 0 0 1 339 1126)">
   <path d="M0.976562 0L3.66211 0L12.9883-24.4629L45.752-24.4629L55.127 0L57.7637 0L30.6152-70.459L28.125-70.459ZM29.3457-67.1387L29.4434-67.1387L44.873-26.709L13.8672-26.709Z"/>
  </g>
  <line id="Baseline-M" style="fill:none;stroke:#27AAE1;opacity:1;stroke-width:0.5;" x1="263" x2="3036" y1="1126" y2="1126"/>
  <line id="Capline-M" style="fill:none;stroke:#27AAE1;opacity:1;stroke-width:0.5;" x1="263" x2="3036" y1="1055.54" y2="1055.54"/>
  <g id="H-reference" style="fill:#27AAE1;stroke:none;" transform="matrix(1 0 0 1 339 1556)">
   <path d="M0.976562 0L3.66211 0L12.9883-24.4629L45.752-24.4629L55.127 0L57.7637 0L30.6152-70.459L28.125-70.459ZM29.3457-67.1387L29.4434-67.1387L44.873-26.709L13.8672-26.709Z"/>
  </g>
  <line id="Baseline-L" style="fill:none;stroke:#27AAE1;opacity:1;stroke-width:0.5;" x1="263" x2="3036" y1="1556" y2="1556"/>
  <line id="Capline-L" style="fill:none;stroke:#27AAE1;opacity:1;stroke-width:0.5;" x1="263" x2="3036" y1="1485.54" y2="1485.54"/>
  <line id="left-margin" style="fill:none;stroke:#00AEEF;stroke-width:0.5;opacity:1.0;" x1="1396.33" x2="1396.33" y1="1030.79" y2="1150.12"/>
  <line id="right-margin" style="fill:none;stroke:#00AEEF;stroke-width:0.5;opacity:1.0;" x1="1503.36" x2="1503.36" y1="1030.79" y2="1150.12"/>
 </g>
 <g id="Symbols">
  <g id="Black-L" transform="matrix(1 0 0 1 2859.55 1556)">
   <path d="M39.8926 35.2539L122.949 35.2539C128.076 35.2539 131.641 31.6895 131.641 26.5625C131.641 21.6309 128.32 19.1895 124.609 16.7969C117.676 12.6465 116.455 0.683594 124.609-5.71289C130.078-9.81445 131.445-12.9395 131.445-19.6289L131.445-81.7383C131.445-96.9727 122.803-105.615 107.617-105.615L39.8926-105.615C24.707-105.615 16.0645-96.9727 16.0645-81.7383L16.0645 11.3281C16.0645 26.5625 24.707 35.2539 39.8926 35.2539ZM40.6738-15.7227C38.1348-15.7227 36.0352-17.7734 36.0352-20.3613L36.0352-87.5977C36.0352-90.1855 38.1348-92.2363 40.6738-92.2363C43.2129-92.2363 45.3125-90.1855 45.3125-87.5977L45.3125-20.3613C45.3125-17.7734 43.2129-15.7227 40.6738-15.7227ZM67.7246-60.791C64.3555-60.791 61.6211-63.5254 61.6211-66.8457C61.6211-70.2637 64.3555-73.0469 67.7246-73.0469L103.955-73.0469C107.373-73.0469 110.107-70.2637 110.107-66.8457C110.107-63.5254 107.373-60.791 103.955-60.791ZM67.7246-41.1621C64.3555-41.1621 61.6211-43.9453 61.6211-47.3633C61.6211-50.6836 64.3555-53.4668 67.7246-53.4668L95.5566-53.4668C98.877-53.4668 101.66-50.6836 101.66-47.3633C101.66-43.9453 98.877-41.1621 95.5566-41.1621ZM44.9707 17.9199C37.2559 17.9199 33.5449 12.9883 33.5449 7.17773C33.5449 1.51367 37.5-3.51562 45.166-3.51562L103.418-3.51562C100.146 3.32031 100.049 11.377 103.076 17.9199Z"/>
  </g>
  <g id="Heavy-L" transform="matrix(1 0 0 1 2564.11 1556)">
   <path d="M38.623 34.4727L121.484 34.4727C125.928 34.4727 129.102 31.3477 129.102 26.8555C129.102 22.6562 126.27 20.4102 123.047 18.4082C115.771 14.3555 114.404 2.73438 122.559-4.10156C127.295-7.8125 128.955-10.9863 128.955-17.5293L128.955-82.1289C128.955-96.7285 120.898-104.883 106.348-104.883L38.7207-104.883C24.1211-104.883 16.0645-96.7773 16.0645-82.1289L16.0645 11.8652C16.0645 26.416 24.1699 34.4727 38.623 34.4727ZM38.8672-13.1836C36.5234-13.1836 34.5703-15.1367 34.5703-17.5293L34.5703-88.1836C34.5703-90.5762 36.5234-92.4805 38.8672-92.4805C41.2109-92.4805 43.1641-90.5762 43.1641-88.1836L43.1641-17.5293C43.1641-15.1367 41.2109-13.1836 38.8672-13.1836ZM63.916-61.4746C60.8887-61.4746 58.3496-63.9648 58.3496-66.9922C58.3496-70.0684 60.8887-72.5586 63.916-72.5586L103.467-72.5586C106.494-72.5586 108.984-70.0684 108.984-66.9922C108.984-63.9648 106.494-61.4746 103.467-61.4746ZM63.916-42.3828C60.8887-42.3828 58.3496-44.873 58.3496-47.9492C58.3496-50.9766 60.8887-53.4668 63.916-53.4668L93.9453-53.4668C96.9727-53.4668 99.5117-50.9766 99.5117-47.9492C99.5117-44.873 96.9727-42.3828 93.9453-42.3828ZM42.627 19.2383C35.1562 19.2383 31.4941 14.5996 31.4941 8.69141C31.4941 2.92969 35.4492-1.75781 42.8711-1.75781L102.1-1.75781C102.637-1.75781 103.125-1.80664 103.613-1.85547C100.293 5.0293 100.391 12.8906 103.711 19.2383Z"/>
  </g>
  <g id="Bold-L" transform="matrix(1 0 0 1 2268.81 1556)">
   <path d="M37.207 33.6426L119.775 33.6426C123.535 33.6426 126.27 30.9082 126.27 27.1484C126.27 23.7793 123.975 21.7285 121.289 20.2148C113.672 16.2598 112.158 5.0293 120.215-2.29492C124.17-5.61523 126.172-8.83789 126.172-15.1855L126.172-82.5684C126.172-96.4844 118.701-104.053 104.883-104.053L37.4023-104.053C23.5352-104.053 16.0645-96.5332 16.0645-82.5684L16.0645 12.4512C16.0645 26.1719 23.5352 33.6426 37.207 33.6426ZM36.8164-10.4004C34.668-10.4004 32.9102-12.1582 32.9102-14.3066L32.9102-88.8672C32.9102-91.0156 34.668-92.7734 36.8164-92.7734C38.9648-92.7734 40.7227-91.0156 40.7227-88.8672L40.7227-14.3066C40.7227-12.1582 38.9648-10.4004 36.8164-10.4004ZM59.668-62.207C56.9824-62.207 54.7363-64.4531 54.7363-67.0898C54.7363-69.8242 56.9824-72.0703 59.668-72.0703L102.832-72.0703C105.566-72.0703 107.764-69.8242 107.764-67.0898C107.764-64.4531 105.566-62.207 102.832-62.207ZM59.668-43.6523C56.9824-43.6523 54.7363-45.8984 54.7363-48.6328C54.7363-51.3184 56.9824-53.5156 59.668-53.5156L92.1387-53.5156C94.873-53.5156 97.0703-51.3184 97.0703-48.6328C97.0703-45.8984 94.873-43.6523 92.1387-43.6523ZM39.9902 20.6543C32.8125 20.6543 29.1504 16.4062 29.1504 10.3516C29.1504 4.54102 33.1543 0.146484 40.332 0.146484L101.758 0.146484C102.49 0.146484 103.174 0.0976562 103.809-0.0488281C100.439 6.88477 100.781 14.5996 104.443 20.6543Z"/>
  </g>
  <g id="Semibold-L" transform="matrix(1 0 0 1 1973.08 1556)">
   <path d="M36.2793 33.0566L118.604 33.0566C121.875 33.0566 124.316 30.6641 124.316 27.3926C124.316 24.5605 122.412 22.6562 120.068 21.4844C112.207 17.5293 110.596 6.64062 118.604-1.02539C122.021-4.05273 124.268-7.32422 124.268-13.5742L124.268-82.9102C124.268-96.3379 117.188-103.467 103.857-103.467L36.4746-103.467C23.0957-103.467 16.0645-96.3867 16.0645-82.9102L16.0645 12.8906C16.0645 26.0254 23.1445 33.0566 36.2793 33.0566ZM35.4492-8.49609C33.4473-8.49609 31.7871-10.1074 31.7871-12.1094L31.7871-89.3066C31.7871-91.3574 33.4473-92.9688 35.4492-92.9688C37.4023-92.9688 39.0625-91.3574 39.0625-89.3066L39.0625-12.1094C39.0625-10.1074 37.4023-8.49609 35.4492-8.49609ZM56.7383-62.7441C54.2969-62.7441 52.2461-64.7461 52.2461-67.1875C52.2461-69.6777 54.2969-71.7285 56.7383-71.7285L102.441-71.7285C104.883-71.7285 106.934-69.6777 106.934-67.1875C106.934-64.7461 104.883-62.7441 102.441-62.7441ZM56.7383-44.5801C54.2969-44.5801 52.2461-46.582 52.2461-49.0723C52.2461-51.5137 54.2969-53.5156 56.7383-53.5156L90.918-53.5156C93.3594-53.5156 95.4102-51.5137 95.4102-49.0723C95.4102-46.582 93.3594-44.5801 90.918-44.5801ZM38.1836 21.6797C31.2012 21.6797 27.5391 17.627 27.5391 11.5234C27.5391 5.66406 31.5918 1.46484 38.5742 1.46484L101.514 1.46484C102.393 1.46484 103.223 1.41602 104.004 1.2207C100.586 8.20312 101.074 15.8203 104.932 21.6797Z"/>
  </g>
  <g id="Medium-L" transform="matrix(1 0 0 1 1677.1 1556)">
   <path d="M35.5469 32.666L117.773 32.666C120.654 32.666 122.852 30.4688 122.852 27.5391C122.852 25.1465 121.191 23.3398 119.189 22.4121C111.084 18.5059 109.424 7.8125 117.383-0.0976562C120.361-2.92969 122.803-6.15234 122.803-12.3535L122.803-83.1055C122.803-96.1914 116.064-103.027 103.076-103.027L35.791-103.027C22.8027-103.027 16.0645-96.2402 16.0645-83.1055L16.0645 13.2324C16.0645 25.9277 22.8027 32.666 35.5469 32.666ZM34.375-7.03125C32.4707-7.03125 30.9082-8.54492 30.9082-10.4492L30.9082-89.6484C30.9082-91.5527 32.4707-93.1152 34.375-93.1152C36.2305-93.1152 37.8418-91.5527 37.8418-89.6484L37.8418-10.4492C37.8418-8.54492 36.2305-7.03125 34.375-7.03125ZM54.4922-63.1348C52.2461-63.1348 50.3418-64.9902 50.3418-67.2852C50.3418-69.5801 52.2461-71.4355 54.4922-71.4355L102.148-71.4355C104.395-71.4355 106.299-69.5801 106.299-67.2852C106.299-64.9902 104.395-63.1348 102.148-63.1348ZM54.4922-45.2637C52.2461-45.2637 50.3418-47.1191 50.3418-49.4141C50.3418-51.709 52.2461-53.5645 54.4922-53.5645L89.9414-53.5645C92.2852-53.5645 94.1406-51.709 94.1406-49.4141C94.1406-47.1191 92.2852-45.2637 89.9414-45.2637ZM36.8164 22.4121C29.9805 22.4121 26.3184 18.6035 26.3184 12.4023C26.3184 6.49414 30.4199 2.49023 37.207 2.49023L101.318 2.49023C102.344 2.49023 103.223 2.39258 104.102 2.19727C100.635 9.17969 101.27 16.6992 105.322 22.4121Z"/>
  </g>
  <g id="Regular-L" transform="matrix(1 0 0 1 1381.36 1556)">
   <path d="M34.5703 32.0801L116.602 32.0801C118.994 32.0801 120.898 30.1758 120.898 27.7344C120.898 25.9277 119.629 24.2676 117.969 23.6328C109.668 19.8242 107.861 9.375 115.82 1.12305C118.262-1.36719 120.898-4.6875 120.898-10.791L120.898-83.4473C120.898-96.0449 114.6-102.441 102.1-102.441L34.8633-102.441C22.3633-102.441 16.0645-96.0938 16.0645-83.4473L16.0645 13.623C16.0645 25.7812 22.4121 32.0801 34.5703 32.0801ZM32.959-5.12695C31.25-5.12695 29.7852-6.54297 29.7852-8.30078L29.7852-90.0879C29.7852-91.8945 31.25-93.3105 32.959-93.3105C34.7168-93.3105 36.1816-91.8945 36.1816-90.0879L36.1816-8.30078C36.1816-6.54297 34.7168-5.12695 32.959-5.12695ZM51.6113-63.6719C49.6094-63.6719 47.9004-65.332 47.9004-67.334C47.9004-69.4336 49.6094-71.0938 51.6113-71.0938L101.709-71.0938C103.76-71.0938 105.469-69.4336 105.469-67.334C105.469-65.332 103.76-63.6719 101.709-63.6719ZM51.6113-46.1426C49.6094-46.1426 47.9004-47.8027 47.9004-49.9023C47.9004-51.9043 49.6094-53.5645 51.6113-53.5645L88.7207-53.5645C90.8203-53.5645 92.4805-51.9043 92.4805-49.9023C92.4805-47.8027 90.8203-46.1426 88.7207-46.1426ZM35.0098 23.4375C28.3691 23.4375 24.707 19.8242 24.707 13.5254C24.707 7.56836 28.8574 3.80859 35.4492 3.80859L101.025 3.80859C102.246 3.80859 103.271 3.66211 104.248 3.41797C100.781 10.4492 101.514 17.8711 105.811 23.4375Z"/>
  </g>
  <g id="Light-L" transform="matrix(1 0 0 1 1085.43 1556)">
   <path d="M33.3984 31.7871L116.064 31.7871C117.969 31.7871 119.336 30.3711 119.336 28.4668C119.336 27.0996 118.457 25.8301 117.236 25.3418C108.398 20.6055 106.396 9.96094 114.551 1.17188C117.041-1.51367 119.336-5.07812 119.336-10.8887L119.336-84.082C119.336-95.9473 113.281-102.051 101.514-102.051L33.9355-102.051C22.1191-102.051 16.0645-95.9961 16.0645-84.082L16.0645 14.7461C16.0645 25.7812 22.168 31.7871 33.3984 31.7871ZM31.4453-3.66211C30.0781-3.66211 28.8574-4.83398 28.8574-6.25L28.8574-91.1133C28.8574-92.5293 30.0781-93.7012 31.4453-93.7012C32.8613-93.7012 34.082-92.5293 34.082-91.1133L34.082-6.25C34.082-4.83398 32.8613-3.66211 31.4453-3.66211ZM48.6816-65.2832C47.1191-65.2832 45.752-66.5527 45.752-68.1641C45.752-69.7754 47.1191-71.0938 48.6816-71.0938L100.879-71.0938C102.49-71.0938 103.809-69.7754 103.809-68.1641C103.809-66.5527 102.49-65.2832 100.879-65.2832ZM48.6816-48.291C47.1191-48.291 45.752-49.6094 45.752-51.2207C45.752-52.832 47.1191-54.1016 48.6816-54.1016L86.1328-54.1016C87.7441-54.1016 89.0625-52.832 89.0625-51.2207C89.0625-49.6094 87.7441-48.291 86.1328-48.291ZM33.7891 25.1465C26.6602 25.1465 22.7051 21.2891 22.7051 14.5996C22.7051 8.25195 27.002 4.29688 34.0332 4.29688L100.83 4.29688C102.539 4.29688 104.004 4.10156 105.371 3.71094C101.221 11.4258 102.393 19.5312 107.861 25.1465Z"/>
  </g>
  <g id="Thin-L" transform="matrix(1 0 0 1 789.747 1556)">
   <path d="M31.8848 31.3477L115.381 31.3477C116.553 31.3477 117.285 30.6152 117.285 29.3945C117.285 28.6621 116.846 27.9297 116.211 27.5879C106.738 21.7285 104.492 10.7422 112.842 1.2207C115.43-1.70898 117.285-5.56641 117.285-11.0352L117.285-84.9609C117.285-95.8496 111.572-101.562 100.732-101.562L32.666-101.562C21.7773-101.562 16.0645-95.8496 16.0645-84.9609L16.0645 16.2109C16.0645 25.7812 21.875 31.3477 31.8848 31.3477ZM29.4434-1.75781C28.4668-1.75781 27.6367-2.58789 27.6367-3.56445L27.6367-92.4316C27.6367-93.4082 28.4668-94.2383 29.4434-94.2383C30.4688-94.2383 31.2988-93.4082 31.2988-92.4316L31.2988-3.56445C31.2988-2.58789 30.4688-1.75781 29.4434-1.75781ZM44.8242-67.3828C43.7988-67.3828 42.9688-68.2129 42.9688-69.2383C42.9688-70.2637 43.7988-71.1426 44.8242-71.1426L99.7559-71.1426C100.781-71.1426 101.66-70.2637 101.66-69.2383C101.66-68.2129 100.781-67.3828 99.7559-67.3828ZM44.8242-51.0742C43.7988-51.0742 42.9688-51.9531 42.9688-52.9785C42.9688-54.0039 43.7988-54.8828 44.8242-54.8828L82.666-54.8828C83.7402-54.8828 84.5703-54.0039 84.5703-52.9785C84.5703-51.9531 83.7402-51.0742 82.666-51.0742ZM32.1289 27.4414C24.4629 27.4414 19.9707 23.2422 19.9707 16.0645C19.9707 9.13086 24.5117 4.98047 32.1777 4.98047L100.586 4.98047C102.979 4.98047 104.98 4.6875 106.885 4.10156C101.807 12.6465 103.516 21.6797 110.547 27.4414Z"/>
  </g>
  <g id="Ultralight-L" transform="matrix(1 0 0 1 493.549 1556)">
   <path d="M31.1523 31.1523L115.039 31.1523C115.82 31.1523 116.26 30.7129 116.26 29.8828C116.26 29.4434 116.016 29.0039 115.674 28.7598C105.908 22.2656 103.467 11.1816 112.012 1.26953C114.6-1.75781 116.26-5.81055 116.26-11.084L116.26-85.4492C116.26-95.8008 110.693-101.318 100.293-101.318L31.9824-101.318C21.6309-101.318 16.0645-95.8008 16.0645-85.4492L16.0645 16.9434C16.0645 25.7812 21.6797 31.1523 31.1523 31.1523ZM28.418-0.78125C27.6367-0.78125 27.002-1.41602 27.002-2.19727L27.002-93.1152C27.002-93.8965 27.6367-94.5312 28.418-94.5312C29.1992-94.5312 29.834-93.8965 29.834-93.1152L29.834-2.19727C29.834-1.41602 29.1992-0.78125 28.418-0.78125ZM42.8711-68.457C42.0898-68.457 41.5039-69.043 41.5039-69.7754C41.5039-70.5566 42.0898-71.1426 42.8711-71.1426L99.1699-71.1426C99.9512-71.1426 100.537-70.5566 100.537-69.7754C100.537-69.043 99.9512-68.457 99.1699-68.457ZM42.8711-52.5391C42.0898-52.5391 41.5039-53.125 41.5039-53.8574C41.5039-54.6387 42.0898-55.2246 42.8711-55.2246L80.9082-55.2246C81.6406-55.2246 82.2754-54.6387 82.2754-53.8574C82.2754-53.125 81.6406-52.5391 80.9082-52.5391ZM31.25 28.5645C23.291 28.5645 18.6035 24.2188 18.6035 16.7969C18.6035 9.57031 23.2422 5.37109 31.2012 5.37109L100.439 5.37109C103.174 5.37109 105.469 5.0293 107.617 4.29688C102.1 13.2812 104.102 22.7539 111.963 28.5645Z"/>
  </g>
  <g id="Black-M" transform="matrix(1 0 0 1 2874.88 1126)">
   <path d="M31.9824 20.2148L97.0215 20.2148C101.562 20.2148 104.59 17.1875 104.59 12.6465C104.59 8.10547 101.562 6.20117 98.291 3.85742C93.0664 0.0488281 92.1875-9.86328 98.6816-14.502C103.955-18.2617 104.395-20.8008 104.395-26.0254L104.395-71.0938C104.395-83.3496 97.1191-90.625 84.8633-90.625L31.9824-90.625C19.7266-90.625 12.4512-83.3496 12.4512-71.0938L12.4512 0.683594C12.4512 12.9395 19.7266 20.2148 31.9824 20.2148ZM33.1543-22.7051C31.1035-22.7051 29.3945-24.3652 29.3945-26.4648L29.3945-75.5859C29.3945-77.6367 31.1035-79.2969 33.1543-79.2969C35.2051-79.2969 36.9141-77.6367 36.9141-75.5859L36.9141-26.4648C36.9141-24.3652 35.2051-22.7051 33.1543-22.7051ZM56.0547-54.9316C53.2227-54.9316 50.9766-57.2754 50.9766-60.0098C50.9766-62.8418 53.2227-65.1855 56.0547-65.1855L80.8594-65.1855C83.6426-65.1855 85.9375-62.8418 85.9375-60.0098C85.9375-57.2754 83.6426-54.9316 80.8594-54.9316ZM56.0547-39.4043C53.2227-39.4043 50.9766-41.6992 50.9766-44.5312C50.9766-47.3145 53.2227-49.6094 56.0547-49.6094L74.8535-49.6094C77.5879-49.6094 79.9316-47.3145 79.9316-44.5312C79.9316-41.6992 77.5879-39.4043 74.8535-39.4043ZM37.3535 5.12695C30.8105 5.12695 27.7344 0.78125 27.7344-3.75977C27.7344-8.34961 30.8105-12.6953 37.3047-12.6953L80.4688-12.6953C77.6367-7.12891 77.5391-0.341797 80.0781 5.12695Z"/>
  </g>
  <g id="Heavy-M" transform="matrix(1 0 0 1 2579.34 1126)">
   <path d="M30.9082 19.4824L95.5566 19.4824C99.5117 19.4824 102.246 16.748 102.246 12.793C102.246 8.93555 99.6582 7.08008 96.7773 5.17578C91.3086 1.66016 90.3809-7.76367 96.7773-12.7441C101.221-16.0645 102.1-18.5547 102.1-23.7305L102.1-71.3379C102.1-83.1055 95.3125-89.8926 83.5938-89.8926L30.957-89.8926C19.1895-89.8926 12.4512-83.1055 12.4512-71.3379L12.4512 0.976562C12.4512 12.7441 19.1895 19.4824 30.9082 19.4824ZM31.543-20.3613C29.6387-20.3613 28.0273-21.9238 28.0273-23.877L28.0273-75.9277C28.0273-77.8809 29.6387-79.4922 31.543-79.4922C33.4961-79.4922 35.1074-77.8809 35.1074-75.9277L35.1074-23.877C35.1074-21.9238 33.4961-20.3613 31.543-20.3613ZM52.6855-55.2734C50.0977-55.2734 47.998-57.4219 47.998-59.9609C47.998-62.5488 50.0977-64.6484 52.6855-64.6484L80.4688-64.6484C83.0566-64.6484 85.1562-62.5488 85.1562-59.9609C85.1562-57.4219 83.0566-55.2734 80.4688-55.2734ZM52.6855-40.1367C50.0977-40.1367 47.998-42.2363 47.998-44.8242C47.998-47.3633 50.0977-49.5117 52.6855-49.5117L73.7793-49.5117C76.3184-49.5117 78.418-47.3633 78.418-44.8242C78.418-42.2363 76.3184-40.1367 73.7793-40.1367ZM35.1074 6.10352C28.9551 6.10352 25.9766 2.14844 25.9766-2.44141C25.9766-6.93359 29.0527-10.9375 35.2051-10.9375L79.4434-10.9375C79.7363-10.9375 80.0781-10.9375 80.4199-10.9863C77.6855-5.51758 77.6855 0.927734 80.2734 6.10352Z"/>
  </g>
  <g id="Bold-M" transform="matrix(1 0 0 1 2283.95 1126)">
   <path d="M29.7363 18.6523L93.8477 18.6523C97.2168 18.6523 99.6094 16.2598 99.6094 12.9395C99.6094 9.81445 97.4609 8.05664 95.0684 6.64062C89.4043 3.51562 88.3301-5.41992 94.5801-10.791C98.1445-13.623 99.5117-16.0645 99.5117-21.0938L99.5117-71.6309C99.5117-82.8613 93.3105-89.0625 82.1777-89.0625L29.7852-89.0625C18.6035-89.0625 12.4512-82.8613 12.4512-71.6309L12.4512 1.36719C12.4512 12.5 18.6035 18.6523 29.7363 18.6523ZM29.7852-17.7246C27.9785-17.7246 26.5137-19.1895 26.5137-20.9961L26.5137-76.3672C26.5137-78.1738 27.9785-79.6387 29.7852-79.6387C31.5918-79.6387 33.0566-78.1738 33.0566-76.3672L33.0566-20.9961C33.0566-19.1895 31.5918-17.7246 29.7852-17.7246ZM48.877-55.6641C46.5332-55.6641 44.6289-57.5684 44.6289-59.8633C44.6289-62.207 46.5332-64.1113 48.877-64.1113L80.0781-64.1113C82.4219-64.1113 84.2773-62.207 84.2773-59.8633C84.2773-57.5684 82.4219-55.6641 80.0781-55.6641ZM48.877-40.9668C46.5332-40.9668 44.6289-42.8711 44.6289-45.166C44.6289-47.4609 46.5332-49.3652 48.877-49.3652L72.5586-49.3652C74.8535-49.3652 76.7578-47.4609 76.7578-45.166C76.7578-42.8711 74.8535-40.9668 72.5586-40.9668ZM32.6172 7.17773C26.8555 7.17773 24.0234 3.66211 24.0234-0.927734C24.0234-5.37109 27.0996-8.98438 32.8125-8.98438L79.1016-8.98438C79.4922-8.98438 79.9316-8.98438 80.3223-9.08203C77.7344-3.71094 77.8809 2.34375 80.4688 7.17773Z"/>
  </g>
  <g id="Semibold-M" transform="matrix(1 0 0 1 1988.16 1126)">
   <path d="M28.9062 18.1152L92.6758 18.1152C95.6055 18.1152 97.7539 15.9668 97.7539 13.0371C97.7539 10.4004 95.9961 8.74023 93.8965 7.66602C88.0371 4.78516 86.9141-3.80859 93.1152-9.42383C96.0449-11.9141 97.7051-14.3555 97.7051-19.3359L97.7051-71.8262C97.7051-82.666 91.9434-88.5254 81.1523-88.5254L29.0039-88.5254C18.2129-88.5254 12.4512-82.7148 12.4512-71.8262L12.4512 1.61133C12.4512 12.3047 18.2129 18.1152 28.9062 18.1152ZM28.5645-15.8691C26.8555-15.8691 25.4395-17.2852 25.4395-18.9941L25.4395-76.6602C25.4395-78.3691 26.8555-79.7852 28.5645-79.7852C30.2734-79.7852 31.6895-78.3691 31.6895-76.6602L31.6895-18.9941C31.6895-17.2852 30.2734-15.8691 28.5645-15.8691ZM46.2402-55.9082C44.0918-55.9082 42.334-57.666 42.334-59.7656C42.334-61.9629 44.0918-63.6719 46.2402-63.6719L79.7852-63.6719C81.9336-63.6719 83.6914-61.9629 83.6914-59.7656C83.6914-57.666 81.9336-55.9082 79.7852-55.9082ZM46.2402-41.5039C44.0918-41.5039 42.334-43.2617 42.334-45.4102C42.334-47.5098 44.0918-49.2676 46.2402-49.2676L71.7285-49.2676C73.877-49.2676 75.5859-47.5098 75.5859-45.4102C75.5859-43.2617 73.877-41.5039 71.7285-41.5039ZM30.8594 7.95898C25.4395 7.95898 22.6562 4.73633 22.6562 0.0976562C22.6562-4.29688 25.7812-7.61719 31.1523-7.61719L78.8574-7.61719C79.3457-7.61719 79.834-7.66602 80.2734-7.76367C77.7832-2.49023 77.9785 3.32031 80.6152 7.95898Z"/>
  </g>
  <g id="Medium-M" transform="matrix(1 0 0 1 1692.14 1126)">
   <path d="M28.2715 17.6758L91.7969 17.6758C94.3848 17.6758 96.3867 15.6738 96.3867 13.0859C96.3867 10.8887 94.873 9.27734 93.0176 8.39844C87.0117 5.71289 85.8398-2.58789 91.9434-8.39844C94.4336-10.5957 96.3379-13.0371 96.3379-17.9688L96.3379-72.0215C96.3379-82.5684 90.918-88.0859 80.4199-88.0859L28.3691-88.0859C17.9199-88.0859 12.4512-82.6172 12.4512-72.0215L12.4512 1.75781C12.4512 12.207 17.9199 17.6758 28.2715 17.6758ZM27.6367-14.502C26.0254-14.502 24.6582-15.8203 24.6582-17.4805L24.6582-76.9043C24.6582-78.5645 26.0254-79.8828 27.6367-79.8828C29.248-79.8828 30.6152-78.5645 30.6152-76.9043L30.6152-17.4805C30.6152-15.8203 29.248-14.502 27.6367-14.502ZM44.2383-56.1035C42.2852-56.1035 40.5762-57.7637 40.5762-59.7168C40.5762-61.7676 42.2852-63.3789 44.2383-63.3789L79.5898-63.3789C81.5918-63.3789 83.252-61.7676 83.252-59.7168C83.252-57.7637 81.5918-56.1035 79.5898-56.1035ZM44.2383-41.9434C42.2852-41.9434 40.5762-43.5547 40.5762-45.6055C40.5762-47.5586 42.2852-49.2188 44.2383-49.2188L71.0938-49.2188C73.0957-49.2188 74.7559-47.5586 74.7559-45.6055C74.7559-43.5547 73.0957-41.9434 71.0938-41.9434ZM29.5898 8.49609C24.3652 8.49609 21.6309 5.51758 21.6309 0.927734C21.6309-3.51562 24.7559-6.5918 29.9316-6.5918L78.6621-6.5918C79.1992-6.5918 79.7363-6.64062 80.2246-6.73828C77.7832-1.5625 78.0762 4.05273 80.7129 8.49609Z"/>
  </g>
  <g id="Regular-M" transform="matrix(1 0 0 1 1396.33 1126)">
   <path d="M27.4414 17.0898L90.6738 17.0898C92.8223 17.0898 94.5801 15.3809 94.5801 13.1836C94.5801 11.4746 93.4082 9.96094 91.8457 9.42383C85.6934 6.98242 84.4238-0.976562 90.4785-7.08008C92.334-8.93555 94.5801-11.3281 94.5801-16.2109L94.5801-72.2168C94.5801-82.373 89.5508-87.5488 79.4434-87.5488L27.5879-87.5488C17.4805-87.5488 12.4512-82.4219 12.4512-72.2168L12.4512 2.00195C12.4512 12.0605 17.5293 17.0898 27.4414 17.0898ZM26.416-12.6953C24.9023-12.6953 23.6328-13.9648 23.6328-15.5273L23.6328-77.1973C23.6328-78.7598 24.9023-79.9805 26.416-79.9805C27.9297-79.9805 29.248-78.7598 29.248-77.1973L29.248-15.5273C29.248-13.9648 27.9297-12.6953 26.416-12.6953ZM41.6504-56.3477C39.8438-56.3477 38.3301-57.8613 38.3301-59.668C38.3301-61.5234 39.8438-62.9883 41.6504-62.9883L79.3457-62.9883C81.1523-62.9883 82.666-61.5234 82.666-59.668C82.666-57.8613 81.1523-56.3477 79.3457-56.3477ZM41.6504-42.4805C39.8438-42.4805 38.3301-43.9941 38.3301-45.8496C38.3301-47.6562 39.8438-49.1211 41.6504-49.1211L70.2637-49.1211C72.1191-49.1211 73.584-47.6562 73.584-45.8496C73.584-43.9941 72.1191-42.4805 70.2637-42.4805ZM27.8809 9.22852C22.9492 9.22852 20.3125 6.5918 20.3125 1.95312C20.3125-2.44141 23.4375-5.27344 28.3203-5.27344L78.418-5.27344C79.0527-5.27344 79.6387-5.32227 80.127-5.41992C77.832-0.341797 78.2227 5.0293 80.8105 9.22852Z"/>
  </g>
  <g id="Light-M" transform="matrix(1 0 0 1 1100.33 1126)">
   <path d="M26.416 16.8457L90.1855 16.8457C91.8945 16.8457 93.1641 15.5273 93.1641 13.8184C93.1641 12.5488 92.334 11.377 91.1621 10.9375C84.5703 7.71484 83.1055-0.439453 89.3555-7.03125C91.2598-9.0332 93.1641-11.6699 93.1641-16.3086L93.1641-72.8027C93.1641-82.3242 88.3789-87.207 78.9062-87.207L26.709-87.207C17.2852-87.207 12.4512-82.373 12.4512-72.8027L12.4512 3.02734C12.4512 12.0605 17.2852 16.8457 26.416 16.8457ZM25.0488-11.4258C23.8281-11.4258 22.8027-12.4023 22.8027-13.6719L22.8027-78.0762C22.8027-79.3457 23.8281-80.3711 25.0488-80.3711C26.3184-80.3711 27.3438-79.3457 27.3438-78.0762L27.3438-13.6719C27.3438-12.4023 26.3184-11.4258 25.0488-11.4258ZM39.0625-57.8125C37.5977-57.8125 36.4258-58.9844 36.4258-60.4004C36.4258-61.8652 37.5977-63.0371 39.0625-63.0371L78.5645-63.0371C79.9805-63.0371 81.2012-61.8652 81.2012-60.4004C81.2012-58.9844 79.9805-57.8125 78.5645-57.8125ZM39.0625-44.3848C37.5977-44.3848 36.4258-45.5566 36.4258-47.0215C36.4258-48.4375 37.5977-49.6094 39.0625-49.6094L67.9199-49.6094C69.3848-49.6094 70.5566-48.4375 70.5566-47.0215C70.5566-45.5566 69.3848-44.3848 67.9199-44.3848ZM26.7578 10.791C21.4355 10.791 18.5059 7.91016 18.5059 2.92969C18.5059-1.80664 21.7285-4.83398 27.002-4.83398L78.2227-4.83398C79.3457-4.83398 80.2734-4.93164 81.1523-5.17578C78.2227 0.488281 78.9551 6.44531 82.666 10.791Z"/>
  </g>
  <g id="Thin-M" transform="matrix(1 0 0 1 804.518 1126)">
   <path d="M25.0488 16.4551L89.5996 16.4551C90.625 16.4551 91.3574 15.7227 91.3574 14.6484C91.3574 13.916 90.918 13.2812 90.2832 12.9883C83.0566 8.64258 81.3965 0.244141 87.8418-6.98242C89.7949-9.17969 91.3574-12.1094 91.3574-16.4551L91.3574-73.584C91.3574-82.2266 86.8164-86.7676 78.2227-86.7676L25.5859-86.7676C16.9434-86.7676 12.4512-82.2266 12.4512-73.584L12.4512 4.29688C12.4512 12.0605 16.9922 16.4551 25.0488 16.4551ZM23.291-9.7168C22.4121-9.7168 21.6797-10.4004 21.6797-11.2793L21.6797-79.248C21.6797-80.127 22.4121-80.8594 23.291-80.8594C24.1211-80.8594 24.8535-80.127 24.8535-79.248L24.8535-11.2793C24.8535-10.4004 24.1211-9.7168 23.291-9.7168ZM35.5957-59.668C34.668-59.668 33.8867-60.4492 33.8867-61.377C33.8867-62.3047 34.668-63.0371 35.5957-63.0371L77.5391-63.0371C78.4668-63.0371 79.248-62.3047 79.248-61.377C79.248-60.4492 78.4668-59.668 77.5391-59.668ZM35.5957-46.9238C34.668-46.9238 33.8867-47.6562 33.8867-48.584C33.8867-49.5117 34.668-50.293 35.5957-50.293L64.8438-50.293C65.7715-50.293 66.5039-49.5117 66.5039-48.584C66.5039-47.6562 65.7715-46.9238 64.8438-46.9238ZM25.2441 12.8418C19.4336 12.8418 16.0645 9.66797 16.0645 4.19922C16.0645-1.02539 19.5312-4.19922 25.3418-4.19922L78.0273-4.19922C79.6875-4.19922 81.1523-4.39453 82.5195-4.83398C78.7598 1.61133 79.9805 8.39844 85.1074 12.8418Z"/>
  </g>
  <g id="Ultralight-M" transform="matrix(1 0 0 1 508.295 1126)">
   <path d="M24.3652 16.2598L89.2578 16.2598C89.9902 16.2598 90.3809 15.8691 90.3809 15.0879C90.3809 14.6484 90.1855 14.2578 89.8438 14.0137C82.3242 9.13086 80.5176 0.585938 87.0605-6.98242C89.0625-9.27734 90.3809-12.3535 90.3809-16.5039L90.3809-73.9746C90.3809-82.1777 86.0352-86.5234 77.8809-86.5234L25-86.5234C16.7969-86.5234 12.4512-82.1777 12.4512-73.9746L12.4512 4.98047C12.4512 12.0605 16.8457 16.2598 24.3652 16.2598ZM22.3633-8.83789C21.6797-8.83789 21.1426-9.375 21.1426-10.0586L21.1426-79.8828C21.1426-80.5176 21.6797-81.1035 22.3633-81.1035C22.998-81.1035 23.584-80.5176 23.584-79.8828L23.584-10.0586C23.584-9.375 22.998-8.83789 22.3633-8.83789ZM33.7891-60.6445C33.1543-60.6445 32.6172-61.1816 32.6172-61.8652C32.6172-62.5 33.1543-63.0371 33.7891-63.0371L77.0508-63.0371C77.6855-63.0371 78.2227-62.5 78.2227-61.8652C78.2227-61.1816 77.6855-60.6445 77.0508-60.6445ZM33.7891-48.1934C33.1543-48.1934 32.6172-48.7305 32.6172-49.4141C32.6172-50.0977 33.1543-50.6348 33.7891-50.6348L63.2324-50.6348C63.916-50.6348 64.4531-50.0977 64.4531-49.4141C64.4531-48.7305 63.916-48.1934 63.2324-48.1934ZM24.4629 13.8672C18.4082 13.8672 14.8438 10.5469 14.8438 4.88281C14.8438-0.634766 18.4082-3.90625 24.4629-3.90625L77.8809-3.90625C79.8828-3.90625 81.5918-4.15039 83.2031-4.63867C79.0527 2.19727 80.4688 9.375 86.3281 13.8672Z"/>
  </g>
  <g id="Black-S" transform="matrix(1 0 0 1 2887.62 696)">
   <path d="M25 8.1543L75.9277 8.1543C79.4434 8.1543 81.7871 5.81055 81.7871 2.29492C81.7871-1.2207 79.4434-2.73438 76.9043-4.54102C72.8027-7.4707 72.1191-15.1855 77.1973-18.8477C81.25-21.7773 81.6406-23.7305 81.6406-27.832L81.6406-63.3301C81.6406-72.9004 75.9766-78.5645 66.4062-78.5645L25-78.5645C15.4297-78.5645 9.76562-72.9004 9.76562-63.3301L9.76562-7.08008C9.76562 2.49023 15.4297 8.1543 25 8.1543ZM25.8789-25.2441C24.2676-25.2441 22.9492-26.5625 22.9492-28.1738L22.9492-66.8457C22.9492-68.457 24.2676-69.7754 25.8789-69.7754C27.4902-69.7754 28.8086-68.457 28.8086-66.8457L28.8086-28.1738C28.8086-26.5625 27.4902-25.2441 25.8789-25.2441ZM43.7012-50.6836C41.5039-50.6836 39.7461-52.4902 39.7461-54.6387C39.7461-56.8359 41.5039-58.6426 43.7012-58.6426L63.3301-58.6426C65.5273-58.6426 67.2852-56.8359 67.2852-54.6387C67.2852-52.4902 65.5273-50.6836 63.3301-50.6836ZM43.7012-38.5254C41.5039-38.5254 39.7461-40.332 39.7461-42.5293C39.7461-44.6777 41.5039-46.4844 43.7012-46.4844L58.5938-46.4844C60.7422-46.4844 62.5488-44.6777 62.5488-42.5293C62.5488-40.332 60.7422-38.5254 58.5938-38.5254ZM29.1016-3.56445C24.0234-3.56445 21.6309-6.93359 21.6309-10.498C21.6309-14.0625 24.0234-17.4316 29.1016-17.4316L63.0371-17.4316C60.8398-13.0859 60.7422-7.8125 62.7441-3.56445Z"/>
  </g>
  <g id="Heavy-S" transform="matrix(1 0 0 1 2591.74 696)">
   <path d="M24.3164 7.61719L74.8047 7.61719C77.9785 7.61719 80.127 5.46875 80.127 2.29492C80.127-0.732422 78.0762-2.19727 75.8301-3.71094C71.582-6.29883 70.8496-13.623 75.8301-17.5293C79.2969-20.0684 80.0293-21.9727 80.0293-26.0254L80.0293-63.4766C80.0293-72.7539 74.7559-78.0273 65.4785-78.0273L24.3164-78.0273C15.0391-78.0273 9.76562-72.7539 9.76562-63.4766L9.76562-6.93359C9.76562 2.34375 15.0391 7.61719 24.3164 7.61719ZM24.8047-23.584C23.291-23.584 21.9727-24.8535 21.9727-26.416L21.9727-67.041C21.9727-68.6035 23.291-69.873 24.8047-69.873C26.3672-69.873 27.6367-68.6035 27.6367-67.041L27.6367-26.416C27.6367-24.8535 26.3672-23.584 24.8047-23.584ZM41.4062-50.7812C39.3555-50.7812 37.6953-52.4902 37.6953-54.4922C37.6953-56.543 39.3555-58.252 41.4062-58.252L63.1348-58.252C65.1855-58.252 66.8457-56.543 66.8457-54.4922C66.8457-52.4902 65.1855-50.7812 63.1348-50.7812ZM41.4062-38.8672C39.3555-38.8672 37.6953-40.5762 37.6953-42.627C37.6953-44.6289 39.3555-46.3379 41.4062-46.3379L58.0078-46.3379C60.0586-46.3379 61.7676-44.6289 61.7676-42.627C61.7676-40.5762 60.0586-38.8672 58.0078-38.8672ZM27.5391-2.97852C22.7539-2.97852 20.5078-6.05469 20.5078-9.57031C20.5078-13.0371 22.9004-16.1621 27.6367-16.1621L62.2559-16.1621C62.4512-16.1621 62.6465-16.1621 62.8906-16.1621C60.8398-11.9629 60.791-7.03125 62.6953-2.97852Z"/>
  </g>
  <g id="Bold-S" transform="matrix(1 0 0 1 2295.96 696)">
   <path d="M23.4863 7.03125L73.584 7.03125C76.3184 7.03125 78.2715 5.07812 78.2715 2.34375C78.2715-0.195312 76.5625-1.61133 74.6094-2.7832C70.2637-4.98047 69.4336-11.9141 74.3164-16.0156C77.0508-18.1641 78.2227-20.0684 78.2227-24.0723L78.2227-63.623C78.2227-72.5586 73.3398-77.4414 64.4531-77.4414L23.5352-77.4414C14.6484-77.4414 9.76562-72.5586 9.76562-63.623L9.76562-6.78711C9.76562 2.14844 14.6484 7.03125 23.4863 7.03125ZM23.6328-21.7285C22.168-21.7285 20.9473-22.9492 20.9473-24.4141L20.9473-67.2363C20.9473-68.75 22.168-69.9707 23.6328-69.9707C25.0977-69.9707 26.3184-68.75 26.3184-67.2363L26.3184-24.4141C26.3184-22.9492 25.0977-21.7285 23.6328-21.7285ZM38.8184-50.8789C36.9141-50.8789 35.3516-52.4414 35.3516-54.3457C35.3516-56.25 36.9141-57.8125 38.8184-57.8125L62.9395-57.8125C64.8438-57.8125 66.4062-56.25 66.4062-54.3457C66.4062-52.4414 64.8438-50.8789 62.9395-50.8789ZM38.8184-39.2578C36.9141-39.2578 35.3516-40.8203 35.3516-42.7246C35.3516-44.6289 36.9141-46.1914 38.8184-46.1914L57.373-46.1914C59.2773-46.1914 60.8398-44.6289 60.8398-42.7246C60.8398-40.8203 59.2773-39.2578 57.373-39.2578ZM25.7324-2.34375C21.3867-2.34375 19.2383-5.0293 19.2383-8.54492C19.2383-11.9629 21.582-14.6973 25.9277-14.6973L62.0117-14.6973C62.207-14.6973 62.4512-14.6973 62.6953-14.7461C60.8398-10.6934 60.8398-6.10352 62.5977-2.34375Z"/>
  </g>
  <g id="Semibold-S" transform="matrix(1 0 0 1 1999.88 696)">
   <path d="M22.9492 6.64062L72.7539 6.64062C75.1953 6.64062 77.002 4.78516 77.002 2.34375C77.002 0.195312 75.5371-1.2207 73.7793-2.09961C69.3359-4.10156 68.5059-10.7422 73.291-14.9902C75.5371-16.8457 76.9531-18.7012 76.9531-22.7051L76.9531-63.7207C76.9531-72.4121 72.4121-77.0508 63.7695-77.0508L22.998-77.0508C14.3555-77.0508 9.76562-72.4609 9.76562-63.7207L9.76562-6.68945C9.76562 2.00195 14.3555 6.64062 22.9492 6.64062ZM22.8027-20.459C21.3867-20.459 20.2148-21.582 20.2148-23.0469L20.2148-67.3828C20.2148-68.8477 21.3867-70.0195 22.8027-70.0195C24.2188-70.0195 25.3906-68.8477 25.3906-67.3828L25.3906-23.0469C25.3906-21.582 24.2188-20.459 22.8027-20.459ZM37.0117-50.9766C35.2539-50.9766 33.7402-52.4414 33.7402-54.1992C33.7402-56.0547 35.2539-57.5195 37.0117-57.5195L62.793-57.5195C64.5508-57.5195 66.0645-56.0547 66.0645-54.1992C66.0645-52.4414 64.5508-50.9766 62.793-50.9766ZM37.0117-39.502C35.2539-39.502 33.7402-41.0156 33.7402-42.8223C33.7402-44.5801 35.2539-46.0938 37.0117-46.0938L56.9336-46.0938C58.7402-46.0938 60.2051-44.5801 60.2051-42.8223C60.2051-41.0156 58.7402-39.502 56.9336-39.502ZM24.5117-1.9043C20.4102-1.9043 18.3594-4.3457 18.3594-7.8125C18.3594-11.1816 20.7031-13.7207 24.8047-13.7207L61.8164-13.7207C62.0605-13.7207 62.3047-13.7207 62.5488-13.7207C60.791-9.81445 60.8398-5.51758 62.5488-1.9043Z"/>
  </g>
  <g id="Medium-S" transform="matrix(1 0 0 1 1703.66 696)">
   <path d="M22.5586 6.29883L72.1191 6.29883C74.3164 6.29883 76.0254 4.58984 76.0254 2.39258C76.0254 0.488281 74.7559-0.927734 73.1445-1.61133C68.6035-3.41797 67.7246-9.81445 72.5098-14.209C74.3652-15.8691 76.0254-17.6758 76.0254-21.6309L76.0254-63.8184C76.0254-72.3145 71.6797-76.7578 63.2324-76.7578L22.5586-76.7578C14.1113-76.7578 9.76562-72.3633 9.76562-63.8184L9.76562-6.64062C9.76562 1.95312 14.1113 6.29883 22.5586 6.29883ZM22.168-19.4824C20.8008-19.4824 19.6289-20.6055 19.6289-22.0215L19.6289-67.5293C19.6289-68.9453 20.8008-70.0684 22.168-70.0684C23.5352-70.0684 24.707-68.9453 24.707-67.5293L24.707-22.0215C24.707-20.6055 23.5352-19.4824 22.168-19.4824ZM35.6934-51.0254C33.9844-51.0254 32.5195-52.4414 32.5195-54.1504C32.5195-55.8594 33.9844-57.2754 35.6934-57.2754L62.6953-57.2754C64.4043-57.2754 65.8203-55.8594 65.8203-54.1504C65.8203-52.4414 64.4043-51.0254 62.6953-51.0254ZM35.6934-39.7461C33.9844-39.7461 32.5195-41.1133 32.5195-42.8711C32.5195-44.5801 33.9844-45.9961 35.6934-45.9961L56.5918-45.9961C58.3496-45.9961 59.7656-44.5801 59.7656-42.8711C59.7656-41.1133 58.3496-39.7461 56.5918-39.7461ZM23.584-1.5625C19.6777-1.5625 17.6758-3.80859 17.6758-7.27539C17.6758-10.5957 20.0684-12.9883 23.9258-12.9883L61.7188-12.9883C61.9629-12.9883 62.207-12.9883 62.4512-12.9883C60.791-9.17969 60.8887-5.0293 62.5-1.5625Z"/>
  </g>
  <g id="Regular-S" transform="matrix(1 0 0 1 1407.56 696)">
   <path d="M22.0215 5.9082L71.2891 5.9082C73.1934 5.9082 74.8047 4.3457 74.8047 2.39258C74.8047 0.830078 73.7305-0.488281 72.3145-0.976562C67.6758-2.53906 66.7969-8.64258 71.4355-13.1836C72.9004-14.5508 74.8047-16.3574 74.8047-20.2637L74.8047-63.916C74.8047-72.2168 70.7031-76.3672 62.5-76.3672L22.0215-76.3672C13.8184-76.3672 9.76562-72.2656 9.76562-63.916L9.76562-6.54297C9.76562 1.80664 13.8184 5.9082 22.0215 5.9082ZM21.3867-18.2129C20.0684-18.2129 18.8965-19.2871 18.8965-20.6543L18.8965-67.6758C18.8965-69.043 20.0684-70.1172 21.3867-70.1172C22.7051-70.1172 23.8281-69.043 23.8281-67.6758L23.8281-20.6543C23.8281-19.2871 22.7051-18.2129 21.3867-18.2129ZM33.9355-51.123C32.3242-51.123 30.957-52.4414 30.957-54.0039C30.957-55.6641 32.3242-56.9824 33.9355-56.9824L62.5488-56.9824C64.1113-56.9824 65.4785-55.6641 65.4785-54.0039C65.4785-52.4414 64.1113-51.123 62.5488-51.123ZM33.9355-39.9902C32.3242-39.9902 30.957-41.3086 30.957-42.9688C30.957-44.5801 32.3242-45.8984 33.9355-45.8984L56.2012-45.8984C57.8125-45.8984 59.1309-44.5801 59.1309-42.9688C59.1309-41.3086 57.8125-39.9902 56.2012-39.9902ZM22.3633-1.12305C18.7012-1.12305 16.7969-3.125 16.7969-6.5918C16.7969-9.81445 19.1895-12.0117 22.8027-12.0117L61.5234-12.0117C61.8164-12.0117 62.0605-12.0117 62.3047-12.0117C60.791-8.30078 60.8887-4.39453 62.4512-1.12305Z"/>
  </g>
  <g id="Light-S" transform="matrix(1 0 0 1 1111.48 696)">
   <path d="M21.0938 5.66406L70.8496 5.66406C72.3633 5.66406 73.5352 4.49219 73.5352 2.92969C73.5352 1.80664 72.7539 0.732422 71.7285 0.341797C66.6992-1.85547 65.625-8.20312 70.459-13.1348C71.9238-14.6484 73.5352-16.6504 73.5352-20.3613L73.5352-64.4531C73.5352-72.168 69.6777-76.0742 62.0605-76.0742L21.2891-76.0742C13.623-76.0742 9.76562-72.168 9.76562-64.4531L9.76562-5.66406C9.76562 1.80664 13.623 5.66406 21.0938 5.66406ZM20.166-17.041C19.0918-17.041 18.1641-17.9688 18.1641-19.043L18.1641-68.457C18.1641-69.5801 19.0918-70.459 20.166-70.459C21.2402-70.459 22.168-69.5801 22.168-68.457L22.168-19.043C22.168-17.9688 21.2402-17.041 20.166-17.041ZM31.5918-52.3438C30.3223-52.3438 29.248-53.418 29.248-54.6875C29.248-55.957 30.3223-56.9824 31.5918-56.9824L61.8652-56.9824C63.1348-56.9824 64.209-55.957 64.209-54.6875C64.209-53.418 63.1348-52.3438 61.8652-52.3438ZM31.5918-41.6992C30.3223-41.6992 29.248-42.7246 29.248-43.9941C29.248-45.2637 30.3223-46.3379 31.5918-46.3379L54.1016-46.3379C55.4199-46.3379 56.4453-45.2637 56.4453-43.9941C56.4453-42.7246 55.4199-41.6992 54.1016-41.6992ZM21.3867 0.244141C17.3828 0.244141 15.1855-1.95312 15.1855-5.71289C15.1855-9.27734 17.6758-11.5723 21.6797-11.5723L61.377-11.5723C62.0605-11.5723 62.6465-11.6699 63.2324-11.7676C61.1328-7.56836 61.5723-3.125 64.0625 0.244141Z"/>
  </g>
  <g id="Thin-S" transform="matrix(1 0 0 1 815.578 696)">
   <path d="M19.9219 5.32227L70.3125 5.32227C71.2402 5.32227 71.9238 4.63867 71.9238 3.66211C71.9238 3.02734 71.4844 2.39258 70.8984 2.14844C65.3809-1.02539 64.1113-7.56836 69.0918-13.1348C70.6543-14.7949 71.9238-17.041 71.9238-20.459L71.9238-65.1367C71.9238-72.0703 68.3594-75.6836 61.4258-75.6836L20.2637-75.6836C13.3789-75.6836 9.76562-72.0703 9.76562-65.1367L9.76562-4.49219C9.76562 1.80664 13.3789 5.32227 19.9219 5.32227ZM18.6035-15.5762C17.8223-15.5762 17.2363-16.1621 17.2363-16.9434L17.2363-69.4824C17.2363-70.2637 17.8223-70.8496 18.6035-70.8496C19.3359-70.8496 19.9707-70.2637 19.9707-69.4824L19.9707-16.9434C19.9707-16.1621 19.3359-15.5762 18.6035-15.5762ZM28.5645-54.0039C27.7344-54.0039 27.0508-54.6875 27.0508-55.5176C27.0508-56.3477 27.7344-57.0312 28.5645-57.0312L60.9863-57.0312C61.7676-57.0312 62.4512-56.3477 62.4512-55.5176C62.4512-54.6875 61.7676-54.0039 60.9863-54.0039ZM28.5645-43.8965C27.7344-43.8965 27.0508-44.5801 27.0508-45.4102C27.0508-46.2402 27.7344-46.875 28.5645-46.875L51.3672-46.875C52.1973-46.875 52.8809-46.2402 52.8809-45.4102C52.8809-44.5801 52.1973-43.8965 51.3672-43.8965ZM20.0684 2.05078C15.625 2.05078 13.0859-0.390625 13.0859-4.58984C13.0859-8.59375 15.7227-11.0352 20.166-11.0352L61.1816-11.0352C62.4023-11.0352 63.4277-11.1816 64.4043-11.4746C61.6211-6.5918 62.4512-1.41602 66.2109 2.05078Z"/>
  </g>
  <g id="Ultralight-S" transform="matrix(1 0 0 1 519.281 696)">
   <path d="M19.2871 5.17578L70.0195 5.17578C70.7031 5.17578 71.0938 4.78516 71.0938 4.05273C71.0938 3.66211 70.8496 3.27148 70.5078 3.07617C64.6973-0.585938 63.3301-7.22656 68.4082-13.0859C69.9707-14.8926 71.0938-17.2363 71.0938-20.5566L71.0938-65.4785C71.0938-72.0215 67.627-75.4883 61.084-75.4883L19.7266-75.4883C13.2324-75.4883 9.76562-72.0215 9.76562-65.4785L9.76562-3.90625C9.76562 1.80664 13.2812 5.17578 19.2871 5.17578ZM17.7734-14.7949C17.1875-14.7949 16.6992-15.2344 16.6992-15.8203L16.6992-70.0195C16.6992-70.6055 17.1875-71.0938 17.7734-71.0938C18.3594-71.0938 18.7988-70.6055 18.7988-70.0195L18.7988-15.8203C18.7988-15.2344 18.3594-14.7949 17.7734-14.7949ZM26.9531-54.8828C26.3672-54.8828 25.8789-55.3711 25.8789-55.957C25.8789-56.543 26.3672-57.0312 26.9531-57.0312L60.498-57.0312C61.084-57.0312 61.5723-56.543 61.5723-55.957C61.5723-55.3711 61.084-54.8828 60.498-54.8828ZM26.9531-45.0684C26.3672-45.0684 25.8789-45.5566 25.8789-46.1426C25.8789-46.7285 26.3672-47.2168 26.9531-47.2168L50-47.2168C50.5859-47.2168 51.0742-46.7285 51.0742-46.1426C51.0742-45.5566 50.5859-45.0684 50-45.0684ZM19.3848 2.97852C14.6973 2.97852 11.9629 0.390625 11.9629-4.00391C11.9629-8.25195 14.7461-10.7422 19.4336-10.7422L61.084-10.7422C62.5488-10.7422 63.8184-10.9375 64.9902-11.3281C61.8652-6.05469 62.9395-0.537109 67.334 2.97852Z"/>
  </g>
 </g>
</svg>
