<?xml version="1.0" encoding="UTF-8"?>
<!--Generator: Apple Native CoreSVG 149-->
<!DOCTYPE svg
PUBLIC "-//W3C//DTD SVG 1.1//EN"
       "http://www.w3.org/Graphics/SVG/1.1/DTD/svg11.dtd">
<svg version="1.1" xmlns="http://www.w3.org/2000/svg" xmlns:xlink="http://www.w3.org/1999/xlink" width="3300" height="2200">
 <!--glyph: "uni100945.medium", point size: 100.000000, font version: "Version 16.0d12e3", template writer version: "8"-->
 <g id="Notes">
  <rect height="2200" id="artboard" style="fill:white;opacity:1" width="3300" x="0" y="0"/>
  <line id="" style="fill:none;stroke:black;opacity:1;stroke-width:0.5;" x1="263" x2="3036" y1="292" y2="292"/>
  <text style="stroke:none;fill:black;font-family:-apple-system,&quot;SF Pro Display&quot;,&quot;SF Pro Text&quot;,Helvetica,sans-serif;font-weight:bold;" transform="matrix(1 0 0 1 263 322)">Weight/Scale Variations</text>
  <text style="stroke:none;fill:black;font-family:-apple-system,&quot;SF Pro Display&quot;,&quot;SF Pro Text&quot;,Helvetica,sans-serif;text-anchor:middle;" transform="matrix(1 0 0 1 559.711 322)">Ultralight</text>
  <text style="stroke:none;fill:black;font-family:-apple-system,&quot;SF Pro Display&quot;,&quot;SF Pro Text&quot;,Helvetica,sans-serif;text-anchor:middle;" transform="matrix(1 0 0 1 856.422 322)">Thin</text>
  <text style="stroke:none;fill:black;font-family:-apple-system,&quot;SF Pro Display&quot;,&quot;SF Pro Text&quot;,Helvetica,sans-serif;text-anchor:middle;" transform="matrix(1 0 0 1 1153.13 322)">Light</text>
  <text style="stroke:none;fill:black;font-family:-apple-system,&quot;SF Pro Display&quot;,&quot;SF Pro Text&quot;,Helvetica,sans-serif;text-anchor:middle;" transform="matrix(1 0 0 1 1449.84 322)">Regular</text>
  <text style="stroke:none;fill:black;font-family:-apple-system,&quot;SF Pro Display&quot;,&quot;SF Pro Text&quot;,Helvetica,sans-serif;text-anchor:middle;" transform="matrix(1 0 0 1 1746.56 322)">Medium</text>
  <text style="stroke:none;fill:black;font-family:-apple-system,&quot;SF Pro Display&quot;,&quot;SF Pro Text&quot;,Helvetica,sans-serif;text-anchor:middle;" transform="matrix(1 0 0 1 2043.27 322)">Semibold</text>
  <text style="stroke:none;fill:black;font-family:-apple-system,&quot;SF Pro Display&quot;,&quot;SF Pro Text&quot;,Helvetica,sans-serif;text-anchor:middle;" transform="matrix(1 0 0 1 2339.98 322)">Bold</text>
  <text style="stroke:none;fill:black;font-family:-apple-system,&quot;SF Pro Display&quot;,&quot;SF Pro Text&quot;,Helvetica,sans-serif;text-anchor:middle;" transform="matrix(1 0 0 1 2636.69 322)">Heavy</text>
  <text style="stroke:none;fill:black;font-family:-apple-system,&quot;SF Pro Display&quot;,&quot;SF Pro Text&quot;,Helvetica,sans-serif;text-anchor:middle;" transform="matrix(1 0 0 1 2933.4 322)">Black</text>
  <line id="" style="fill:none;stroke:black;opacity:1;stroke-width:0.5;" x1="263" x2="3036" y1="1903" y2="1903"/>
  <g id="" transform="matrix(1 0 0 1 263 1933)">
   <path d="M9.24805 0.830078C13.5547 0.830078 17.1387-2.74414 17.1387-7.05078C17.1387-11.3574 13.5449-14.9316 9.23828-14.9316C4.94141-14.9316 1.36719-11.3574 1.36719-7.05078C1.36719-2.74414 4.95117 0.830078 9.24805 0.830078ZM9.24805-0.654297C5.70312-0.654297 2.87109-3.49609 2.87109-7.05078C2.87109-10.6055 5.69336-13.4473 9.23828-13.4473C12.793-13.4473 15.6348-10.6055 15.6445-7.05078C15.6543-3.49609 12.8027-0.654297 9.24805-0.654297ZM9.22852-3.62305C9.69727-3.62305 9.9707-3.93555 9.9707-4.45312L9.9707-6.31836L12.002-6.31836C12.5-6.31836 12.832-6.57227 12.832-7.04102C12.832-7.51953 12.5195-7.7832 12.002-7.7832L9.9707-7.7832L9.9707-9.81445C9.9707-10.332 9.69727-10.6543 9.22852-10.6543C8.75977-10.6543 8.50586-10.3125 8.50586-9.81445L8.50586-7.7832L6.49414-7.7832C5.97656-7.7832 5.64453-7.51953 5.64453-7.04102C5.64453-6.57227 5.99609-6.31836 6.49414-6.31836L8.50586-6.31836L8.50586-4.45312C8.50586-3.95508 8.75977-3.62305 9.22852-3.62305Z"/>
  </g>
  <g id="" transform="matrix(1 0 0 1 281.506 1933)">
   <path d="M11.709 2.91016C17.1582 2.91016 21.6699-1.61133 21.6699-7.05078C21.6699-12.5 17.1484-17.0117 11.6992-17.0117C6.25977-17.0117 1.74805-12.5 1.74805-7.05078C1.74805-1.61133 6.26953 2.91016 11.709 2.91016ZM11.709 1.25C7.09961 1.25 3.41797-2.44141 3.41797-7.05078C3.41797-11.6602 7.08984-15.3516 11.6992-15.3516C16.3086-15.3516 20-11.6602 20.0098-7.05078C20.0195-2.44141 16.3184 1.25 11.709 1.25ZM11.6797-2.66602C12.207-2.66602 12.5098-3.01758 12.5098-3.59375L12.5098-6.23047L15.3223-6.23047C15.8691-6.23047 16.25-6.51367 16.25-7.03125C16.25-7.55859 15.8887-7.86133 15.3223-7.86133L12.5098-7.86133L12.5098-10.6836C12.5098-11.25 12.207-11.6113 11.6797-11.6113C11.1621-11.6113 10.8789-11.2305 10.8789-10.6836L10.8789-7.86133L8.07617-7.86133C7.50977-7.86133 7.13867-7.55859 7.13867-7.03125C7.13867-6.51367 7.5293-6.23047 8.07617-6.23047L10.8789-6.23047L10.8789-3.59375C10.8789-3.03711 11.1621-2.66602 11.6797-2.66602Z"/>
  </g>
  <g id="" transform="matrix(1 0 0 1 304.924 1933)">
   <path d="M14.9707 5.66406C21.9336 5.66406 27.6953-0.0976562 27.6953-7.05078C27.6953-14.0137 21.9238-19.7754 14.9609-19.7754C8.00781-19.7754 2.25586-14.0137 2.25586-7.05078C2.25586-0.0976562 8.01758 5.66406 14.9707 5.66406ZM14.9707 3.84766C8.93555 3.84766 4.08203-1.01562 4.08203-7.05078C4.08203-13.0957 8.92578-17.9492 14.9609-17.9492C21.0059-17.9492 25.8594-13.0957 25.8691-7.05078C25.8789-1.01562 21.0156 3.84766 14.9707 3.84766ZM14.9414-1.38672C15.5176-1.38672 15.8594-1.77734 15.8594-2.38281L15.8594-6.13281L19.7754-6.13281C20.3711-6.13281 20.7812-6.46484 20.7812-7.02148C20.7812-7.59766 20.3906-7.93945 19.7754-7.93945L15.8594-7.93945L15.8594-11.8652C15.8594-12.4805 15.5176-12.8711 14.9414-12.8711C14.375-12.8711 14.0527-12.4609 14.0527-11.8652L14.0527-7.93945L10.1465-7.93945C9.53125-7.93945 9.13086-7.59766 9.13086-7.02148C9.13086-6.46484 9.55078-6.13281 10.1465-6.13281L14.0527-6.13281L14.0527-2.38281C14.0527-1.79688 14.375-1.38672 14.9414-1.38672Z"/>
  </g>
  <text style="stroke:none;fill:black;font-family:-apple-system,&quot;SF Pro Display&quot;,&quot;SF Pro Text&quot;,Helvetica,sans-serif;font-weight:bold;" transform="matrix(1 0 0 1 263 1953)">Design Variations</text>
  <text style="stroke:none;fill:black;font-family:-apple-system,&quot;SF Pro Display&quot;,&quot;SF Pro Text&quot;,Helvetica,sans-serif;" transform="matrix(1 0 0 1 263 1971)">Symbols are supported in up to nine weights and three scales.</text>
  <text style="stroke:none;fill:black;font-family:-apple-system,&quot;SF Pro Display&quot;,&quot;SF Pro Text&quot;,Helvetica,sans-serif;" transform="matrix(1 0 0 1 263 1989)">For optimal layout with text and other symbols, vertically align</text>
  <text style="stroke:none;fill:black;font-family:-apple-system,&quot;SF Pro Display&quot;,&quot;SF Pro Text&quot;,Helvetica,sans-serif;" transform="matrix(1 0 0 1 263 2007)">symbols with the adjacent text.</text>
  <line id="" style="fill:none;stroke:#00AEEF;stroke-width:0.5;opacity:1.0;" x1="776" x2="776" y1="1919" y2="1933"/>
  <g id="" transform="matrix(1 0 0 1 776 1933)">
   <path d="M3.31055 0.126953C3.82812 0.126953 4.08203-0.0683594 4.26758-0.605469L5.52734-4.0625L11.2891-4.0625L12.5488-0.605469C12.7344-0.0683594 12.9883 0.126953 13.4961 0.126953C14.0137 0.126953 14.3457-0.185547 14.3457-0.673828C14.3457-0.839844 14.3164-0.986328 14.2383-1.20117L9.6582-13.3887C9.43359-13.9941 9.0332-14.2871 8.4082-14.2871C7.80273-14.2871 7.39258-13.9941 7.17773-13.3984L2.59766-1.19141C2.51953-0.976562 2.49023-0.830078 2.49023-0.664062C2.49023-0.175781 2.80273 0.126953 3.31055 0.126953ZM6.00586-5.53711L8.37891-12.1094L8.42773-12.1094L10.8008-5.53711Z"/>
  </g>
  <line id="" style="fill:none;stroke:#00AEEF;stroke-width:0.5;opacity:1.0;" x1="792.836" x2="792.836" y1="1919" y2="1933"/>
  <text style="stroke:none;fill:black;font-family:-apple-system,&quot;SF Pro Display&quot;,&quot;SF Pro Text&quot;,Helvetica,sans-serif;font-weight:bold;" transform="matrix(1 0 0 1 776 1953)">Margins</text>
  <text style="stroke:none;fill:black;font-family:-apple-system,&quot;SF Pro Display&quot;,&quot;SF Pro Text&quot;,Helvetica,sans-serif;" transform="matrix(1 0 0 1 776 1971)">Leading and trailing margins on the left and right side of each symbol</text>
  <text style="stroke:none;fill:black;font-family:-apple-system,&quot;SF Pro Display&quot;,&quot;SF Pro Text&quot;,Helvetica,sans-serif;" transform="matrix(1 0 0 1 776 1989)">can be adjusted by modifying the x-location of the margin guidelines.</text>
  <text style="stroke:none;fill:black;font-family:-apple-system,&quot;SF Pro Display&quot;,&quot;SF Pro Text&quot;,Helvetica,sans-serif;" transform="matrix(1 0 0 1 776 2007)">Modifications are automatically applied proportionally to all</text>
  <text style="stroke:none;fill:black;font-family:-apple-system,&quot;SF Pro Display&quot;,&quot;SF Pro Text&quot;,Helvetica,sans-serif;" transform="matrix(1 0 0 1 776 2025)">scales and weights.</text>
  <g id="" transform="matrix(1 0 0 1 1289 1933)">
   <path d="M2.8418 1.86523L4.54102 3.57422C5.40039 4.44336 6.38672 4.38477 7.31445 3.35938L17.4902-7.85156C17.7539-7.76367 18.0273-7.7832 18.3398-7.8418L19.4043-8.03711L20.0684-7.36328L20.0293-6.80664C19.9902-6.30859 20.1172-5.92773 20.6055-5.44922L21.3672-4.70703C21.8457-4.22852 22.4609-4.19922 22.9297-4.66797L25.8398-7.58789C26.3086-8.05664 26.2891-8.65234 25.8105-9.13086L25.0391-9.89258C24.5605-10.3711 24.1895-10.5273 23.7109-10.4883L23.1348-10.4395L22.4902-11.0742L22.7344-12.1973C22.8613-12.7637 22.7051-13.2031 22.1191-13.7891L19.9219-15.9766C16.582-19.2969 12.1484-19.2188 9.25781-16.3281C8.83789-15.918 8.80859-15.3418 9.04297-14.9512C9.27734-14.5898 9.73633-14.3555 10.3809-14.5215C11.8457-14.8633 13.3691-14.9219 14.7949-13.9844L14.209-12.5293C14.0137-12.0508 13.9844-11.6504 14.1113-11.2891L3.04688-0.898438C2.06055 0.0195312 1.98242 0.996094 2.8418 1.86523ZM10.752-15.957C13.1836-17.7344 16.4746-17.4316 18.7012-15.2051L21.1328-12.793C21.3672-12.5586 21.4062-12.373 21.3379-12.0312L21.0156-10.5469L22.5195-9.0625L23.5059-9.12109C23.7598-9.13086 23.8379-9.11133 24.0332-8.91602L24.6094-8.33984L22.168-5.89844L21.5918-6.47461C21.3965-6.66992 21.3672-6.74805 21.377-7.01172L21.4453-7.98828L19.9512-9.47266L18.4277-9.21875C18.1055-9.15039 17.959-9.17969 17.7148-9.41406L15.7129-11.416C15.459-11.6504 15.4297-11.8164 15.5859-12.1875L16.4648-14.2773C14.9023-15.7324 12.8711-16.3574 10.8398-15.7617C10.6836-15.7227 10.625-15.8496 10.752-15.957ZM5.27344 2.30469L4.10156 1.14258C3.63281 0.683594 3.74023 0.341797 4.14062-0.0195312L14.9512-10.1953L16.416-8.71094L6.42578 2.27539C6.07422 2.67578 5.74219 2.77344 5.27344 2.30469Z"/>
  </g>
  <text style="stroke:none;fill:black;font-family:-apple-system,&quot;SF Pro Display&quot;,&quot;SF Pro Text&quot;,Helvetica,sans-serif;font-weight:bold;" transform="matrix(1 0 0 1 1289 1953)">Exporting</text>
  <text style="stroke:none;fill:black;font-family:-apple-system,&quot;SF Pro Display&quot;,&quot;SF Pro Text&quot;,Helvetica,sans-serif;" transform="matrix(1 0 0 1 1289 1971)">Symbols should be outlined when exporting to ensure the</text>
  <text style="stroke:none;fill:black;font-family:-apple-system,&quot;SF Pro Display&quot;,&quot;SF Pro Text&quot;,Helvetica,sans-serif;" transform="matrix(1 0 0 1 1289 1989)">design is preserved when submitting to Xcode.</text>
  <text id="template-version" style="stroke:none;fill:black;font-family:-apple-system,&quot;SF Pro Display&quot;,&quot;SF Pro Text&quot;,Helvetica,sans-serif;text-anchor:end;" transform="matrix(1 0 0 1 3036 1933)">Template v.2.0</text>
  <text style="stroke:none;fill:black;font-family:-apple-system,&quot;SF Pro Display&quot;,&quot;SF Pro Text&quot;,Helvetica,sans-serif;text-anchor:end;" transform="matrix(1 0 0 1 3036 1951)">Requires Xcode 12 or greater</text>
  <text style="stroke:none;fill:black;font-family:-apple-system,&quot;SF Pro Display&quot;,&quot;SF Pro Text&quot;,Helvetica,sans-serif;text-anchor:end;" transform="matrix(1 0 0 1 3036 1969)">Generated from newspaper.fill</text>
  <text style="stroke:none;fill:black;font-family:-apple-system,&quot;SF Pro Display&quot;,&quot;SF Pro Text&quot;,Helvetica,sans-serif;text-anchor:end;" transform="matrix(1 0 0 1 3036 1987)">Typeset at 100 points</text>
  <text style="stroke:none;fill:black;font-family:-apple-system,&quot;SF Pro Display&quot;,&quot;SF Pro Text&quot;,Helvetica,sans-serif;" transform="matrix(1 0 0 1 263 726)">Small</text>
  <text style="stroke:none;fill:black;font-family:-apple-system,&quot;SF Pro Display&quot;,&quot;SF Pro Text&quot;,Helvetica,sans-serif;" transform="matrix(1 0 0 1 263 1156)">Medium</text>
  <text style="stroke:none;fill:black;font-family:-apple-system,&quot;SF Pro Display&quot;,&quot;SF Pro Text&quot;,Helvetica,sans-serif;" transform="matrix(1 0 0 1 263 1586)">Large</text>
 </g>
 <g id="Guides">
  <g id="H-reference" style="fill:#27AAE1;stroke:none;" transform="matrix(1 0 0 1 339 696)">
   <path d="M0.976562 0L3.66211 0L12.9883-24.4629L45.752-24.4629L55.127 0L57.7637 0L30.6152-70.459L28.125-70.459ZM29.3457-67.1387L29.4434-67.1387L44.873-26.709L13.8672-26.709Z"/>
  </g>
  <line id="Baseline-S" style="fill:none;stroke:#27AAE1;opacity:1;stroke-width:0.5;" x1="263" x2="3036" y1="696" y2="696"/>
  <line id="Capline-S" style="fill:none;stroke:#27AAE1;opacity:1;stroke-width:0.5;" x1="263" x2="3036" y1="625.541" y2="625.541"/>
  <g id="H-reference" style="fill:#27AAE1;stroke:none;" transform="matrix(1 0 0 1 339 1126)">
   <path d="M0.976562 0L3.66211 0L12.9883-24.4629L45.752-24.4629L55.127 0L57.7637 0L30.6152-70.459L28.125-70.459ZM29.3457-67.1387L29.4434-67.1387L44.873-26.709L13.8672-26.709Z"/>
  </g>
  <line id="Baseline-M" style="fill:none;stroke:#27AAE1;opacity:1;stroke-width:0.5;" x1="263" x2="3036" y1="1126" y2="1126"/>
  <line id="Capline-M" style="fill:none;stroke:#27AAE1;opacity:1;stroke-width:0.5;" x1="263" x2="3036" y1="1055.54" y2="1055.54"/>
  <g id="H-reference" style="fill:#27AAE1;stroke:none;" transform="matrix(1 0 0 1 339 1556)">
   <path d="M0.976562 0L3.66211 0L12.9883-24.4629L45.752-24.4629L55.127 0L57.7637 0L30.6152-70.459L28.125-70.459ZM29.3457-67.1387L29.4434-67.1387L44.873-26.709L13.8672-26.709Z"/>
  </g>
  <line id="Baseline-L" style="fill:none;stroke:#27AAE1;opacity:1;stroke-width:0.5;" x1="263" x2="3036" y1="1556" y2="1556"/>
  <line id="Capline-L" style="fill:none;stroke:#27AAE1;opacity:1;stroke-width:0.5;" x1="263" x2="3036" y1="1485.54" y2="1485.54"/>
  <line id="left-margin" style="fill:none;stroke:#00AEEF;stroke-width:0.5;opacity:1.0;" x1="1381.85" x2="1381.85" y1="1030.79" y2="1150.12"/>
  <line id="right-margin" style="fill:none;stroke:#00AEEF;stroke-width:0.5;opacity:1.0;" x1="1517.84" x2="1517.84" y1="1030.79" y2="1150.12"/>
 </g>
 <g id="Symbols">
  <g id="Black-L" transform="matrix(1 0 0 1 2840.92 1556)">
   <path d="M42.0898 35.2539L145.02 35.2539C160.254 35.2539 168.896 26.6113 168.896 11.4258L168.896-81.8359C168.896-97.0215 160.254-105.664 145.02-105.664L71.4844-105.664C56.25-105.664 47.6074-97.0215 47.6074-81.8359L47.6074 24.5605C47.6074 30.0781 46.0449 33.3008 42.0898 35.2539ZM79.3457-60.4004C76.2695-60.4004 73.877-62.8418 73.877-65.8691C73.877-68.8965 76.2207-71.2402 79.3457-71.2402L137.158-71.2402C140.283-71.2402 142.627-68.8965 142.627-65.8691C142.627-62.8418 140.186-60.4004 137.158-60.4004ZM16.0645-39.7949L16.0645 13.8184C16.0645 20.8984 21.5332 23.4863 25.5371 23.4863C29.5898 23.4863 34.9609 20.8984 34.9609 13.8184L34.9609-60.3516L34.5215-60.3516C25.5859-60.3516 16.0645-53.4668 16.0645-39.7949ZM79.3457-40.1367C76.2207-40.1367 73.877-42.4316 73.877-45.459C73.877-48.5352 76.2695-50.9277 79.3457-50.9277L137.158-50.9277C140.186-50.9277 142.627-48.5352 142.627-45.459C142.627-42.4316 140.283-40.1367 137.158-40.1367ZM115.039-19.7754C112.012-19.7754 109.619-22.1191 109.619-25.0977C109.619-28.1738 111.963-30.5664 115.039-30.5664L137.158-30.5664C140.186-30.5664 142.529-28.1738 142.529-25.0977C142.529-22.1191 140.186-19.7754 137.158-19.7754ZM81.9336 0.683594C76.9531 0.683594 73.8281-2.44141 73.8281-7.42188L73.8281-21.0449C73.8281-25.9766 76.9531-29.1016 81.9336-29.1016L94.873-29.1016C99.9023-29.1016 102.979-25.9766 102.979-21.0449L102.979-7.42188C102.979-2.44141 99.9023 0.683594 94.873 0.683594ZM115.039-0.0976562C111.963-0.0976562 109.619-2.44141 109.619-5.41992C109.619-8.49609 112.012-10.8887 115.039-10.8887L137.158-10.8887C140.186-10.8887 142.529-8.49609 142.529-5.41992C142.529-2.44141 140.186-0.0976562 137.158-0.0976562Z"/>
  </g>
  <g id="Heavy-L" transform="matrix(1 0 0 1 2545.53 1556)">
   <path d="M40.7227 34.4727L143.506 34.4727C158.154 34.4727 166.26 26.416 166.26 11.8652L166.26-82.2754C166.26-96.8262 158.154-104.932 143.506-104.932L69.1895-104.932C54.5898-104.932 46.4844-96.8262 46.4844-82.2754L46.4844 23.3887C46.4844 29.1016 44.873 32.4707 40.7227 34.4727ZM76.5625-61.7188C73.7305-61.7188 71.5332-63.916 71.5332-66.6992C71.5332-69.4336 73.6816-71.582 76.5625-71.582L136.23-71.582C139.062-71.582 141.162-69.4336 141.162-66.6992C141.162-63.916 139.014-61.7188 136.23-61.7188ZM16.0645-40.0879L16.0645 14.2578C16.0645 20.8008 21.0449 23.4375 25.1953 23.4375C29.2969 23.4375 34.2285 20.8008 34.2285 14.2578L34.2285-58.4473L32.9102-58.4473C24.4141-58.4473 16.0645-52.1973 16.0645-40.0879ZM76.5625-40.918C73.6816-40.918 71.5332-43.0664 71.5332-45.8008C71.5332-48.584 73.7305-50.7812 76.5625-50.7812L136.23-50.7812C139.014-50.7812 141.162-48.584 141.162-45.8008C141.162-43.0664 139.062-40.918 136.23-40.918ZM113.086-20.0684C110.254-20.0684 108.105-22.2168 108.105-24.9023C108.105-27.7344 110.205-29.9316 113.086-29.9316L136.23-29.9316C139.014-29.9316 141.113-27.7344 141.113-24.9023C141.113-22.2168 139.014-20.0684 136.23-20.0684ZM79.3945 1.26953C74.5117 1.26953 71.4844-1.75781 71.4844-6.64062L71.4844-20.8496C71.4844-25.6836 74.5117-28.7109 79.3945-28.7109L93.0176-28.7109C97.9004-28.7109 100.928-25.6836 100.928-20.8496L100.928-6.64062C100.928-1.75781 97.9004 1.26953 93.0176 1.26953ZM113.086 0.341797C110.205 0.341797 108.105-1.75781 108.105-4.54102C108.105-7.27539 110.254-9.52148 113.086-9.52148L136.23-9.52148C139.014-9.52148 141.113-7.27539 141.113-4.54102C141.113-1.75781 139.014 0.341797 136.23 0.341797Z"/>
  </g>
  <g id="Bold-L" transform="matrix(1 0 0 1 2250.28 1556)">
   <path d="M39.1602 33.6426L141.846 33.6426C155.811 33.6426 163.33 26.1719 163.33 12.3535L163.33-82.7637C163.33-96.582 155.811-104.053 141.846-104.053L66.6504-104.053C52.6855-104.053 45.2148-96.582 45.2148-82.7637L45.2148 22.0703C45.2148 28.0762 43.5547 31.4941 39.1602 33.6426ZM73.3887-63.1836C70.8496-63.1836 68.9453-65.1367 68.9453-67.627C68.9453-70.0684 70.8496-71.9727 73.3887-71.9727L135.156-71.9727C137.695-71.9727 139.6-70.0684 139.6-67.627C139.6-65.1367 137.646-63.1836 135.156-63.1836ZM16.0645-40.4785L16.0645 14.7949C16.0645 20.7031 20.5566 23.4375 24.7559 23.4375C28.9551 23.3887 33.3984 20.7031 33.3984 14.7949L33.3984-56.25L31.1035-56.25C23.0469-56.25 16.0645-50.7812 16.0645-40.4785ZM73.3887-41.8457C70.8496-41.8457 68.9453-43.7012 68.9453-46.1914C68.9453-48.6328 70.8496-50.6348 73.3887-50.6348L135.156-50.6348C137.646-50.6348 139.6-48.6328 139.6-46.1914C139.6-43.7012 137.695-41.8457 135.156-41.8457ZM110.889-20.4102C108.35-20.4102 106.396-22.3145 106.396-24.7559C106.396-27.2461 108.301-29.1992 110.889-29.1992L135.156-29.1992C137.646-29.1992 139.551-27.2461 139.551-24.7559C139.551-22.3145 137.646-20.4102 135.156-20.4102ZM76.5137 1.85547C71.7773 1.85547 68.8477-1.07422 68.8477-5.81055L68.8477-20.6543C68.8477-25.3418 71.7773-28.2715 76.5137-28.2715L90.9668-28.2715C95.7031-28.2715 98.6328-25.3418 98.6328-20.6543L98.6328-5.81055C98.6328-1.07422 95.7031 1.85547 90.9668 1.85547ZM110.889 0.830078C108.301 0.830078 106.396-1.07422 106.396-3.51562C106.396-5.95703 108.35-7.95898 110.889-7.95898L135.156-7.95898C137.646-7.95898 139.551-5.95703 139.551-3.51562C139.551-1.07422 137.646 0.830078 135.156 0.830078Z"/>
  </g>
  <g id="Semibold-L" transform="matrix(1 0 0 1 1954.59 1556)">
   <path d="M38.0859 33.0566L140.723 33.0566C154.199 33.0566 161.279 26.0254 161.279 12.6953L161.279-83.1055C161.279-96.4355 154.199-103.516 140.723-103.516L64.8926-103.516C51.416-103.516 44.3359-96.4355 44.3359-83.1055L44.3359 21.1426C44.3359 27.2949 42.6758 30.8105 38.0859 33.0566ZM71.2402-64.209C68.8965-64.209 67.1387-66.0156 67.1387-68.2617C67.1387-70.5078 68.8965-72.2656 71.2402-72.2656L134.424-72.2656C136.768-72.2656 138.477-70.5078 138.477-68.2617C138.477-66.0156 136.719-64.209 134.424-64.209ZM16.0645-40.7227L16.0645 15.1855C16.0645 20.6543 20.2148 23.4375 24.5117 23.3887C28.7598 23.3887 32.8125 20.6543 32.8125 15.1855L32.8125-54.7852L29.8828-54.7852C22.1191-54.7852 16.0645-49.8047 16.0645-40.7227ZM71.2402-42.4316C68.8965-42.4316 67.1387-44.1895 67.1387-46.4355C67.1387-48.6816 68.8965-50.4883 71.2402-50.4883L134.424-50.4883C136.719-50.4883 138.477-48.6816 138.477-46.4355C138.477-44.1895 136.768-42.4316 134.424-42.4316ZM109.326-20.6543C107.031-20.6543 105.225-22.4121 105.225-24.6094C105.225-26.9043 106.982-28.7109 109.326-28.7109L134.424-28.7109C136.719-28.7109 138.477-26.9043 138.477-24.6094C138.477-22.4121 136.719-20.6543 134.424-20.6543ZM74.5605 2.29492C69.873 2.29492 66.9922-0.537109 66.9922-5.22461L66.9922-20.5078C66.9922-25.0977 69.873-27.9785 74.5605-27.9785L89.502-27.9785C94.1895-27.9785 97.0703-25.0977 97.0703-20.5078L97.0703-5.22461C97.0703-0.537109 94.1895 2.29492 89.502 2.29492ZM109.326 1.17188C106.982 1.17188 105.225-0.537109 105.225-2.7832C105.225-5.07812 107.031-6.88477 109.326-6.88477L134.424-6.88477C136.719-6.88477 138.477-5.07812 138.477-2.7832C138.477-0.537109 136.719 1.17188 134.424 1.17188Z"/>
  </g>
  <g id="Medium-L" transform="matrix(1 0 0 1 1658.66 1556)">
   <path d="M37.3047 32.666L139.844 32.666C152.979 32.666 159.717 25.9277 159.717 12.9395L159.717-83.3496C159.717-96.3379 152.979-103.076 139.844-103.076L63.5742-103.076C50.4395-103.076 43.6523-96.3379 43.6523-83.3496L43.6523 20.459C43.6523 26.7578 41.9922 30.2734 37.3047 32.666ZM69.5801-64.9414C67.3828-64.9414 65.7715-66.6504 65.7715-68.75C65.7715-70.8496 67.3828-72.4609 69.5801-72.4609L133.887-72.4609C136.035-72.4609 137.646-70.8496 137.646-68.75C137.646-66.6504 136.035-64.9414 133.887-64.9414ZM16.0645-40.918L16.0645 15.4785C16.0645 20.6543 19.9219 23.4375 24.2676 23.3887C28.5645 23.3887 32.373 20.6055 32.373 15.4785L32.373-53.6621L28.9551-53.6621C21.4355-53.6621 16.0645-49.0723 16.0645-40.918ZM69.5801-42.9199C67.3828-42.9199 65.7715-44.5312 65.7715-46.6309C65.7715-48.7305 67.3828-50.4395 69.5801-50.4395L133.887-50.4395C136.035-50.4395 137.646-48.7305 137.646-46.6309C137.646-44.5312 136.035-42.9199 133.887-42.9199ZM108.203-20.8008C106.006-20.8008 104.346-22.4609 104.346-24.5117C104.346-26.6602 106.006-28.3203 108.203-28.3203L133.838-28.3203C136.035-28.3203 137.646-26.6602 137.646-24.5117C137.646-22.4609 136.035-20.8008 133.838-20.8008ZM73.0469 2.63672C68.457 2.63672 65.625-0.195312 65.625-4.73633L65.625-20.3613C65.625-24.9512 68.457-27.7832 73.0469-27.7832L88.4277-27.7832C93.0176-27.7832 95.8496-24.9512 95.8496-20.3613L95.8496-4.73633C95.8496-0.195312 93.0176 2.63672 88.4277 2.63672ZM108.203 1.46484C106.006 1.46484 104.346-0.195312 104.346-2.24609C104.346-4.39453 106.006-6.05469 108.203-6.05469L133.838-6.05469C136.035-6.05469 137.646-4.39453 137.646-2.24609C137.646-0.195312 136.035 1.46484 133.838 1.46484Z"/>
  </g>
  <g id="Regular-L" transform="matrix(1 0 0 1 1362.95 1556)">
   <path d="M36.2305 32.0801L138.721 32.0801C151.367 32.0801 157.715 25.7324 157.715 13.2812L157.715-83.6914C157.715-96.1914 151.367-102.49 138.721-102.49L61.8164-102.49C49.1699-102.49 42.8223-96.1914 42.8223-83.6914L42.8223 19.5801C42.8223 26.0254 41.1133 29.6387 36.2305 32.0801ZM67.4316-65.9668C65.4297-65.9668 63.9648-67.4805 63.9648-69.3848C63.9648-71.2891 65.4297-72.7539 67.4316-72.7539L133.154-72.7539C135.107-72.7539 136.572-71.2891 136.572-69.3848C136.572-67.4805 135.107-65.9668 133.154-65.9668ZM16.0645-41.1621L16.0645 15.8203C16.0645 20.5566 19.5801 23.4375 23.9746 23.3887C28.3203 23.3398 31.7871 20.5078 31.7871 15.8203L31.7871-52.1973L27.7344-52.1973C20.5078-52.1973 16.0645-48.0957 16.0645-41.1621ZM67.4316-43.5547C65.4297-43.5547 63.9648-45.0195 63.9648-46.875C63.9648-48.7793 65.4297-50.293 67.4316-50.293L133.154-50.293C135.107-50.293 136.572-48.7793 136.572-46.875C136.572-45.0195 135.107-43.5547 133.154-43.5547ZM106.689-21.0449C104.688-21.0449 103.223-22.5098 103.223-24.3652C103.223-26.3184 104.688-27.832 106.689-27.832L133.154-27.832C135.107-27.832 136.572-26.3184 136.572-24.3652C136.572-22.5098 135.107-21.0449 133.154-21.0449ZM71.0938 3.07617C66.6016 3.07617 63.8184 0.292969 63.8184-4.15039L63.8184-20.2148C63.8184-24.707 66.6016-27.4902 71.0938-27.4902L87.0117-27.4902C91.5527-27.4902 94.2871-24.707 94.2871-20.2148L94.2871-4.15039C94.2871 0.292969 91.5527 3.07617 87.0117 3.07617ZM106.689 1.75781C104.688 1.75781 103.223 0.292969 103.223-1.5625C103.223-3.4668 104.688-4.98047 106.689-4.98047L133.154-4.98047C135.107-4.98047 136.572-3.4668 136.572-1.5625C136.572 0.292969 135.107 1.75781 133.154 1.75781Z"/>
  </g>
  <g id="Light-L" transform="matrix(1 0 0 1 1067.37 1556)">
   <path d="M34.7168 31.7871L137.5 31.7871C149.365 31.7871 155.469 25.6836 155.469 13.916L155.469-84.2285C155.469-96.0449 149.365-102.1 137.5-102.1L59.3262-102.1C47.4609-102.1 41.3574-96.0449 41.3574-84.2285L41.3574 20.2148C41.3574 26.3184 39.502 29.7363 34.7168 31.7871ZM65.1855-66.8945C63.5742-66.8945 62.4023-68.1152 62.4023-69.6777C62.4023-71.1426 63.5742-72.3633 65.1855-72.3633L131.689-72.3633C133.252-72.3633 134.473-71.1426 134.473-69.6777C134.473-68.1152 133.252-66.8945 131.689-66.8945ZM16.0645-40.8203L16.0645 17.1387C16.0645 22.0215 19.873 24.7559 24.2188 24.707C28.4668 24.6582 32.1777 21.9238 32.1777 17.1387L32.1777-50.7812L26.6602-50.7812C20.0684-50.7812 16.0645-47.0703 16.0645-40.8203ZM65.1855-44.1406C63.5742-44.1406 62.4023-45.3125 62.4023-46.8262C62.4023-48.3887 63.5742-49.5605 65.1855-49.5605L131.689-49.5605C133.252-49.5605 134.473-48.3887 134.473-46.8262C134.473-45.3125 133.252-44.1406 131.689-44.1406ZM69.1895 3.17383C64.8438 3.17383 62.1582 0.488281 62.1582-3.80859L62.1582-20.166C62.1582-24.4141 64.8438-27.1484 69.1895-27.1484L85.3516-27.1484C89.6973-27.1484 92.3828-24.4141 92.3828-20.166L92.3828-3.80859C92.3828 0.488281 89.6973 3.17383 85.3516 3.17383ZM104.59-21.3379C102.979-21.3379 101.807-22.5098 101.807-24.0234C101.807-25.5859 102.979-26.8066 104.59-26.8066L131.641-26.8066C133.203-26.8066 134.424-25.5859 134.424-24.0234C134.424-22.5098 133.203-21.3379 131.641-21.3379ZM104.59 1.66016C102.979 1.66016 101.807 0.488281 101.807-1.02539C101.807-2.53906 102.979-3.75977 104.59-3.75977L131.641-3.75977C133.203-3.75977 134.424-2.53906 134.424-1.02539C134.424 0.488281 133.203 1.66016 131.641 1.66016Z"/>
  </g>
  <g id="Thin-L" transform="matrix(1 0 0 1 772.169 1556)">
   <path d="M32.666 31.3477L135.84 31.3477C146.729 31.3477 152.441 25.6348 152.441 14.7461L152.441-85.0098C152.441-95.8496 146.729-101.611 135.84-101.611L56.0059-101.611C45.166-101.611 39.4043-95.8496 39.4043-85.0098L39.4043 21.0938C39.4043 26.709 37.3535 29.834 32.666 31.3477ZM62.207-68.1641C61.1328-68.1641 60.3027-68.9941 60.3027-70.0195C60.3027-70.9961 61.1328-71.8262 62.207-71.8262L129.736-71.8262C130.811-71.8262 131.641-70.9961 131.641-70.0195C131.641-68.9941 130.811-68.1641 129.736-68.1641ZM16.0645-40.3809L16.0645 18.8965C16.0645 23.9746 20.2148 26.5137 24.5117 26.416C28.6621 26.3672 32.666 23.8281 32.666 18.8965L32.666-48.877L25.293-48.877C19.5312-48.877 16.0645-45.7031 16.0645-40.3809ZM62.207-44.9707C61.1328-44.9707 60.3027-45.752 60.3027-46.7773C60.3027-47.8027 61.1328-48.6328 62.207-48.6328L129.736-48.6328C130.811-48.6328 131.641-47.8027 131.641-46.7773C131.641-45.752 130.811-44.9707 129.736-44.9707ZM66.6504 3.36914C62.5977 3.36914 59.9121 0.683594 59.9121-3.32031L59.9121-20.0195C59.9121-24.0234 62.5977-26.709 66.6504-26.709L83.1543-26.709C87.2559-26.709 89.8926-24.0234 89.8926-20.0195L89.8926-3.32031C89.8926 0.683594 87.2559 3.36914 83.1543 3.36914ZM101.855-21.7285C100.781-21.7285 99.9512-22.5586 99.9512-23.584C99.9512-24.6094 100.781-25.4395 101.855-25.4395L129.639-25.4395C130.762-25.4395 131.592-24.6094 131.592-23.584C131.592-22.5586 130.762-21.7285 129.639-21.7285ZM101.855 1.51367C100.781 1.51367 99.9512 0.683594 99.9512-0.292969C99.9512-1.31836 100.781-2.14844 101.855-2.14844L129.639-2.14844C130.762-2.14844 131.592-1.31836 131.592-0.292969C131.592 0.683594 130.762 1.51367 129.639 1.51367Z"/>
  </g>
  <g id="Ultralight-L" transform="matrix(1 0 0 1 476.215 1556)">
   <path d="M31.6406 31.1523L135.01 31.1523C145.361 31.1523 150.928 25.5859 150.928 15.1855L150.928-85.4004C150.928-95.8008 145.361-101.318 135.01-101.318L54.3457-101.318C43.9453-101.318 38.4277-95.8008 38.4277-85.4004L38.4277 21.582C38.4277 26.9043 36.2793 29.8828 31.6406 31.1523ZM60.6934-68.7988C59.8633-68.7988 59.2285-69.4336 59.2285-70.166C59.2285-70.9473 59.8633-71.582 60.6934-71.582L128.711-71.582C129.59-71.582 130.225-70.9473 130.225-70.166C130.225-69.4336 129.59-68.7988 128.711-68.7988ZM60.6934-45.3613C59.8633-45.3613 59.2285-45.9961 59.2285-46.7773C59.2285-47.5098 59.8633-48.1445 60.6934-48.1445L128.711-48.1445C129.59-48.1445 130.225-47.5098 130.225-46.7773C130.225-45.9961 129.59-45.3613 128.711-45.3613ZM16.0645-40.1367L16.0645 19.7754C16.0645 24.9512 20.4102 27.3926 24.6582 27.3438C28.7109 27.2461 32.9102 24.8047 32.9102 19.7754L32.9102-47.9004L24.5605-47.9004C19.2383-47.9004 16.0645-44.9707 16.0645-40.1367ZM65.3809 3.4668C61.4258 3.4668 58.7891 0.830078 58.7891-3.07617L58.7891-19.9707C58.7891-23.8281 61.4258-26.4648 65.3809-26.4648L82.0312-26.4648C85.9863-26.4648 88.623-23.8281 88.623-19.9707L88.623-3.07617C88.623 0.830078 85.9863 3.4668 82.0312 3.4668ZM100.488-21.9238C99.6094-21.9238 99.0234-22.5586 99.0234-23.3398C99.0234-24.0723 99.6094-24.707 100.488-24.707L128.662-24.707C129.492-24.707 130.127-24.0723 130.127-23.3398C130.127-22.5586 129.492-21.9238 128.662-21.9238ZM100.488 1.46484C99.6094 1.46484 99.0234 0.830078 99.0234 0.0488281C99.0234-0.732422 99.6094-1.31836 100.488-1.31836L128.662-1.31836C129.492-1.31836 130.127-0.732422 130.127 0.0488281C130.127 0.830078 129.492 1.46484 128.662 1.46484Z"/>
  </g>
  <g id="Black-M" transform="matrix(1 0 0 1 2860.55 1126)">
   <path d="M33.6426 20.2148L113.721 20.2148C125.977 20.2148 133.252 12.9395 133.252 0.683594L133.252-71.0938C133.252-83.3496 125.977-90.625 113.721-90.625L57.1777-90.625C44.9219-90.625 37.6465-83.3496 37.6465-71.0938L37.6465 13.0859C37.6465 16.8457 36.377 19.1406 33.6426 20.2148ZM64.0625-53.4668C61.5723-53.4668 59.5703-55.4688 59.5703-58.0078C59.5703-60.498 61.5234-62.4512 64.0625-62.4512L106.787-62.4512C109.375-62.4512 111.279-60.498 111.279-58.0078C111.279-55.4688 109.277-53.4668 106.787-53.4668ZM12.4512-38.1348L12.4512 2.83203C12.4512 9.13086 17.4316 10.9863 20.4102 10.9863C23.3887 10.9863 28.3203 9.13086 28.3203 2.83203L28.3203-56.543L28.3203-56.543C21.2402-56.543 12.4512-50.4883 12.4512-38.1348ZM64.0625-38.2324C61.5234-38.2324 59.5703-40.1855 59.5703-42.7246C59.5703-45.2148 61.5723-47.2168 64.0625-47.2168L106.787-47.2168C109.277-47.2168 111.279-45.2148 111.279-42.7246C111.279-40.1855 109.375-38.2324 106.787-38.2324ZM90.7227-23.0469C88.2324-23.0469 86.2305-24.9512 86.2305-27.3926C86.2305-29.9805 88.1836-31.9336 90.7227-31.9336L106.787-31.9336C109.277-31.9336 111.23-29.9805 111.23-27.3926C111.23-24.9512 109.277-23.0469 106.787-23.0469ZM65.918-8.10547C62.0117-8.10547 59.5215-10.5957 59.5215-14.502L59.5215-24.4141C59.5215-28.3203 62.0117-30.8105 65.918-30.8105L75.1465-30.8105C79.1016-30.8105 81.5918-28.3203 81.5918-24.4141L81.5918-14.502C81.5918-10.5957 79.1016-8.10547 75.1465-8.10547ZM90.7227-8.64258C88.1836-8.64258 86.2305-10.5957 86.2305-13.0859C86.2305-15.5762 88.2324-17.5781 90.7227-17.5781L106.787-17.5781C109.277-17.5781 111.23-15.5762 111.23-13.0859C111.23-10.5957 109.277-8.64258 106.787-8.64258Z"/>
  </g>
  <g id="Heavy-M" transform="matrix(1 0 0 1 2564.98 1126)">
   <path d="M32.5684 19.4824L112.402 19.4824C124.17 19.4824 130.957 12.7441 130.957 0.976562L130.957-71.3867C130.957-83.1543 124.17-89.8926 112.402-89.8926L55.3223-89.8926C43.5547-89.8926 36.7676-83.1543 36.7676-71.3867L36.7676 11.6211C36.7676 15.7227 35.5469 18.1641 32.5684 19.4824ZM61.5723-54.6875C59.2773-54.6875 57.4219-56.4941 57.4219-58.8379C57.4219-61.1328 59.2285-62.9395 61.5723-62.9395L106.152-62.9395C108.496-62.9395 110.303-61.1328 110.303-58.8379C110.303-56.4941 108.447-54.6875 106.152-54.6875ZM12.4512-38.5742L12.4512 3.02734C12.4512 8.69141 16.8457 10.6445 19.9707 10.5957C23.0469 10.5957 27.3926 8.64258 27.3926 3.02734L27.3926-54.7852L26.8555-54.7852C20.0195-54.7852 12.4512-49.3652 12.4512-38.5742ZM61.5723-38.9648C59.2285-38.9648 57.4219-40.7715 57.4219-43.0664C57.4219-45.4102 59.2773-47.2168 61.5723-47.2168L106.152-47.2168C108.447-47.2168 110.303-45.4102 110.303-43.0664C110.303-40.7715 108.496-38.9648 106.152-38.9648ZM89.1113-23.291C86.7676-23.291 84.9609-25.0488 84.9609-27.3438C84.9609-29.6875 86.7188-31.4941 89.1113-31.4941L106.152-31.4941C108.447-31.4941 110.254-29.6875 110.254-27.3438C110.254-25.0488 108.447-23.291 106.152-23.291ZM63.623-7.51953C59.7656-7.51953 57.373-9.91211 57.373-13.7695L57.373-24.2676C57.373-28.0762 59.7656-30.4688 63.623-30.4688L73.5352-30.4688C77.3926-30.4688 79.834-28.0762 79.834-24.2676L79.834-13.7695C79.834-9.91211 77.3926-7.51953 73.5352-7.51953ZM89.1113-8.1543C86.7188-8.1543 84.9609-9.91211 84.9609-12.207C84.9609-14.5508 86.7676-16.4062 89.1113-16.4062L106.152-16.4062C108.447-16.4062 110.254-14.5508 110.254-12.207C110.254-9.91211 108.447-8.1543 106.152-8.1543Z"/>
  </g>
  <g id="Bold-M" transform="matrix(1 0 0 1 2269.57 1126)">
   <path d="M31.2988 18.6523L110.938 18.6523C122.217 18.6523 128.369 12.5 128.369 1.31836L128.369-71.7773C128.369-82.9102 122.217-89.1113 110.938-89.1113L53.2227-89.1113C41.9922-89.1113 35.8398-82.9102 35.8398-71.7773L35.8398 9.96094C35.8398 14.4531 34.5703 17.041 31.2988 18.6523ZM58.8379-56.0059C56.6895-56.0059 55.0293-57.666 55.0293-59.7656C55.0293-61.8652 56.6406-63.4766 58.8379-63.4766L105.42-63.4766C107.568-63.4766 109.18-61.8652 109.18-59.7656C109.18-57.666 107.52-56.0059 105.42-56.0059ZM12.4512-39.0625L12.4512 3.22266C12.4512 8.1543 16.2109 10.2051 19.4336 10.2051C22.6562 10.2051 26.3672 8.1543 26.3672 3.22266L26.3672-52.8809L25.1953-52.8809C18.7012-52.8809 12.4512-48.1445 12.4512-39.0625ZM58.8379-39.7949C56.6406-39.7949 55.0293-41.4062 55.0293-43.5059C55.0293-45.6055 56.6895-47.2656 58.8379-47.2656L105.42-47.2656C107.52-47.2656 109.18-45.6055 109.18-43.5059C109.18-41.4062 107.568-39.7949 105.42-39.7949ZM87.3047-23.5352C85.1562-23.5352 83.4961-25.1465 83.4961-27.1973C83.4961-29.3457 85.1074-31.0059 87.3047-31.0059L105.42-31.0059C107.52-31.0059 109.131-29.3457 109.131-27.1973C109.131-25.1465 107.52-23.5352 105.42-23.5352ZM61.0352-6.83594C57.2754-6.83594 54.9805-9.17969 54.9805-12.9395L54.9805-24.0723C54.9805-27.7832 57.2754-30.127 61.0352-30.127L71.7773-30.127C75.5371-30.127 77.8809-27.7832 77.8809-24.0723L77.8809-12.9395C77.8809-9.17969 75.5371-6.83594 71.7773-6.83594ZM87.3047-7.56836C85.1074-7.56836 83.4961-9.17969 83.4961-11.2793C83.4961-13.3789 85.1562-15.0391 87.3047-15.0391L105.42-15.0391C107.52-15.0391 109.131-13.3789 109.131-11.2793C109.131-9.17969 107.52-7.56836 105.42-7.56836Z"/>
  </g>
  <g id="Semibold-M" transform="matrix(1 0 0 1 1973.74 1126)">
   <path d="M30.4688 18.1152L109.961 18.1152C120.85 18.1152 126.611 12.3535 126.611 1.5625L126.611-72.0215C126.611-82.7637 120.85-88.5254 109.961-88.5254L51.8066-88.5254C40.9668-88.5254 35.1562-82.7637 35.1562-72.0215L35.1562 8.83789C35.1562 13.5742 33.9355 16.3086 30.4688 18.1152ZM56.8848-56.9336C54.8828-56.9336 53.3691-58.4473 53.3691-60.4492C53.3691-62.3535 54.8828-63.8672 56.8848-63.8672L104.932-63.8672C106.934-63.8672 108.398-62.3535 108.398-60.4492C108.398-58.4473 106.885-56.9336 104.932-56.9336ZM12.4512-39.4043L12.4512 3.36914C12.4512 7.8125 15.7715 9.96094 19.0918 9.96094C22.3633 9.91211 25.6836 7.76367 25.6836 3.36914L25.6836-51.5137L24.0723-51.5137C17.7734-51.5137 12.4512-47.2656 12.4512-39.4043ZM56.8848-40.332C54.8828-40.332 53.3691-41.8457 53.3691-43.75C53.3691-45.752 54.8828-47.2656 56.8848-47.2656L104.932-47.2656C106.885-47.2656 108.398-45.752 108.398-43.75C108.398-41.8457 106.934-40.332 104.932-40.332ZM86.0352-23.7305C84.0332-23.7305 82.5195-25.2441 82.5195-27.1484C82.5195-29.1504 84.0332-30.6641 86.0352-30.6641L104.932-30.6641C106.885-30.6641 108.398-29.1504 108.398-27.1484C108.398-25.2441 106.885-23.7305 104.932-23.7305ZM59.2773-6.39648C55.5664-6.39648 53.3203-8.69141 53.3203-12.3535L53.3203-23.9258C53.3203-27.5879 55.5664-29.834 59.2773-29.834L70.5566-29.834C74.2676-29.834 76.5137-27.5879 76.5137-23.9258L76.5137-12.3535C76.5137-8.69141 74.2676-6.39648 70.5566-6.39648ZM86.0352-7.17773C84.0332-7.17773 82.5195-8.69141 82.5195-10.5957C82.5195-12.5488 84.0332-14.1113 86.0352-14.1113L104.932-14.1113C106.885-14.1113 108.398-12.5488 108.398-10.5957C108.398-8.69141 106.885-7.17773 104.932-7.17773Z"/>
  </g>
  <g id="Medium-M" transform="matrix(1 0 0 1 1677.68 1126)">
   <path d="M29.834 17.6758L109.18 17.6758C119.775 17.6758 125.293 12.207 125.293 1.75781L125.293-72.2168C125.293-82.666 119.775-88.1348 109.18-88.1348L50.7324-88.1348C40.1367-88.1348 34.668-82.666 34.668-72.2168L34.668 7.95898C34.668 12.9395 33.4473 15.7227 29.834 17.6758ZM55.4688-57.6172C53.5645-57.6172 52.1484-59.082 52.1484-60.9375C52.1484-62.7441 53.5156-64.1602 55.4688-64.1602L104.541-64.1602C106.396-64.1602 107.812-62.7441 107.812-60.9375C107.812-59.082 106.396-57.6172 104.541-57.6172ZM12.4512-39.6484L12.4512 3.4668C12.4512 7.51953 15.4785 9.7168 18.7988 9.7168C22.168 9.7168 25.1465 7.51953 25.1465 3.4668L25.1465-50.4883L23.1934-50.4883C17.041-50.4883 12.4512-46.6309 12.4512-39.6484ZM55.4688-40.7715C53.5156-40.7715 52.1484-42.1875 52.1484-43.9941C52.1484-45.8496 53.5645-47.3145 55.4688-47.3145L104.541-47.3145C106.396-47.3145 107.812-45.8496 107.812-43.9941C107.812-42.1875 106.396-40.7715 104.541-40.7715ZM85.1074-23.877C83.2031-23.877 81.7871-25.293 81.7871-27.0996C81.7871-28.9551 83.1543-30.4199 85.1074-30.4199L104.541-30.4199C106.396-30.4199 107.812-28.9551 107.812-27.0996C107.812-25.293 106.396-23.877 104.541-23.877ZM57.959-6.05469C54.2969-6.05469 52.0508-8.30078 52.0508-11.9141L52.0508-23.7793C52.0508-27.4414 54.2969-29.6387 57.959-29.6387L69.5801-29.6387C73.291-29.6387 75.4883-27.4414 75.4883-23.7793L75.4883-11.9141C75.4883-8.30078 73.291-6.05469 69.5801-6.05469ZM85.1074-6.88477C83.1543-6.88477 81.7871-8.30078 81.7871-10.1074C81.7871-11.9629 83.2031-13.4277 85.1074-13.4277L104.541-13.4277C106.396-13.4277 107.812-11.9629 107.812-10.1074C107.812-8.30078 106.396-6.88477 104.541-6.88477Z"/>
  </g>
  <g id="Regular-M" transform="matrix(1 0 0 1 1381.85 1126)">
   <path d="M28.9551 17.0898L108.203 17.0898C118.457 17.0898 123.535 12.0605 123.535 2.00195L123.535-72.4609C123.535-82.5195 118.457-87.5977 108.203-87.5977L49.3164-87.5977C39.1113-87.5977 33.9844-82.5195 33.9844-72.4609L33.9844 6.83594C33.9844 12.0605 32.7637 14.9902 28.9551 17.0898ZM53.5645-58.4961C51.8066-58.4961 50.4883-59.8633 50.4883-61.5723C50.4883-63.2324 51.8066-64.502 53.5645-64.502L104.053-64.502C105.762-64.502 107.08-63.2324 107.08-61.5723C107.08-59.8633 105.762-58.4961 104.053-58.4961ZM12.4512-39.9902L12.4512 3.61328C12.4512 7.17773 15.0391 9.47266 18.457 9.47266C21.875 9.42383 24.4629 7.17773 24.4629 3.61328L24.4629-49.1699L22.0703-49.1699C16.1133-49.1699 12.4512-45.8008 12.4512-39.9902ZM53.5645-41.3086C51.8066-41.3086 50.4883-42.627 50.4883-44.2871C50.4883-45.9961 51.8066-47.3145 53.5645-47.3145L104.053-47.3145C105.762-47.3145 107.08-45.9961 107.08-44.2871C107.08-42.627 105.762-41.3086 104.053-41.3086ZM83.8379-24.0723C82.0801-24.0723 80.8105-25.3418 80.8105-27.002C80.8105-28.7598 82.0801-30.0781 83.8379-30.0781L104.053-30.0781C105.762-30.0781 107.031-28.7598 107.031-27.002C107.031-25.3418 105.762-24.0723 104.053-24.0723ZM56.2012-5.61523C52.5879-5.61523 50.4395-7.76367 50.4395-11.377L50.4395-23.6816C50.4395-27.2461 52.5879-29.3945 56.2012-29.3945L68.4082-29.3945C71.9727-29.3945 74.1211-27.2461 74.1211-23.6816L74.1211-11.377C74.1211-7.76367 71.9727-5.61523 68.4082-5.61523ZM83.8379-6.49414C82.0801-6.49414 80.8105-7.76367 80.8105-9.42383C80.8105-11.1328 82.0801-12.5 83.8379-12.5L104.053-12.5C105.762-12.5 107.031-11.1328 107.031-9.42383C107.031-7.76367 105.762-6.49414 104.053-6.49414Z"/>
  </g>
  <g id="Light-M" transform="matrix(1 0 0 1 1086.17 1126)">
   <path d="M27.5879 16.8457L107.08 16.8457C116.65 16.8457 121.484 12.0117 121.484 2.58789L121.484-72.9492C121.484-82.4219 116.65-87.207 107.08-87.207L47.0703-87.207C37.5488-87.207 32.7148-82.4219 32.7148-72.9492L32.7148 7.4707C32.7148 12.3535 31.3477 15.0391 27.5879 16.8457ZM51.5137-59.375C50.0977-59.375 49.0723-60.4492 49.0723-61.8164C49.0723-63.1348 50.0977-64.1602 51.5137-64.1602L102.734-64.1602C104.102-64.1602 105.176-63.1348 105.176-61.8164C105.176-60.4492 104.102-59.375 102.734-59.375ZM12.4512-39.6973L12.4512 4.78516C12.4512 8.49609 15.2832 10.6445 18.6523 10.6445C22.0215 10.5957 24.7559 8.44727 24.7559 4.78516L24.7559-47.9004L21.1426-47.9004C15.7715-47.9004 12.4512-44.873 12.4512-39.6973ZM51.5137-41.8457C50.0977-41.8457 49.0723-42.9199 49.0723-44.2383C49.0723-45.6055 50.0977-46.6797 51.5137-46.6797L102.734-46.6797C104.102-46.6797 105.176-45.6055 105.176-44.2383C105.176-42.9199 104.102-41.8457 102.734-41.8457ZM81.9824-24.3164C80.5664-24.3164 79.541-25.3906 79.541-26.709C79.541-28.0762 80.5664-29.1504 81.9824-29.1504L102.686-29.1504C104.102-29.1504 105.127-28.0762 105.127-26.709C105.127-25.3906 104.102-24.3164 102.686-24.3164ZM54.4922-5.51758C51.0254-5.51758 48.9258-7.61719 48.9258-11.0352L48.9258-23.584C48.9258-27.002 51.0254-29.1016 54.4922-29.1016L66.8945-29.1016C70.3125-29.1016 72.4609-27.002 72.4609-23.584L72.4609-11.0352C72.4609-7.61719 70.3125-5.51758 66.8945-5.51758ZM81.9824-6.5918C80.5664-6.5918 79.541-7.61719 79.541-8.93555C79.541-10.3027 80.5664-11.377 81.9824-11.377L102.686-11.377C104.102-11.377 105.127-10.3027 105.127-8.93555C105.127-7.61719 104.102-6.5918 102.686-6.5918Z"/>
  </g>
  <g id="Thin-M" transform="matrix(1 0 0 1 790.797 1126)">
   <path d="M25.7812 16.4551L105.615 16.4551C114.258 16.4551 118.799 11.9629 118.799 3.32031L118.799-73.6328C118.799-82.2754 114.258-86.7676 105.615-86.7676L44.1406-86.7676C35.498-86.7676 30.957-82.2754 30.957-73.6328L30.957 8.25195C30.957 12.6953 29.4434 15.1855 25.7812 16.4551ZM48.877-60.498C47.9004-60.498 47.168-61.1816 47.168-62.1094C47.168-62.9883 47.9004-63.7207 48.877-63.7207L100.977-63.7207C101.904-63.7207 102.637-62.9883 102.637-62.1094C102.637-61.1816 101.904-60.498 100.977-60.498ZM12.4512-39.3066L12.4512 6.34766C12.4512 10.2539 15.5762 12.2559 18.9453 12.207C22.168 12.1094 25.1953 10.1074 25.1953 6.34766L25.1953-46.1914L19.873-46.1914C15.2344-46.1914 12.4512-43.6523 12.4512-39.3066ZM48.877-42.5781C47.9004-42.5781 47.168-43.3105 47.168-44.1895C47.168-45.1172 47.9004-45.8008 48.877-45.8008L100.977-45.8008C101.904-45.8008 102.637-45.1172 102.637-44.1895C102.637-43.3105 101.904-42.5781 100.977-42.5781ZM52.1973-5.37109C48.9746-5.37109 46.9238-7.42188 46.9238-10.5957L46.9238-23.4863C46.9238-26.6602 48.9746-28.7109 52.1973-28.7109L64.9414-28.7109C68.1641-28.7109 70.2148-26.6602 70.2148-23.4863L70.2148-10.5957C70.2148-7.42188 68.1641-5.37109 64.9414-5.37109ZM79.541-24.707C78.5645-24.707 77.8809-25.3906 77.8809-26.3184C77.8809-27.1973 78.5645-27.9297 79.541-27.9297L100.928-27.9297C101.855-27.9297 102.588-27.1973 102.588-26.3184C102.588-25.3906 101.855-24.707 100.928-24.707ZM79.541-6.73828C78.5645-6.73828 77.8809-7.42188 77.8809-8.30078C77.8809-9.22852 78.5645-9.96094 79.541-9.96094L100.928-9.96094C101.855-9.96094 102.588-9.22852 102.588-8.30078C102.588-7.42188 101.855-6.73828 100.928-6.73828Z"/>
  </g>
  <g id="Ultralight-M" transform="matrix(1 0 0 1 494.77 1126)">
   <path d="M24.8535 16.2598L104.883 16.2598C113.086 16.2598 117.432 11.9141 117.432 3.71094L117.432-73.9746C117.432-82.1777 113.086-86.5234 104.883-86.5234L42.627-86.5234C34.4238-86.5234 30.0781-82.1777 30.0781-73.9746L30.0781 8.64258C30.0781 12.8906 28.4668 15.2344 24.8535 16.2598ZM47.5098-61.0352C46.7773-61.0352 46.1914-61.5723 46.1914-62.2559C46.1914-62.9395 46.7773-63.4766 47.5098-63.4766L100.049-63.4766C100.781-63.4766 101.367-62.9395 101.367-62.2559C101.367-61.5723 100.781-61.0352 100.049-61.0352ZM47.5098-42.9688C46.7773-42.9688 46.1914-43.5059 46.1914-44.1895C46.1914-44.8242 46.7773-45.3613 47.5098-45.3613L100.049-45.3613C100.781-45.3613 101.367-44.8242 101.367-44.1895C101.367-43.5059 100.781-42.9688 100.049-42.9688ZM12.4512-39.1113L12.4512 7.12891C12.4512 11.1328 15.7715 13.0371 19.0918 12.9883C22.2656 12.9395 25.4395 10.9863 25.4395 7.12891L25.4395-45.3613L19.2383-45.3613C14.9902-45.3613 12.4512-43.0176 12.4512-39.1113ZM51.0742-5.27344C47.9492-5.27344 45.8984-7.32422 45.8984-10.3516L45.8984-23.4375C45.8984-26.4648 47.9492-28.5156 51.0742-28.5156L63.916-28.5156C67.041-28.5156 69.0918-26.4648 69.0918-23.4375L69.0918-10.3516C69.0918-7.32422 67.041-5.27344 63.916-5.27344ZM78.2715-24.8535C77.5391-24.8535 77.002-25.3906 77.002-26.0742C77.002-26.7578 77.5391-27.2949 78.2715-27.2949L100-27.2949C100.732-27.2949 101.27-26.7578 101.27-26.0742C101.27-25.3906 100.732-24.8535 100-24.8535ZM78.2715-6.78711C77.5391-6.78711 77.002-7.32422 77.002-8.00781C77.002-8.64258 77.5391-9.22852 78.2715-9.22852L100-9.22852C100.732-9.22852 101.27-8.64258 101.27-8.00781C101.27-7.32422 100.732-6.78711 100-6.78711Z"/>
  </g>
  <g id="Black-S" transform="matrix(1 0 0 1 2876.39 696)">
   <path d="M26.3184 8.1543L89.0137 8.1543C98.584 8.1543 104.248 2.49023 104.248-7.08008L104.248-63.3301C104.248-72.9004 98.584-78.5645 89.0137-78.5645L44.6777-78.5645C35.1074-78.5645 29.4434-72.9004 29.4434-63.3301L29.4434 2.49023C29.4434 5.46875 28.4668 7.27539 26.3184 8.1543ZM50.0488-49.6094C48.0957-49.6094 46.5332-51.1719 46.5332-53.125C46.5332-55.0781 48.0469-56.5918 50.0488-56.5918L83.6426-56.5918C85.6445-56.5918 87.1582-55.0781 87.1582-53.125C87.1582-51.1719 85.5957-49.6094 83.6426-49.6094ZM9.76562-37.5488L9.76562-5.41992C9.76562-0.537109 13.623 0.927734 15.9668 0.927734C18.3105 0.927734 22.1191-0.537109 22.1191-5.41992L22.1191-51.8066C16.5527-51.8066 9.76562-47.1191 9.76562-37.5488ZM50.0488-37.6465C48.0469-37.6465 46.5332-39.1602 46.5332-41.1133C46.5332-43.0664 48.0957-44.6289 50.0488-44.6289L83.6426-44.6289C85.5957-44.6289 87.1582-43.0664 87.1582-41.1133C87.1582-39.1602 85.6445-37.6465 83.6426-37.6465ZM70.9961-25.6836C69.043-25.6836 67.4805-27.1973 67.4805-29.1016C67.4805-31.1035 68.9941-32.6172 70.9961-32.6172L83.6426-32.6172C85.5957-32.6172 87.1094-31.1035 87.1094-29.1016C87.1094-27.1973 85.5957-25.6836 83.6426-25.6836ZM51.5137-13.916C48.4375-13.916 46.4844-15.8691 46.4844-18.9453L46.4844-26.7578C46.4844-29.7852 48.4375-31.7383 51.5137-31.7383L58.7891-31.7383C61.8652-31.7383 63.8184-29.7852 63.8184-26.7578L63.8184-18.9453C63.8184-15.8691 61.8652-13.916 58.7891-13.916ZM70.9961-14.3555C68.9941-14.3555 67.4805-15.8691 67.4805-17.8223C67.4805-19.7754 69.043-21.3379 70.9961-21.3379L83.6426-21.3379C85.5957-21.3379 87.1094-19.7754 87.1094-17.8223C87.1094-15.8691 85.5957-14.3555 83.6426-14.3555Z"/>
  </g>
  <g id="Heavy-S" transform="matrix(1 0 0 1 2580.44 696)">
   <path d="M25.6348 7.61719L88.1348 7.61719C97.4121 7.61719 102.734 2.34375 102.734-6.88477L102.734-63.5254C102.734-72.7539 97.4121-78.0762 88.1348-78.0762L43.5059-78.0762C34.2285-78.0762 28.9551-72.7539 28.9551-63.5254L28.9551 1.31836C28.9551 4.58984 27.9785 6.49414 25.6348 7.61719ZM48.3887-50.4395C46.5332-50.4395 45.0684-51.9043 45.0684-53.7598C45.0684-55.5664 46.4844-56.9824 48.3887-56.9824L83.3008-56.9824C85.1562-56.9824 86.6211-55.5664 86.6211-53.7598C86.6211-51.9043 85.1562-50.4395 83.3008-50.4395ZM9.76562-37.9395L9.76562-5.41992C9.76562-1.02539 13.1836 0.537109 15.5762 0.537109C18.0176 0.537109 21.3867-1.02539 21.3867-5.41992L21.3867-50.6348L21.0938-50.6348C15.6738-50.6348 9.76562-46.3867 9.76562-37.9395ZM48.3887-38.1348C46.4844-38.1348 45.0684-39.5508 45.0684-41.4062C45.0684-43.2617 46.5332-44.7266 48.3887-44.7266L83.3008-44.7266C85.1562-44.7266 86.6211-43.2617 86.6211-41.4062C86.6211-39.5508 85.1562-38.1348 83.3008-38.1348ZM69.9707-25.8301C68.1152-25.8301 66.6504-27.2461 66.6504-29.0527C66.6504-30.957 68.0664-32.373 69.9707-32.373L83.3008-32.373C85.1562-32.373 86.5723-30.957 86.5723-29.0527C86.5723-27.2461 85.1562-25.8301 83.3008-25.8301ZM49.9512-13.4766C46.9238-13.4766 45.0195-15.3809 45.0195-18.4082L45.0195-26.6113C45.0195-29.6387 46.9238-31.543 49.9512-31.543L57.7148-31.543C60.791-31.543 62.6465-29.6387 62.6465-26.6113L62.6465-18.4082C62.6465-15.3809 60.791-13.4766 57.7148-13.4766ZM69.9707-13.9648C68.0664-13.9648 66.6504-15.3809 66.6504-17.2363C66.6504-19.043 68.1152-20.5566 69.9707-20.5566L83.3008-20.5566C85.1562-20.5566 86.5723-19.043 86.5723-17.2363C86.5723-15.3809 85.1562-13.9648 83.3008-13.9648Z"/>
  </g>
  <g id="Bold-S" transform="matrix(1 0 0 1 2284.58 696)">
   <path d="M24.8535 7.03125L87.1582 7.03125C96.1426 7.03125 101.025 2.14844 101.025-6.73828L101.025-63.7207C101.025-72.6074 96.1426-77.4902 87.1582-77.4902L42.1875-77.4902C33.252-77.4902 28.3691-72.6074 28.3691-63.7207L28.3691-0.0488281C28.3691 3.56445 27.4414 5.66406 24.8535 7.03125ZM46.4844-51.3184C44.7266-51.3184 43.4082-52.6855 43.4082-54.4434C43.4082-56.1523 44.7266-57.4707 46.4844-57.4707L82.9102-57.4707C84.668-57.4707 85.9863-56.1523 85.9863-54.4434C85.9863-52.6855 84.6191-51.3184 82.9102-51.3184ZM9.76562-38.3301L9.76562-5.41992C9.76562-1.5625 12.6465 0.0488281 15.1855 0.0488281C17.7246 0.0488281 20.5566-1.5625 20.5566-5.41992L20.5566-49.2676L19.9707-49.2676C14.6973-49.2676 9.76562-45.5566 9.76562-38.3301ZM46.4844-38.6719C44.7266-38.6719 43.4082-39.9902 43.4082-41.6992C43.4082-43.457 44.7266-44.8242 46.4844-44.8242L82.9102-44.8242C84.6191-44.8242 85.9863-43.457 85.9863-41.6992C85.9863-39.9902 84.668-38.6719 82.9102-38.6719ZM68.7988-26.0254C67.041-26.0254 65.7227-27.3438 65.7227-29.0527C65.7227-30.7617 67.041-32.1289 68.7988-32.1289L82.9102-32.1289C84.6191-32.1289 85.9375-30.7617 85.9375-29.0527C85.9375-27.3438 84.6191-26.0254 82.9102-26.0254ZM48.1934-12.9883C45.2148-12.9883 43.3594-14.8438 43.3594-17.8223L43.3594-26.4648C43.3594-29.4434 45.2148-31.2988 48.1934-31.2988L56.543-31.2988C59.5215-31.2988 61.377-29.4434 61.377-26.4648L61.377-17.8223C61.377-14.8438 59.5215-12.9883 56.543-12.9883ZM68.7988-13.5254C67.041-13.5254 65.7227-14.8438 65.7227-16.5527C65.7227-18.2617 67.041-19.6289 68.7988-19.6289L82.9102-19.6289C84.6191-19.6289 85.9375-18.2617 85.9375-16.5527C85.9375-14.8438 84.6191-13.5254 82.9102-13.5254Z"/>
  </g>
  <g id="Semibold-S" transform="matrix(1 0 0 1 1988.46 696)">
   <path d="M24.3164 6.64062L86.4746 6.64062C95.2148 6.64062 99.8535 2.05078 99.8535-6.5918L99.8535-63.8672C99.8535-72.5098 95.2148-77.0996 86.4746-77.0996L41.3086-77.0996C32.5684-77.0996 27.9785-72.5098 27.9785-63.8672L27.9785-0.927734C27.9785 2.88086 27.0508 5.07812 24.3164 6.64062ZM45.2148-51.9531C43.5059-51.9531 42.2363-53.2715 42.2363-54.9316C42.2363-56.543 43.5059-57.7637 45.2148-57.7637L82.6172-57.7637C84.3262-57.7637 85.5469-56.543 85.5469-54.9316C85.5469-53.2715 84.2773-51.9531 82.6172-51.9531ZM9.76562-38.623L9.76562-5.37109C9.76562-1.95312 12.3047-0.244141 14.8926-0.244141C17.4805-0.244141 19.9707-1.95312 19.9707-5.37109L19.9707-48.3887L19.1406-48.3887C14.0137-48.3887 9.76562-44.9707 9.76562-38.623ZM45.2148-39.0625C43.5059-39.0625 42.2363-40.332 42.2363-41.9434C42.2363-43.6035 43.5059-44.873 45.2148-44.873L82.6172-44.873C84.2773-44.873 85.5469-43.6035 85.5469-41.9434C85.5469-40.332 84.3262-39.0625 82.6172-39.0625ZM68.0176-26.123C66.3086-26.123 65.0391-27.3926 65.0391-29.0039C65.0391-30.6641 66.3086-31.9336 68.0176-31.9336L82.6172-31.9336C84.2773-31.9336 85.5469-30.6641 85.5469-29.0039C85.5469-27.3926 84.2773-26.123 82.6172-26.123ZM46.9727-12.6953C43.9941-12.6953 42.2363-14.4531 42.2363-17.4316L42.2363-26.3672C42.2363-29.3457 43.9941-31.1035 46.9727-31.1035L55.7129-31.1035C58.6914-31.1035 60.498-29.3457 60.498-26.3672L60.498-17.4316C60.498-14.4531 58.6914-12.6953 55.7129-12.6953ZM68.0176-13.1836C66.3086-13.1836 65.0391-14.4531 65.0391-16.0645C65.0391-17.7246 66.3086-19.043 68.0176-19.043L82.6172-19.043C84.2773-19.043 85.5469-17.7246 85.5469-16.0645C85.5469-14.4531 84.2773-13.1836 82.6172-13.1836Z"/>
  </g>
  <g id="Medium-S" transform="matrix(1 0 0 1 1692.21 696)">
   <path d="M23.877 6.29883L85.9863 6.29883C94.5312 6.29883 98.9258 1.95312 98.9258-6.49414L98.9258-64.0137C98.9258-72.4609 94.5312-76.8066 85.9863-76.8066L40.625-76.8066C32.0801-76.8066 27.6855-72.4609 27.6855-64.0137L27.6855-1.66016C27.6855 2.39258 26.7578 4.63867 23.877 6.29883ZM44.2383-52.4414C42.5781-52.4414 41.4062-53.7109 41.4062-55.2734C41.4062-56.8359 42.5781-58.0078 44.2383-58.0078L82.4219-58.0078C84.0332-58.0078 85.2539-56.8359 85.2539-55.2734C85.2539-53.7109 84.0332-52.4414 82.4219-52.4414ZM9.76562-38.8184L9.76562-5.37109C9.76562-2.24609 12.0117-0.488281 14.6484-0.488281C17.334-0.488281 19.5801-2.24609 19.5801-5.37109L19.5801-47.6562L18.5547-47.6562C13.5254-47.6562 9.76562-44.5312 9.76562-38.8184ZM44.2383-39.3555C42.5781-39.3555 41.4062-40.5762 41.4062-42.0898C41.4062-43.7012 42.5781-44.9707 44.2383-44.9707L82.4219-44.9707C84.0332-44.9707 85.2539-43.7012 85.2539-42.0898C85.2539-40.5762 84.0332-39.3555 82.4219-39.3555ZM67.3828-26.2207C65.7715-26.2207 64.5508-27.4414 64.5508-29.0039C64.5508-30.5664 65.7715-31.8359 67.3828-31.8359L82.4219-31.8359C84.0332-31.8359 85.2051-30.5664 85.2051-29.0039C85.2051-27.4414 84.0332-26.2207 82.4219-26.2207ZM46.0449-12.4023C43.1152-12.4023 41.3574-14.1602 41.3574-17.0898L41.3574-26.3184C41.3574-29.248 43.1152-30.957 46.0449-30.957L55.127-30.957C58.0566-30.957 59.8145-29.248 59.8145-26.3184L59.8145-17.0898C59.8145-14.1602 58.0566-12.4023 55.127-12.4023ZM67.3828-12.9883C65.7715-12.9883 64.5508-14.1602 64.5508-15.7227C64.5508-17.2852 65.7715-18.5547 67.3828-18.5547L82.4219-18.5547C84.0332-18.5547 85.2051-17.2852 85.2051-15.7227C85.2051-14.1602 84.0332-12.9883 82.4219-12.9883Z"/>
  </g>
  <g id="Regular-S" transform="matrix(1 0 0 1 1396.06 696)">
   <path d="M23.3887 5.9082L85.3027 5.9082C93.6523 5.9082 97.8027 1.85547 97.8027-6.34766L97.8027-64.1602C97.8027-72.3633 93.6523-76.416 85.3027-76.416L39.7461-76.416C31.3965-76.416 27.2949-72.3633 27.2949-64.1602L27.2949-2.53906C27.2949 1.70898 26.3672 4.05273 23.3887 5.9082ZM42.9688-53.0762C41.4062-53.0762 40.2344-54.248 40.2344-55.7617C40.2344-57.2266 41.4062-58.3496 42.9688-58.3496L82.1777-58.3496C83.6914-58.3496 84.8145-57.2266 84.8145-55.7617C84.8145-54.248 83.6914-53.0762 82.1777-53.0762ZM9.76562-39.1113L9.76562-5.37109C9.76562-2.63672 11.6699-0.78125 14.4043-0.78125C17.0898-0.78125 18.9941-2.63672 18.9941-5.37109L18.9941-46.7773L17.7734-46.7773C12.8418-46.7773 9.76562-43.9453 9.76562-39.1113ZM42.9688-39.7461C41.4062-39.7461 40.2344-40.8691 40.2344-42.334C40.2344-43.8477 41.4062-45.0195 42.9688-45.0195L82.1777-45.0195C83.6914-45.0195 84.8145-43.8477 84.8145-42.334C84.8145-40.8691 83.6914-39.7461 82.1777-39.7461ZM66.6016-26.3672C65.0391-26.3672 63.916-27.4902 63.916-28.9551C63.916-30.4688 65.0391-31.6406 66.6016-31.6406L82.1777-31.6406C83.6914-31.6406 84.8145-30.4688 84.8145-28.9551C84.8145-27.4902 83.6914-26.3672 82.1777-26.3672ZM44.873-12.1094C41.9434-12.1094 40.2344-13.8184 40.2344-16.6992L40.2344-26.2207C40.2344-29.1016 41.9434-30.8105 44.873-30.8105L54.2969-30.8105C57.2266-30.8105 58.9355-29.1016 58.9355-26.2207L58.9355-16.6992C58.9355-13.8184 57.2266-12.1094 54.2969-12.1094ZM66.6016-12.6465C65.0391-12.6465 63.916-13.8184 63.916-15.2344C63.916-16.748 65.0391-17.9688 66.6016-17.9688L82.1777-17.9688C83.6914-17.9688 84.8145-16.748 84.8145-15.2344C84.8145-13.8184 83.6914-12.6465 82.1777-12.6465Z"/>
  </g>
  <g id="Light-S" transform="matrix(1 0 0 1 1100.25 696)">
   <path d="M22.168 5.66406L84.3262 5.66406C92.0898 5.66406 95.9961 1.80664 95.9961-5.85938L95.9961-64.5996C95.9961-72.2656 92.0898-76.123 84.3262-76.123L37.7441-76.123C30.0293-76.123 26.123-72.2656 26.123-64.5996L26.123-2.00195C26.123 1.95312 25.0977 4.15039 22.168 5.66406ZM41.1621-53.8086C39.8926-53.8086 39.0137-54.7363 39.0137-55.957C39.0137-57.1289 39.8926-58.0566 41.1621-58.0566L81.0059-58.0566C82.2266-58.0566 83.1055-57.1289 83.1055-55.957C83.1055-54.7363 82.2266-53.8086 81.0059-53.8086ZM9.76562-38.8672L9.76562-4.3457C9.76562-1.46484 11.8652 0.244141 14.5508 0.244141C17.1875 0.244141 19.2871-1.51367 19.2871-4.3457L19.2871-45.6543L16.9434-45.6543C12.5-45.6543 9.76562-43.1152 9.76562-38.8672ZM41.1621-40.2344C39.8926-40.2344 39.0137-41.1133 39.0137-42.2852C39.0137-43.5059 39.8926-44.4336 41.1621-44.4336L81.0059-44.4336C82.2266-44.4336 83.1055-43.5059 83.1055-42.2852C83.1055-41.1133 82.2266-40.2344 81.0059-40.2344ZM64.9414-26.6113C63.7207-26.6113 62.793-27.4902 62.793-28.6621C62.793-29.8828 63.7207-30.8105 64.9414-30.8105L80.957-30.8105C82.1777-30.8105 83.1055-29.8828 83.1055-28.6621C83.1055-27.4902 82.1777-26.6113 80.957-26.6113ZM43.3594-12.0117C40.5762-12.0117 38.916-13.6719 38.916-16.4062L38.916-26.123C38.916-28.8574 40.5762-30.5664 43.3594-30.5664L52.9785-30.5664C55.7617-30.5664 57.4219-28.8574 57.4219-26.123L57.4219-16.4062C57.4219-13.6719 55.7617-12.0117 52.9785-12.0117ZM64.9414-12.7441C63.7207-12.7441 62.793-13.6719 62.793-14.8438C62.793-16.0156 63.7207-16.9922 64.9414-16.9922L80.957-16.9922C82.1777-16.9922 83.1055-16.0156 83.1055-14.8438C83.1055-13.6719 82.1777-12.7441 80.957-12.7441Z"/>
  </g>
  <g id="Thin-S" transform="matrix(1 0 0 1 804.738 696)">
   <path d="M20.5566 5.32227L83.0566 5.32227C89.9902 5.32227 93.6035 1.75781 93.6035-5.17578L93.6035-65.1855C93.6035-72.1191 89.9902-75.6836 83.0566-75.6836L35.1562-75.6836C28.2227-75.6836 24.6094-72.1191 24.6094-65.1855L24.6094-1.31836C24.6094 2.24609 23.4375 4.24805 20.5566 5.32227ZM38.8184-54.7852C37.9395-54.7852 37.3535-55.4199 37.3535-56.2012C37.3535-57.0312 37.9395-57.6172 38.8184-57.6172L79.4434-57.6172C80.2734-57.6172 80.9082-57.0312 80.9082-56.2012C80.9082-55.4199 80.2734-54.7852 79.4434-54.7852ZM9.76562-38.5254L9.76562-2.97852C9.76562 0.0488281 12.1582 1.66016 14.7949 1.61133C17.334 1.5625 19.6777 0 19.6777-2.97852L19.6777-44.1406L15.8203-44.1406C12.0605-44.1406 9.76562-42.041 9.76562-38.5254ZM38.8184-40.8691C37.9395-40.8691 37.3535-41.4551 37.3535-42.2852C37.3535-43.0664 37.9395-43.7012 38.8184-43.7012L79.4434-43.7012C80.2734-43.7012 80.9082-43.0664 80.9082-42.2852C80.9082-41.4551 80.2734-40.8691 79.4434-40.8691ZM41.3574-11.8652C38.7695-11.8652 37.1582-13.4766 37.1582-16.0156L37.1582-26.0254C37.1582-28.5645 38.7695-30.2246 41.3574-30.2246L51.2695-30.2246C53.8086-30.2246 55.4688-28.5645 55.4688-26.0254L55.4688-16.0156C55.4688-13.4766 53.8086-11.8652 51.2695-11.8652ZM62.793-26.9043C61.9629-26.9043 61.3281-27.5391 61.3281-28.3203C61.3281-29.1016 61.9629-29.7363 62.793-29.7363L79.3945-29.7363C80.2246-29.7363 80.8594-29.1016 80.8594-28.3203C80.8594-27.5391 80.2246-26.9043 79.3945-26.9043ZM62.793-12.8418C61.9629-12.8418 61.3281-13.4766 61.3281-14.2578C61.3281-15.0879 61.9629-15.7227 62.793-15.7227L79.3945-15.7227C80.2246-15.7227 80.8594-15.0879 80.8594-14.2578C80.8594-13.4766 80.2246-12.8418 79.3945-12.8418Z"/>
  </g>
  <g id="Ultralight-S" transform="matrix(1 0 0 1 508.637 696)">
   <path d="M19.7266 5.17578L82.373 5.17578C88.916 5.17578 92.3828 1.70898 92.3828-4.83398L92.3828-65.5273C92.3828-72.0215 88.916-75.4883 82.373-75.4883L33.7891-75.4883C27.2461-75.4883 23.8281-72.0215 23.8281-65.5273L23.8281-0.976562C23.8281 2.39258 22.5586 4.29688 19.7266 5.17578ZM37.5977-55.3223C36.9629-55.3223 36.4746-55.7617 36.4746-56.3477C36.4746-56.9336 36.9629-57.4219 37.5977-57.4219L78.6621-57.4219C79.2969-57.4219 79.7363-56.9336 79.7363-56.3477C79.7363-55.7617 79.2969-55.3223 78.6621-55.3223ZM9.76562-38.3301L9.76562-2.24609C9.76562 0.830078 12.3047 2.39258 14.8926 2.34375C17.4316 2.29492 19.873 0.732422 19.873-2.24609L19.873-43.4082L15.2832-43.4082C11.8164-43.4082 9.76562-41.5039 9.76562-38.3301ZM37.5977-41.1621C36.9629-41.1621 36.4746-41.6504 36.4746-42.2363C36.4746-42.8223 36.9629-43.3105 37.5977-43.3105L78.6621-43.3105C79.2969-43.3105 79.7363-42.8223 79.7363-42.2363C79.7363-41.6504 79.2969-41.1621 78.6621-41.1621ZM40.332-11.7676C37.8418-11.7676 36.2305-13.3789 36.2305-15.8203L36.2305-25.9766C36.2305-28.418 37.8418-30.0293 40.332-30.0293L50.3418-30.0293C52.832-30.0293 54.4434-28.418 54.4434-25.9766L54.4434-15.8203C54.4434-13.3789 52.832-11.7676 50.3418-11.7676ZM61.6699-27.0508C61.0352-27.0508 60.5957-27.5391 60.5957-28.125C60.5957-28.7109 61.0352-29.1992 61.6699-29.1992L78.6133-29.1992C79.248-29.1992 79.6875-28.7109 79.6875-28.125C79.6875-27.5391 79.248-27.0508 78.6133-27.0508ZM61.6699-12.9395C61.0352-12.9395 60.5957-13.3789 60.5957-13.9648C60.5957-14.5508 61.0352-15.0391 61.6699-15.0391L78.6133-15.0391C79.248-15.0391 79.6875-14.5508 79.6875-13.9648C79.6875-13.3789 79.248-12.9395 78.6133-12.9395Z"/>
  </g>
 </g>
</svg>
