<?xml version="1.0" encoding="utf-8"?>
<!-- Generator: Adobe Illustrator 19.0.0, SVG Export Plug-In . SVG Version: 6.00 Build 0)  -->
<svg version="1.1" xmlns="http://www.w3.org/2000/svg" xmlns:xlink="http://www.w3.org/1999/xlink" x="0px" y="0px"
	 viewBox="0 0 1600 1200" style="enable-background:new 0 0 1600 1200;" xml:space="preserve">
<style type="text/css">
	.st0{fill:#A67F67;}
	.st1{fill:#FF4F03;}
	.st2{stroke:#000000;stroke-miterlimit:10;}
	.st3{fill:#B5BFC4;}
</style>
<g id="Layer_3">
	<path d="M837.4,521.5c-1.9,0.6-3.7,1.1-5.6,1.7c2.3-4.3,6.7-11,14.4-16.1c2.5-1.6,4.9-2.9,7-3.8c3.8-1.5,7.6-3,11.5-4.6
		c-0.9-0.7-4.2-3.5-4-7.2c0-0.4,0.1-0.8,0.2-1.2c1.7-0.8,4.2-1.6,6.9-0.9c4,1,4.8,4.5,7.8,4.4c3-0.1,3.2-3.7,7.6-4.8
		c0.5-0.1,4.2-1,6.9,1.2c0.5,0.4,1.9,1.6,1.8,3c-0.1,2.8-5.3,4-5,5.3c0.3,1.7,8.7,0.7,9.6,3.5c0.2,0.7-0.2,1.1,0,2.3
		c0.4,2.2,2.5,3.4,3,3.8c3.1,2.1,5.1,7.3,7,12.2c4,10.4,1.2,20.4-0.5,26.5c-1.7,6.1-2.9,10.5-6.5,12c-4.2,1.8-9.2-1.4-13.4-4.1
		c-7.5-4.9-18.1-12.3-30.8-22.5c-5.3-0.2-7.7-1.9-8.8-3.5c-1.8-2.4-1.1-5.1-3.2-6.7C841.5,520.7,839.1,521,837.4,521.5z"/>
	<path d="M869.4,587.4c1.9-3.6,3.9-6.2,5.5-7.9c2.7-3,4.6-5,7.3-5.1c1.7,0,4,0.8,4.7,2.4c0.6,1.8-0.9,3.7-1.6,4.7
		C881,586.8,872.7,587.4,869.4,587.4z"/>
	<path class="st0" d="M840.9,521.1c-3,8.2-4.6,15.3-5.4,20.6c-1,6.3-2,12.4-1.2,20.6c0.7,6.5,1.2,11.5,4.2,17.3
		c2.6,5,5.4,9.3,4.7,9.8c-0.5,0.4-2.3-1.2-3.8-2.5c-0.3,0.6-0.8,1.4-1.3,2.5c-1.4,3-1.1,4-1.9,5.4c-1.8,3.4-5.3,2.7-6.6,5.4
		c-1.3,2.7,0.9,6.4,2.2,8.5c1.4,2.4,6.3,10.4,14.2,9.8c4.9-0.4,8.9-3.9,10.8-7.3c2.2-4,0.2-5.5,2.2-11.4c1.6-4.8,4.4-8,7-11.1
		c2.5-2.9,3.5-3.4,7.3-7.3c3.5-3.6,6.2-6.7,7.9-8.9c0.7,0.4,4.4,2.2,8.2,0.6c4-1.6,5.2-5.5,6-7.9c0.6-1.8,1.8-5.4,0-7.6
		c-0.5-0.7-1-0.8-4.4-2.2c-3.2-1.3-4.8-2-5.1-2.2c-4-3-1.4-10.5-3.8-11.4c-1.8-0.7-3.4,3.7-7,3.8c-3.5,0-6.9-4.1-8.2-7.9
		c-1.6-4.4-0.2-8-1.6-8.5c-1.6-0.6-3.7,4.2-7,3.8c-1.5-0.2-2.8-1.3-3.5-2.5c-1.3-2.5,0.5-4.8-0.6-5.7c-1.2-1-3.4,1.1-6.3,0.9
		C844.8,525.6,842.4,523.1,840.9,521.1z"/>
	<path class="st0" d="M869.6,752.4c0.1,12.7,1.3,22.4,2.4,29.1c1.1,6.5,2.1,10.7,1.1,17.1c-0.8,4.8-2.1,6.6-3.1,14
		c-0.7,5-1.7,11.7,0.7,12.8c0.6,0.3,1.8,0.3,4.1-1.4c-0.3,4.7,1.5,9,4.7,10.8c2.3,1.2,4.8,1.1,5.7,1c0.5,0,4.1-0.3,6.1-2
		c5.3-4.6-0.7-19.6-1.7-22c-3.3-7.9-6-8.8-7.1-15.2c-1-5.7,0.3-10,1-12.8c1.6-6.9,2.6-17.5-1-33.1c-0.6-0.4-3.8-2.3-7.8-1.4
		C871.9,750,870.3,751.7,869.6,752.4z"/>
	<path class="st0" d="M837.5,961.5c3.7,8.5,7.5,17,11.2,25.5c4,1.4,8,2.8,12,4.2c0.8-1.3,1.8-3.3,1.8-5.7c0-3.2-1.7-4.5-3.4-8.3
		c-2.9-6.5-0.5-8.2-3.4-12.8c-0.8-1.3-3.1-5-7.6-6C842.7,957.1,838.1,961,837.5,961.5z"/>
	<path class="st0" d="M702.3,942.8c-0.4,5.2-0.8,10.6-1.4,16.1c-0.7,6.6-1.4,12.9-2.2,19.1c1.9,2.8,3.9,5.5,5.8,8.3
		c2.7-6.7,5-8.3,6.7-8.3c2.1,0,3.9,2.3,4.7,1.7c0.5-0.4,0-1.6-0.3-3.1c-0.1-0.8-0.3-2.3,0.6-6.9c1.9-9.8,4.7-12.9,3.3-17.8
		c-1.1-4-4.1-6.3-5-6.9C709.3,941.2,703.3,942.5,702.3,942.8z"/>
	<path class="st0" d="M734.5,467.6c-1.3-2-3.1-5.6-3.6-10.3c-0.2-2.1-0.6-7.7,2.9-12.9c1.4-2.1,3.1-4.7,6.1-5.5
		c5.5-1.5,9.9,4.3,12.3,2.6c1.7-1.3,0.9-5.3,0-9.7c-1.4-7-3.7-10.3-2.9-11c1-0.8,6.4,3.2,10.3,8.4c6.1,8.2,5.9,15.9,7.4,27.1
		c1.6,11.2,2.1,5.3,15.5,56.9c1.1,4.3,2,7.8,2.6,10c-2.3,0.1-5.8,0.4-9.7,1.9c-4.9,1.9-8.2,4.7-10,6.5c-1.2-7.4-2.9-16.7-4.8-27.5
		c-2.4-13.2-4.2-21.7-8.1-32.3c-0.7-1.8-1.2-3.2-1.6-4.2c-0.3,0.5-3,4-7.8,4.2C737.9,472.1,734.8,468,734.5,467.6z"/>
	<path class="st1" d="M773.5,526.7c0.7,4.7,1.9,12.5,4.3,22.1c7.9,32.2,18,42.7,17.2,61.8c-0.4,9-2.9,13.4-10.8,31.2
		c-38.6,87.2-32.5,103.7-29.6,109.7c6.4,13,18.8,18.7,22.6,20.4c25.8,11.8,52.4-3.3,55.9-5.4c-0.3-12.7,0.9-22.7,2.2-29.6
		c4-22.4,6-33.6,10.8-41.9c1.3-2.2,4.3-7.1,3.2-12.9c-0.8-4.4-3.6-7.7-5.9-9.7c3.7-9.8,6.3-10.9,7.5-10.8c4.1,0.3,6.2,13.8,7,20.4
		c1.9,12.2,3.7,24.6,5.4,37.1c1.3,9.6,2.6,19.1,3.8,28.5c4.7,0.4,9.3,0.7,14,1.1c0.8-15.4,0.8-32.5-0.5-51.1
		c-2.4-32.2-8.4-60.1-15.1-82.8c-0.6-0.4-3.9-2.5-8.1-1.6c-5.3,1.1-7.4,6-7.5,6.5c-6.3,1.8-9.9,0.6-11.8-0.5
		c-5.9-3.5-9.7-14.2-10.8-21.5c-0.2-1.6-0.5-4.4-2.7-6.5c-2.1-1.9-4.9-2.2-7-2.2c-8.5-15.8-16.8-33.2-24.2-52.2
		c-1.7-4.3-3.3-8.6-4.8-12.9c-1.2-0.5-3.9-1.5-7.5-1C777,523.7,774.4,525.9,773.5,526.7z"/>
	<path class="st1" d="M705.2,988.3c-0.2,0-0.4,0-0.8,0c-5.6-0.2-8.1-4.6-10-4c-2.3,0.6-1.3,7.1-2.4,14.1c-1.4,8.7-4.4,7.8-9.6,21.7
		c-1.5,3.9-4.4,12.3-4,22.9c0.2,6.2,1.3,6.7,1.6,6.8c3,1.1,9.1-9.6,16.9-21.3c5.1-7.7,12.9-18.8,23.5-31.9c-0.5-2.3-1.4-5.8-2.6-9.9
		c-2.1-7.2-2.7-8.2-3.6-8.4C710.5,977.5,705.7,987.3,705.2,988.3z"/>
	<path class="st1" d="M847.9,994.8c1.4,3.4,3.5,8.4,6.4,14.5c7.1,14.7,13.1,27.4,17.3,26.5c3.6-0.7,4.4-11.3,4.4-15.7
		c0-4.8-0.9-8.1-2.4-13.3c-2.8-9.7-7.5-19.8-9.6-19.3c-1.2,0.3-0.8,3.5-2.4,4c-2.3,0.7-4.5-4.9-7.6-4.8
		C852.2,986.8,850.2,988.5,847.9,994.8z"/>
	<path class="st1" d="M707.4,66.4c-5.8,7.5-14.1,20.2-19.1,37.8c-7.6,26.7-3,49,0,62.4c2.6,11.8,6.8,29.7,20.8,47.6
		c6.3,8.1,12.8,13.8,17.5,17.5c2.7,5.8,5.5,11.7,8.2,17.5c-1.5,6.7-4.3,15.5-9.8,24.6c-4.1,6.7-9.4,13.2-8.8,13.7
		c0.9,0.8,12.6-13.2,16.4-10.9c2.8,1.7-0.3,11.1,2.2,12c2.2,0.8,5.7-5.8,8.2-4.9c2.5,0.9,1.8,8.7,2.7,8.8c1.1,0.1,1.1-10.2,4.9-11.5
		c4.3-1.5,10.6,9.1,12,8.2c1.8-1.1-3.8-18.6-11.5-35c-1.4-3.1-4.1-8.6-2.2-14.2c1.2-3.6,3.8-5.8,5.5-7.1c8-6.4,12.1-9.6,23-13.1
		c18.2-5.9,34.1-41.6,36.7-71.1c0.6-7,4.1-55.5-29.5-82.6c-5.7-4.6-22-17.7-44.3-15.3C723.1,52.3,711.6,62.3,707.4,66.4z"/>
	<g>
		<g>
			<g>
				<path class="st2" d="M714.6,230.5c-0.1,0.2-1.7-0.9-4.3-3c-2.6-2.2-6.2-5.6-10.2-10.2c-4-4.6-8.3-10.5-12.3-17.5
					c-4-7-7.6-15.3-10.1-24.2c-2.5-9-3.7-17.9-4-26c-0.3-8.1,0.4-15.4,1.4-21.4c1-6,2.3-10.8,3.4-14c1.1-3.2,1.9-4.9,2.1-4.9
					c0.2,0.1-0.2,1.9-0.9,5.2c-0.7,3.3-1.7,8-2.4,14c-0.7,5.9-1.1,13.1-0.7,20.9c0.4,7.9,1.7,16.5,4.1,25.2
					c2.5,8.7,5.9,16.8,9.6,23.7c3.7,6.9,7.8,12.8,11.5,17.5c3.7,4.7,7,8.3,9.3,10.7C713.5,228.9,714.8,230.3,714.6,230.5z"/>
			</g>
		</g>
	</g>
	<g>
		<g>
			<g>
				<path class="st2" d="M749.2,239.2c0.2,0.4-0.7,1.2-2.3,2.1c-1.6,0.9-4,1.8-6.9,2c-3,0.2-5.6-0.7-7.2-1.9
					c-1.6-1.2-2.1-2.4-1.7-2.7c0.3-0.3,1.3,0.2,2.8,0.6c1.5,0.5,3.6,0.8,6,0.7c2.4-0.1,4.6-0.6,6.3-0.9
					C747.9,238.8,749,238.8,749.2,239.2z"/>
			</g>
		</g>
	</g>
	<g>
		<g>
			<g>
				<path class="st2" d="M750.4,245.1c0.3,0.3-0.2,1.5-1.8,2.7c-0.7,0.6-1.8,1.3-3,1.8c-1.2,0.5-2.6,0.9-4.1,1.1
					c-1.5,0.2-3,0.1-4.3-0.1c-1.3-0.2-2.4-0.6-3.3-1.1c-1.8-0.9-2.6-1.9-2.4-2.2c0.2-0.4,1.4-0.2,3.1,0c0.8,0.1,1.8,0.2,2.9,0.3
					c1.1,0,2.3,0,3.5-0.1c1.2-0.2,2.4-0.4,3.5-0.7c1-0.3,2-0.6,2.8-1C749.1,245.2,750.1,244.7,750.4,245.1z"/>
			</g>
		</g>
	</g>
	<g>
		<g>
			<g>
				<path class="st2" d="M739.9,284.3c0.2,0.1-0.3,1.2-1.4,3c-0.3,0.5-0.6,1-0.9,1.5c-0.4,0.7-1,1.6-1.9,2c-0.9,0.4-2.2,0-2.9-0.9
					c-0.4-0.4-0.6-1-0.8-1.7c-0.1-0.3-0.1-0.7-0.1-1c0-0.4,0-0.6,0-0.8c0.1-1.9,0.1-3.8-0.1-6l0-0.4l0-0.1c0-0.1,0-0.2-0.1-0.3
					c0-0.2-0.2-0.4-0.4-0.4c-0.5,0.1-0.4,0.2-1.7,1.1c-2,1.5-4.1,3.1-6.3,4.7c-1.3,1-2.6,1.9-4,2.9c-1,0.7-2.1,1.5-2.9,1.8
					c-0.8,0.3-1.5,0.5-2.2,0.5c-0.3,0-0.7,0-1.1-0.2c-0.2-0.1-0.4-0.1-0.6-0.2l-0.3-0.1c-0.1,0-0.2-0.1-0.2-0.2
					c0.1-0.6,0.1-1.2,0.2-1.7l0.1-0.9c0.2-0.5,0.6-1,0.9-1.6c0.6-1,1.2-2.1,1.8-3.1c1.4-2.4,2.8-4.7,4.1-6.9
					c2.6-4.3,4.8-8.1,6.5-11.4c3.4-6.6,4.4-11.2,4.9-11.1c0.2,0,0.2,1.2-0.1,3.4c-0.4,2.1-1.2,5.1-2.7,8.7c-1.5,3.6-3.5,7.6-6,12
					c-1.2,2.1-2.5,4.4-3.8,6.7c-0.2,0.3-0.3,0.6-0.5,0.9l-0.2,0.4c0.1,0.1,0.3,0.1,0.5,0c0.3-0.1,0.6-0.4,0.8-0.5
					c0.9-0.7,1.8-1.3,2.7-1.9c2.2-1.6,4.4-3.1,6.4-4.5c0.6-0.4,0.8-0.6,1.9-1.3c0.9-0.5,1.8-0.8,2.6-0.6c0.9,0.2,1.5,0.9,1.8,1.7
					c0.2,0.4,0.2,0.9,0.3,1.3c0,0.2,0,0.5,0.1,0.7l0,0.4c0.1,2.3,0,4.5-0.3,6.4c0,0.2,0,0.4-0.1,0.6c0,0.1,0,0.2,0,0.3
					c0,0.2,0,0.5,0.1,0.7c0.2,0.4,0.7,0.7,1.1,0.5c0.4-0.2,0.6-0.5,1-0.8c0.4-0.5,0.8-0.9,1.1-1.3
					C738.9,285,739.7,284.2,739.9,284.3z"/>
			</g>
		</g>
	</g>
	<g>
		<g>
			<g>
				<path class="st2" d="M745.1,290.4c0.1,0,0.1,0.2,0.3,0.5c0.2,0.2,0.6,0.6,0.9,0.5l-0.5,0.3c0.4-1.2,0.9-2.8,1.7-4.8
					c0.4-1,0.8-2.1,1.3-3.2c0.2-0.4,0.4-0.9,0.6-1.3c0.2-0.5,0.5-0.8,0.8-1.1c0.3-0.3,0.9-0.4,1.3-0.3c0.2,0,0.5,0.2,0.7,0.3
					c0.2,0.1,0.5,0.2,0.7,0.3c0.2,0.1,0.5,0.3,0.7,0.5l0.3,0.2l0.2,0.2c0.3,0.2,0.6,0.4,0.9,0.7c0.6,0.5,1.2,1,1.8,1.5
					c1.2,1,2.4,2.2,3.6,3.3c0.6,0.5,1.4,1.3,1.4,1.2c0.2,0.1,0.3,0.3,0.5,0.3c0.2-0.1,0.2-0.4,0.2-0.6c-0.1-0.5-0.2-1-0.3-1.4
					c-1.9-9.2-5.1-17.2-7.3-23c-2.2-5.8-3.5-9.5-3.1-9.7c0.4-0.2,2.4,3.1,5.2,8.8c2.7,5.6,6.3,13.7,8.3,23.3
					c0.1,0.2,0.1,0.5,0.1,0.7l0.2,0.9c0.2,0.8,0.3,1.6,0.2,2.3c0,0.7-0.2,1.3-0.5,1.8c-0.3,0.5-0.8,1-1.4,1.1
					c-0.6,0.2-1.1,0.1-1.7-0.1c-0.3-0.1-0.6-0.3-0.9-0.5c-0.3-0.1-0.6-0.4-0.9-0.6c-0.5-0.4-1.2-1.1-1.5-1.3
					c-0.3-0.3-0.6-0.6-0.9-0.9c-1.2-1.2-2.3-2.3-3.4-3.4c-0.5-0.5-1.1-1-1.6-1.5c-0.3-0.2-0.5-0.4-0.8-0.6l-0.3-0.3l-0.1-0.1
					c-0.1-0.1-0.2-0.2-0.3-0.2c-0.1-0.1-0.3-0.1-0.4,0c-0.1,0.1-0.1,0.2-0.2,0.3l-0.1,0.2l-0.1,0.1c0,0,0,0.1-0.1,0.1
					c-0.6,1.1-1.1,2.1-1.6,3.1c-1,1.9-1.8,3.4-2.5,4.4l-0.2,0.4l-0.3,0c-0.5-0.1-0.9-0.4-1.1-0.7c-0.2-0.3-0.3-0.6-0.3-0.8
					C744.8,290.6,745,290.4,745.1,290.4z"/>
			</g>
		</g>
	</g>
	<g>
		<g>
			<g>
				<path class="st2" d="M772.8,225.8c-0.2-0.2,3-3,8.2-8.7c2.6-2.8,5.6-6.4,8.9-10.7c3.2-4.3,6.7-9.5,9.9-15.4
					c3.3-6,6.3-12.8,8.8-20.4c1.3-3.8,2.3-7.8,3.1-11.9c0.4-2.1,0.8-4.2,1.1-6.4c0.1-1.1,0.3-2.2,0.4-3.3c0.1-1.1,0.2-2.2,0.3-3.3
					c0.3-4.5,0.4-9.1,0.1-13.7c-0.3-4.7-0.8-9.4-1.8-14.2c-0.9-4.8-2.2-9.6-4-14.3c-1.7-4.7-3.7-9.4-6.3-13.9
					c-5-9-11.5-16.8-18.4-23.8c-3.4-3.4-7-6.5-11-8.8c-3.9-2.3-8.2-4-12.4-5c-8.6-2.1-17.2-1.7-24.9,0c-7.7,1.7-14.5,4.9-20.2,8.4
					c-5.7,3.6-10.5,7.5-14.4,11.3c-3.9,3.7-7,7.3-9.4,10.2c-4.9,5.9-7.2,9.5-7.4,9.3c-0.1-0.1,0.4-1,1.4-2.8c1.1-1.7,2.7-4.3,5-7.3
					c2.3-3.1,5.3-6.8,9.1-10.7c3.8-3.9,8.6-8.1,14.4-11.9c5.8-3.8,12.8-7.2,20.9-9.1c8-1.9,17.1-2.4,26.2-0.3
					c4.6,1,9.1,2.8,13.3,5.3c4.3,2.4,8.1,5.7,11.7,9.2c3.5,3.6,6.9,7.3,10.1,11.4c1.6,2,3.2,4.1,4.6,6.3c0.8,1.1,1.4,2.2,2.1,3.3
					c0.7,1.1,1.4,2.2,2,3.4c2.7,4.6,4.7,9.5,6.5,14.4c1.8,4.9,3.1,9.8,4,14.7c1,4.9,1.5,9.8,1.8,14.6c0.3,4.8,0.1,9.5-0.2,14.1
					c-0.1,1.1-0.2,2.3-0.3,3.4c-0.1,1.1-0.3,2.2-0.5,3.4c-0.3,2.2-0.8,4.4-1.2,6.5c-0.9,4.3-2,8.3-3.4,12.2
					c-2.6,7.7-5.9,14.6-9.3,20.7c-3.4,6-7.1,11.1-10.5,15.4c-3.4,4.3-6.6,7.8-9.4,10.5c-1.4,1.4-2.6,2.5-3.7,3.5
					c-0.6,0.5-1.1,1-1.5,1.4c-0.5,0.4-0.9,0.8-1.3,1.1C773.8,225.3,772.9,225.9,772.8,225.8z"/>
			</g>
		</g>
	</g>
	<g>
		<g>
			<g>
				<path class="st2" d="M822.3,117.7c-1,0.2-3.3-14.5-11-30.8c-7.5-16.4-17.1-27.7-16.3-28.3c0.3-0.3,3.1,2.2,6.9,6.9
					c0.9,1.2,2,2.5,3,3.9c1.1,1.4,2.1,3,3.2,4.7c2.1,3.4,4.3,7.2,6.2,11.4c1.9,4.2,3.5,8.3,4.7,12.1c0.6,1.9,1.1,3.7,1.5,5.5
					c0.4,1.7,0.8,3.3,1.1,4.8C822.7,113.9,822.7,117.6,822.3,117.7z"/>
			</g>
		</g>
	</g>
	<g>
		<g>
			<g>
				<path class="st2" d="M697,228.3c-0.2,0.3-4.4-2.4-9.6-8.3c-2.6-3-5.4-6.7-8-11.2c-2.6-4.5-5-9.7-7-15.4
					c-3.9-11.3-5.5-22.1-6.1-29.8c-0.6-7.8-0.4-12.6,0-12.6c0.5,0,1.1,4.7,2.3,12.3c1.2,7.6,3.1,18,6.9,29
					c3.8,11,9.1,20.2,13.7,26.2C693.8,224.7,697.4,227.9,697,228.3z"/>
			</g>
		</g>
	</g>
	<g>
		<g>
			<g>
				
					<ellipse transform="matrix(3.873746e-002 0.9992 -0.9992 3.873746e-002 1068.4939 -407.0329)" class="st2" cx="745.8" cy="351.8" rx="58.9" ry="1.6"/>
			</g>
		</g>
	</g>
	<g>
		<g>
			<g>
				<path class="st2" d="M767.1,452.2c-0.5,0-0.8-3.1-2-7.8c-1.2-4.7-3.6-11-8-16.9c-2.1-2.9-4.6-5.3-7.3-6.3
					c-1.3-0.5-2.5-0.6-3.3-0.2c-0.8,0.4-1.4,1.4-1.6,2.4c-0.2,1-0.1,1.9,0.2,2.8c0.2,0.9,0.6,1.6,0.9,2.2c0.6,1.2,0.9,2,0.7,2.1
					c-0.2,0.1-0.8-0.3-1.8-1.4c-0.5-0.6-1-1.3-1.5-2.3c-0.5-1-0.9-2.3-0.8-3.8c0.1-0.7,0.2-1.5,0.6-2.3c0.4-0.8,1-1.5,1.9-2.1
					c0.9-0.5,1.9-0.8,2.9-0.8c1,0,1.9,0.2,2.8,0.5c1.8,0.6,3.5,1.6,4.9,2.9c1.5,1.3,2.8,2.8,4,4.4c4.7,6.4,6.9,13.4,7.6,18.4
					C768,449.1,767.5,452.3,767.1,452.2z"/>
			</g>
		</g>
	</g>
	<g>
		<g>
			<g>
				<path class="st2" d="M749.3,469.3c-0.3-0.3,1-2,2.5-5c1.5-3,3.1-7.4,3.1-12.4c0-5-1.5-9.4-3-12.4c-1.5-3-2.8-4.7-2.5-5.1
					c0.3-0.3,2.3,0.9,4.5,3.9c2.2,2.9,4.3,7.8,4.3,13.6c0,5.8-2.2,10.7-4.4,13.6C751.6,468.5,749.6,469.6,749.3,469.3z"/>
			</g>
		</g>
	</g>
	<g>
		<g>
			<g>
				<path class="st2" d="M746.8,469.4c0.3,0.3,0,1.5-1.6,2.6c-0.8,0.6-1.8,1-3.1,1.3c-1.3,0.2-2.7,0.2-4.2-0.3
					c-1.4-0.5-2.6-1.4-3.4-2.4c-0.8-1-1.3-2-1.6-2.9c-0.5-1.9,0-3,0.4-3c0.5,0,0.9,0.9,1.7,2.1c0.8,1.2,2.2,2.5,4,3.2
					c1.8,0.7,3.8,0.5,5.1,0.1C745.5,469.6,746.4,469.1,746.8,469.4z"/>
			</g>
		</g>
	</g>
	<g>
		<g>
			<g>
				<path class="st2" d="M749.5,466.3c-0.3,0.4-1.5,0-3.3-0.8c-1.8-0.7-4.1-1.8-6.7-2.1c-1.3-0.2-2.5-0.1-3.6,0.1
					c-0.5,0.1-1,0.3-1.5,0.5c-0.2,0.1-0.4,0.2-0.6,0.3c-0.2,0.1-0.3,0.2-0.5,0.3c-0.6,0.5-0.9,0.9-1,1.3c-0.1,0.4,0,0.7-0.2,0.9
					c-0.2,0.1-0.7,0.1-1-0.6c-0.2-0.3-0.3-0.9-0.2-1.4c0.1-0.5,0.3-1.1,0.6-1.6c0.2-0.3,0.4-0.5,0.6-0.8c0.2-0.3,0.6-0.5,0.8-0.7
					c0.6-0.4,1.2-0.7,1.9-1c1.4-0.5,3.1-0.7,4.8-0.5c3.5,0.4,6,2.1,7.6,3.4C749,464.9,749.7,465.9,749.5,466.3z"/>
			</g>
		</g>
	</g>
	<g>
		<g>
			<g>
				<path class="st2" d="M753.1,458c-0.3,0.4-2-0.4-4.5-1.7c-2.6-1.2-6.1-3-10-2.9c-2,0.1-3.7,0.6-5.1,1.5c-1.4,0.9-2.2,2.1-2.5,3.1
					c-0.3,1,0,2,0.3,2.7c0.3,0.6,0.6,1,0.5,1.2c-0.1,0.2-0.7,0.3-1.5-0.3c-0.8-0.6-1.7-1.9-1.6-3.8c0.1-1.9,1.2-3.9,3-5.2
					c1.8-1.4,4.2-2.2,6.7-2.3c2.5-0.1,4.9,0.5,6.8,1.4c1.9,0.8,3.4,1.9,4.6,2.8C752.2,456.2,753.3,457.6,753.1,458z"/>
			</g>
		</g>
	</g>
	<g>
		<g>
			<g>
				<path class="st2" d="M755.5,452.6c-0.3,0.3-1.9-0.7-4.4-2.1c-2.5-1.4-6.1-3.1-10.3-4c-2.1-0.5-4-0.6-5.5-0.2
					c-0.8,0.2-1.4,0.5-1.9,0.9c-0.5,0.4-0.9,0.9-1.2,1.5c-0.6,1.1-0.7,2.1-0.6,2.8c0.1,0.7,0.3,1.2,0.1,1.3c-0.1,0.1-0.7,0-1.3-0.8
					c-0.6-0.8-0.9-2.4-0.4-4.1c0.3-0.9,0.7-1.8,1.5-2.6c0.8-0.8,1.8-1.4,2.9-1.8c2.3-0.8,4.8-0.6,7.1-0.1c4.7,1.1,8.5,3.3,10.9,5.3
					C754.8,450.6,755.8,452.3,755.5,452.6z"/>
			</g>
		</g>
	</g>
	<g>
		<g>
			<g>
				<path class="st2" d="M751.2,440.9c-0.6,0.7-4.5-1.6-9.6-1.4c-0.6,0-1.3,0.1-1.8,0.2c-0.6,0.1-1.1,0.2-1.6,0.3
					c-1,0.3-1.8,0.7-2.5,1.1c-1.3,0.8-1.6,1.9-2.1,1.9c-0.2,0-0.4-0.3-0.5-1c0-0.6,0.2-1.6,0.9-2.5c0.7-0.9,1.7-1.8,3-2.3
					c0.6-0.3,1.4-0.5,2.1-0.7c0.7-0.2,1.5-0.2,2.3-0.3c3.2-0.1,5.9,0.9,7.6,2.1C750.8,439.5,751.4,440.6,751.2,440.9z"/>
			</g>
		</g>
	</g>
	<g>
		<g>
			<g>
				<path class="st2" d="M818.9,598.5c-0.5,0.1-2.5-7.9-7.4-20.1c-2.4-6.1-5.6-13.3-9.4-21.2c-3.8-7.9-8.1-16.5-12.6-25.6
					c-4.4-9.1-8.4-18-11.6-26.2c-3.2-8.3-5.5-15.9-6.9-22.4c-1.4-6.5-2.1-11.9-2.3-15.7c-0.2-3.7-0.1-5.8,0.1-5.8
					c0.6,0,1,8.2,4.5,20.9c1.7,6.4,4.2,13.8,7.5,21.9c3.3,8.1,7.3,16.8,11.7,25.9c4.4,9.1,8.7,17.8,12.3,25.8
					c3.7,8,6.7,15.4,8.8,21.7c2.2,6.3,3.6,11.5,4.4,15.2C818.9,596.4,819.1,598.4,818.9,598.5z"/>
			</g>
		</g>
	</g>
	<g>
		<g>
			<g>
				<path class="st2" d="M781.3,628.9c-0.1,0-0.1-0.6,0.1-1.7c0.1-0.5,0.2-1.2,0.4-2c0.1-0.8,0.2-1.7,0.4-2.7
					c0.5-4,0.8-9.9-0.2-17.1c-0.9-7.2-3.1-15.6-5.9-24.9c-2.8-9.3-5.8-19.6-8.3-30.6c-2.5-11-4.5-21.5-6.3-31
					c-1.8-9.5-3.4-18.1-4.9-25.3c-1.4-7.2-2.8-13-3.6-17c-0.9-4-1.3-6.2-1.1-6.3c0.2-0.1,1,2.1,2.3,6c1.2,3.9,2.9,9.6,4.7,16.8
					c1.8,7.1,3.6,15.7,5.6,25.2c2,9.5,4,20,6.5,30.9c2.4,10.9,5.3,21.1,8,30.5c2.6,9.4,4.6,18,5.3,25.4c0.8,7.4,0.1,13.5-0.8,17.6
					c-0.2,1-0.5,1.9-0.7,2.7c-0.3,0.8-0.5,1.4-0.7,1.9C781.7,628.4,781.5,628.9,781.3,628.9z"/>
			</g>
		</g>
	</g>
	<g>
		<g>
			<g>
				<path class="st2" d="M745.9,744.1c-0.4-0.1,0.3-6.7,2.3-17.4c1-5.3,2.4-11.6,4.1-18.5c1.8-6.9,3.9-14.5,6.4-22.4
					c2.5-7.9,5.2-15.3,7.8-21.9c2.6-6.7,5.1-12.6,7.4-17.5c4.5-9.8,7.8-15.6,8.2-15.5c0.4,0.2-2.1,6.4-6.1,16.4
					c-2,5-4.3,11-6.7,17.6c-2.4,6.7-5,14.1-7.5,21.9c-2.5,7.8-4.7,15.3-6.6,22.1c-1.9,6.9-3.5,13-4.8,18.3
					C747.9,737.7,746.4,744.2,745.9,744.1z"/>
			</g>
		</g>
	</g>
	<g>
		<g>
			<g>
				<path class="st2" d="M834,768.4c-0.4,0-1-4.1-1.2-10.8c-0.1-3.3,0-7.3,0.2-11.7c0.3-4.4,0.7-9.2,1.4-14.3
					c0.7-5,1.6-9.8,2.6-14.1c1-4.3,2.1-8.1,3.1-11.3c2-6.4,3.8-10.1,4.2-10c0.9,0.3-3.9,16-6.6,35.9
					C834.8,751.9,835,768.3,834,768.4z"/>
			</g>
		</g>
	</g>
	<g>
		<g>
			<g>
				<path class="st2" d="M823.3,773.4c0.1,0.3-4.4,2.5-12.2,3.6c-3.9,0.6-8.7,0.9-14,0.5c-5.3-0.4-11-1.5-16.8-3.5
					c-5.8-2-10.9-4.8-15.3-7.8c-4.4-3-7.9-6.2-10.6-9.1c-5.4-5.8-7.6-10.3-7.3-10.5c0.4-0.3,3.3,3.6,8.9,8.9
					c5.6,5.2,14.3,11.5,25.4,15.4c11,3.9,21.8,4.4,29.4,3.8C818.5,774.2,823.2,772.9,823.3,773.4z"/>
			</g>
		</g>
	</g>
	<g>
		<g>
			<g>
				<path class="st2" d="M869.1,801.1c-0.5,0.1-1.7-7.3-3.6-19.2c-1.8-11.9-4.3-28.3-7-46.5c-1.4-9.1-2.7-17.7-3.9-25.6
					c-1.2-7.8-2.5-14.8-4.1-20.5c-1.6-5.7-3.6-10.1-5.2-13c-1.6-2.9-2.6-4.5-2.4-4.6c0.1-0.1,1.5,1.2,3.5,4c1.9,2.8,4.3,7.2,6.3,13
					c2,5.8,3.5,12.9,4.9,20.7c1.4,7.8,2.8,16.5,4.2,25.6c2.8,18.2,4.9,34.7,6.1,46.7C869.1,793.6,869.6,801,869.1,801.1z"/>
			</g>
		</g>
	</g>
	<g>
		<g>
			<g>
				<path class="st2" d="M882.5,798c-0.2,0-0.3-2.7-0.3-7.4c0-4.8,0-11.7-0.1-20.2c-0.1-17.1-0.8-40.6-2.8-66.6
					c-2.2-25.9-4.7-49.4-8.4-66c-3.6-16.6-8-26.3-7.5-26.5c0.2-0.1,1.5,2.2,3.4,6.7c1.9,4.4,4.2,11,6.4,19.3
					c2.1,8.3,4,18.4,5.5,29.6c1.5,11.2,2.9,23.6,3.9,36.6c2,26.1,2.3,49.8,1.8,66.9c-0.2,8.6-0.6,15.5-1,20.3
					C883.1,795.4,882.7,798,882.5,798z"/>
			</g>
		</g>
	</g>
	<g>
		<g>
			<g>
				<path class="st2" d="M872.9,825.6c0.2,0.1,0.2,0.7-0.5,1.3c-0.7,0.6-2.1,1-3.6,0.6c-0.4-0.1-0.8-0.3-1.2-0.6
					c-0.2-0.1-0.4-0.3-0.6-0.5c-0.2-0.2-0.3-0.3-0.5-0.5c-0.6-0.7-1.1-1.6-1.4-2.6c-0.3-0.9-0.4-1.9-0.5-2.8
					c-0.1-0.9-0.2-1.9-0.2-2.9c-0.1-4,0.4-7.6,1.1-10.1c0.7-2.5,1.5-3.9,1.9-3.8c0.9,0.2,0,6.3,0.3,13.8c0.1,1.9,0.1,3.7,0.4,5.1
					c0.1,0.7,0.3,1.3,0.6,1.7c0.1,0.1,0.1,0.2,0.2,0.3c0.1,0.1,0.1,0.2,0.2,0.2c0.1,0.2,0.3,0.3,0.5,0.4c0.8,0.5,1.6,0.6,2.1,0.5
					C872.3,825.8,872.7,825.5,872.9,825.6z"/>
			</g>
		</g>
	</g>
	<g>
		<g>
			<g>
				<path class="st2" d="M887.4,839.8c-0.1,0.4-2.1,0.4-4.9-1.2c-2.8-1.5-6-4.8-7.9-9.2c-1.9-4.4-2.5-8.6-2.7-11.6
					c-0.2-3,0-4.8,0.4-4.9c0.5-0.1,1.1,1.7,1.8,4.5c0.8,2.8,1.7,6.7,3.4,10.6c1.7,3.9,4.2,6.9,6.3,8.6
					C885.9,838.5,887.6,839.3,887.4,839.8z"/>
			</g>
		</g>
	</g>
	<g>
		<g>
			<g>
				<path class="st2" d="M891,835.7c-0.5-0.1-0.2-2.5-0.2-6.2c0-3.7-0.6-8.8-2-14.3c-1.4-5.5-3.3-10.3-4.6-13.9
					c-1.3-3.6-1.9-5.9-1.5-6.1c0.4-0.2,1.8,1.8,3.6,5.1c1.8,3.4,4.1,8.2,5.6,14c1.5,5.8,1.7,11.3,1.2,15.2
					C892.5,833.6,891.4,835.8,891,835.7z"/>
			</g>
		</g>
	</g>
	<g>
		<g>
			<g>
				<path class="st2" d="M885.9,842.2c-0.9,0.1-2.1-5.3-4-11.7c-1.9-6.4-3.7-11.6-2.9-12c0.8-0.4,4.1,4.3,6,11.1
					C887,836.3,886.8,842.1,885.9,842.2z"/>
			</g>
		</g>
	</g>
	<g>
		<g>
			<g>
				<path class="st2" d="M887,840.6c-0.9-0.2-0.7-4.7-1.1-10.2c-0.4-5.5-1.3-9.9-0.5-10.3c0.4-0.1,1.2,0.8,2,2.6
					c0.8,1.8,1.5,4.4,1.7,7.4c0.2,3-0.1,5.7-0.6,7.6C888,839.6,887.4,840.7,887,840.6z"/>
			</g>
		</g>
	</g>
	<g>
		<g>
			<g>
				<path class="st2" d="M857.8,963.4c-0.2,0.1-1.3-2.3-3-6.7c-0.4-1.1-0.9-2.3-1.4-3.7c-0.5-1.4-1-2.8-1.5-4.4
					c-1.1-3.2-2.3-6.8-3.5-10.9c-0.6-2-1.2-4.2-1.9-6.4c-0.6-2.2-1.2-4.6-1.8-7c-1.3-4.8-2.4-10-3.6-15.5c-2.2-11-4.3-23.1-5.8-36
					c-1.5-12.8-2.4-25.1-3-36.3c-0.2-5.6-0.5-10.9-0.5-15.9c0-2.5-0.1-4.9-0.1-7.2c0-2.3,0-4.5,0-6.6c0-4.2,0.1-8.1,0.2-11.4
					c0.1-3.4,0.2-6.3,0.3-8.6c0.3-4.7,0.5-7.3,0.7-7.3c0.2,0,0.4,2.6,0.5,7.3c0.1,4.7,0.3,11.6,0.5,20c0.1,2.1,0.1,4.3,0.2,6.6
					c0.1,2.3,0.2,4.7,0.3,7.2c0.2,5,0.5,10.2,0.8,15.8c0.7,11.1,1.7,23.3,3.2,36.1c1.6,12.8,3.5,24.8,5.5,35.8
					c1.1,5.5,2.1,10.7,3.3,15.5c0.6,2.4,1.1,4.8,1.6,7c0.6,2.2,1.1,4.4,1.6,6.4c1,4.1,2.1,7.7,3,11c0.4,1.6,0.9,3.1,1.2,4.5
					c0.4,1.4,0.8,2.6,1.1,3.8C857.4,960.8,858,963.3,857.8,963.4z"/>
			</g>
		</g>
	</g>
	<g>
		<g>
			<g>
				<path class="st2" d="M781.2,814.8c-0.6,0.6-5.2-2.9-9.4-8.7c-4.2-5.8-6.1-11.3-5.4-11.6c0.8-0.4,4,4.2,8,9.7
					C778.4,809.7,781.8,814.2,781.2,814.8z"/>
			</g>
		</g>
	</g>
	<g>
		<g>
			<g>
				<path class="st2" d="M843.2,987.8c-0.2,0.1-1.7-2-4.1-6.1c-1.3-2-2.7-4.5-4.3-7.4c-0.8-1.5-1.7-3-2.6-4.7
					c-0.9-1.7-1.8-3.5-2.8-5.3c-7.8-15-17-36.5-25.3-60.9c-4.2-12.2-7.7-23.9-10.8-34.7c-3.1-10.7-5.6-20.4-7.7-28.6
					c-1-4.1-1.9-7.8-2.7-11c-0.8-3.2-1.6-6-2.3-8.2c-1.4-4.5-2.4-6.8-2.2-7c0.2-0.1,1.6,2.1,3.4,6.5c0.9,2.2,1.8,4.9,2.8,8.2
					c1,3.2,2,6.9,3.2,10.9c2.3,8.1,5.1,17.7,8.3,28.4c3.2,10.6,6.8,22.3,11,34.4c8.3,24.3,17.1,45.8,24.3,60.9
					c0.9,1.9,1.7,3.7,2.6,5.4c0.8,1.7,1.6,3.3,2.4,4.8c1.5,3,2.7,5.6,3.8,7.7C842.3,985.3,843.4,987.7,843.2,987.8z"/>
			</g>
		</g>
	</g>
	<g>
		<g>
			<g>
				<path class="st2" d="M852.8,961c-0.3,0.4-1.6-0.3-3.6-0.9c-2-0.6-4.9-1.1-8-0.5c-3,0.6-5.5,2.1-7.2,3.5
					c-0.4,0.3-0.8,0.6-1.1,0.9c-0.2,0.1-0.3,0.3-0.5,0.4c-0.2,0.1-0.3,0.2-0.3,0.2c0,0,0,0-0.1,0c-0.1,0-0.1,0-0.2,0
					c0,0-0.1,0-0.1,0c0,0,0,0,0,0l0,0l-0.2,0.1l0,0c0,0,0-0.1,0-0.1c0,0,0,0,0,0c0,0.1,0.1,0.2,0.1,0.1l0,0c0,0,0,0,0,0
					c0,0,0,0,0.1,0c0,0,0.1-0.1,0.2,0.1c0.1,0.1,0,0.3-0.2,0.4c-0.1,0.1-0.4,0.3-0.8-0.1l-0.1-0.1c0,0,0,0,0-0.1l0,0
					c0,0,0,0-0.1-0.1c-0.1-0.1-0.1-0.2-0.1-0.3c0-0.2,0-0.3,0-0.5c0.1-0.3,0.2-0.5,0.2-0.7c0.1-0.2,0.2-0.4,0.3-0.6
					c0.2-0.4,0.5-0.9,0.9-1.4c1.5-2,4.4-4.3,8.2-5.1c3.9-0.8,7.4,0.3,9.5,1.6C852.2,959.4,853,960.7,852.8,961z"/>
			</g>
		</g>
	</g>
	<g>
		<g>
			<g>
				<path class="st2" d="M846.5,945.1c-0.1,0.5-1.5,0.6-3.8,0.7c-2.2,0.1-5.3,0.1-8.3,0.8c-3,0.8-5.5,2.3-7,3.7
					c-1.5,1.4-2.2,2.6-2.7,2.5c-0.4-0.1-0.5-1.8,0.9-3.9c1.3-2.2,4.2-4.5,8-5.4c3.7-0.9,7.1-0.5,9.4,0
					C845.2,944,846.5,944.6,846.5,945.1z"/>
			</g>
		</g>
	</g>
	<g>
		<g>
			<g>
				<path class="st2" d="M823.5,797.3c0.1,0.2-0.1,0.6-0.7,1.4c-0.7,0.7-1.8,1.6-3.4,2.3c-1.6,0.7-3.6,1.2-5.9,1.3
					c-2.3,0.1-4.9-0.4-7.3-1.6c-2.5-1.2-4.4-3.1-5.7-4.9c-1.3-1.9-2.1-3.7-2.7-5.3c-0.5-1.5-0.8-2.9-0.9-3.7c0-0.1,0-0.1,0-0.2
					c0,0,0.1-0.2,0.1-0.2c0,0,0,0,0,0c0,0,0,0,0,0l0,0l0,0l0,0l0,0c0,0,0-0.3,0-0.2c0,0,0-0.1,0-0.1c0,0,0.2,0,0.2,0
					c0,0,0,0-0.1,0.1c-0.1,0-0.1,0.1-0.1,0.1c0,0-0.1-0.1,0,0c0,0,0.1,0,0.1,0c0,0,0.1,0.1-0.1,0.2c-0.2,0-0.4-0.1-0.4-0.3
					c0-0.1-0.1-0.3,0.1-0.5c0.1-0.1,0.2-0.2,0.4-0.2c0.1,0,0,0,0.1,0c0.1,0,0.1,0,0.2,0c0.4,0.1,0.7,0.4,0.8,0.6
					c0.5,0.9,1.1,1.9,1.9,3.3c1.5,2.7,3.8,6.4,7.7,8.3c2,0.9,4,1.4,6,1.5c1.9,0.1,3.7-0.1,5.1-0.5
					C821.6,798.1,823.2,796.9,823.5,797.3z"/>
			</g>
		</g>
	</g>
	<g>
		<g>
			<g>
				<path class="st2" d="M825.5,784.6c0.2,0.4-1,1.6-3.4,2.6c-2.4,1-6.4,1.8-10.5,0.6c-4.2-1.3-7-4.3-8.2-6.8
					c-1.2-2.5-0.9-4.3-0.5-4.4c0.5-0.1,1,1.4,2.5,3.2c1.4,1.8,3.9,3.9,7.2,4.9c3.3,1,6.6,0.7,8.9,0.3
					C823.8,784.6,825.3,784.2,825.5,784.6z"/>
			</g>
		</g>
	</g>
	<g>
		<g>
			<g>
				<path class="st2" d="M819.4,815.3c-0.4,0.2-1.1-0.1-1.7-0.9c-0.7-0.8-1.4-2.1-1.7-3.6c-0.4-1.5-0.3-3,0-4c0.3-1,0.7-1.6,1.2-1.6
					c0.9,0.1,1.4,2.3,2,4.9C819.7,812.6,820.2,814.8,819.4,815.3z"/>
			</g>
		</g>
	</g>
	<g>
		<g>
			<g>
				
					<ellipse transform="matrix(0.1458 0.9893 -0.9893 0.1458 1525.5957 -102.0017)" class="st2" cx="821.9" cy="832.4" rx="4.3" ry="1.6"/>
			</g>
		</g>
	</g>
	<g>
		<g>
			<g>
				
					<ellipse transform="matrix(0.1135 0.9935 -0.9935 0.1135 1584.3022 -60.4246)" class="st2" cx="826" cy="857.6" rx="5.4" ry="1.6"/>
			</g>
		</g>
	</g>
	<g>
		<g>
			<g>
				<path class="st2" d="M830.1,889.1c-0.9,0-1.7-2.4-2.1-5.3c-0.4-3-0.3-5.5,0.6-5.7c0.9-0.2,2.2,2.1,2.6,5.3
					C831.6,886.5,831,889.1,830.1,889.1z"/>
			</g>
		</g>
	</g>
	<g>
		<g>
			<g>
				
					<ellipse transform="matrix(0.17 0.9855 -0.9855 0.17 1584.0627 -71.7069)" class="st2" cx="834.6" cy="904.5" rx="4.3" ry="1.6"/>
			</g>
		</g>
	</g>
	<g>
		<g>
			<g>
				
					<ellipse transform="matrix(0.172 0.9851 -0.9851 0.172 1610.7443 -56.7616)" class="st2" cx="839.1" cy="929.8" rx="3.8" ry="1.6"/>
			</g>
		</g>
	</g>
	<g>
		<g>
			<g>
				<path class="st2" d="M862.8,986.9c-0.8,0.4-4-4.6-6-11.5c-2.1-6.9-2.1-12.8-1.3-12.9c0.9-0.1,2.4,5.4,4.4,12
					C861.9,981.2,863.6,986.6,862.8,986.9z"/>
			</g>
		</g>
	</g>
	<g>
		<g>
			<g>
				<path class="st2" d="M848.5,998.2c-0.2,0.2-0.9-0.2-1.9-0.8c-0.3-0.2-0.5-0.3-0.8-0.5c-0.1,0-0.2-0.1-0.2-0.1l-0.1-0.1
					c-0.1,0-0.2-0.1-0.3-0.1c-0.2,0-0.4-0.1-0.5-0.1c-0.1,0-0.2,0-0.2,0l-0.1,0c0,0-0.1,0-0.1,0.1c0.1,0.4,0.1,0.9,0.2,1.4
					c0.1,1.2,0.2,2.4,0.5,3.7c0.6,3.8,1.8,7.1,2.7,9.5c0.9,2.4,1.6,3.9,1.2,4.2c-0.3,0.3-1.7-0.8-3.2-3.1c-1.5-2.3-3.2-5.8-3.8-10
					c-0.2-1.4-0.4-2.8-0.4-4.1l0-0.6c0-0.3,0-0.5,0-0.8c0-0.5,0.1-1,0.1-1.5c0-1,0.1-1.9,0.2-2.7c0.1,0,0.1,0,0.2,0l0.3,0.1
					c0.2,0.1,0.4,0.1,0.6,0.2c0.4,0.1,0.7,0.3,1.1,0.4c0.7,0.3,1.3,0.6,1.9,1c0.3,0.2,0.5,0.4,0.8,0.6c0.1,0.1,0.2,0.2,0.3,0.3
					l0.2,0.2c0.3,0.3,0.5,0.6,0.7,0.8C848.5,997.2,848.7,998,848.5,998.2z"/>
			</g>
		</g>
	</g>
	<g>
		<g>
			<g>
				<path class="st2" d="M862.5,993.5c-0.4,0.3-1.5-0.6-3.3-1.7c-0.9-0.6-2-1.3-3.2-1.9c-1.2-0.6-2.7-1.3-3.9-1.4
					c-0.6,0-0.9,0.1-1.3,0.3c-0.3,0.2-0.6,0.7-0.9,1.2c-0.5,1-0.5,2.2-0.6,3.4c-0.1,1.1-0.2,2.1-0.4,2.8c-0.2,0.7-0.5,1-0.8,0.9
					c-0.2,0-0.4-0.4-0.5-1c-0.2-0.6-0.4-1.4-0.6-2.6c-0.1-0.6-0.2-1.2-0.3-2c0-0.8,0-1.6,0.3-2.5c0.3-0.9,0.7-1.9,1.7-2.7
					c0.9-0.8,2.3-1.2,3.5-1.1c1.2,0.1,2.1,0.4,3,0.8c0.8,0.4,1.5,0.8,2.2,1.2c1.4,0.9,2.4,1.8,3.2,2.7
					C862.3,991.8,862.8,993.3,862.5,993.5z"/>
			</g>
		</g>
	</g>
	<g>
		<g>
			<g>
				<path class="st2" d="M877.8,1016.3c-0.9,0.3-3.9-8.1-8.7-17.9c-1.2-2.4-2.4-4.8-3.5-6.9c-0.3-0.5-0.5-1-0.8-1.5
					c-0.1-0.2-0.3-0.5-0.4-0.7l-0.1-0.2l0-0.1l-0.1-0.1c-0.1-0.2-0.2-0.4-0.3-0.6c-0.1-0.2-0.4-0.3-0.6-0.2
					c-0.4,0.2-0.5,0.5-0.8,0.8c-0.1,0.1-0.3,0.5-0.4,0.7c-0.1,0.3-0.2,0.5-0.3,0.7c-0.4,0.9-0.6,1.4-0.9,1.4c-0.2,0-0.4-0.6-0.4-1.7
					c0-0.3,0-0.6,0.1-0.9c0-0.3,0.1-0.7,0.3-1.2c0.3-1,0.7-2.2,1.8-2.8c0.5-0.3,1.3-0.2,1.8,0.1c0.6,0.3,1.1,0.8,1.6,1.5
					c0.4,0.6,0.7,1.1,1.1,1.7c0.3,0.5,0.6,1,0.9,1.5c1.3,2.1,2.6,4.4,3.8,6.9C877,1007.1,878.7,1016.1,877.8,1016.3z"/>
			</g>
		</g>
	</g>
	<g>
		<g>
			<g>
				<path class="st2" d="M696.6,957.5c-0.2,0-0.5-2.9-0.7-8.2c-0.2-5.3-0.2-13,0.4-22.5c0.6-9.5,1.9-20.7,4-33.1
					c2.2-12.4,5.2-25.9,9.2-39.8c7.9-27.9,17.4-52.4,24.4-69.9c3.5-8.8,6.5-15.9,8.6-20.7c2.1-4.9,3.4-7.5,3.6-7.4
					c0.2,0.1-0.7,2.9-2.4,7.9c-1.8,5-4.4,12.2-7.7,21.1c-6.5,17.8-15.6,42.3-23.4,70c-3.9,13.9-7,27.2-9.3,39.5
					c-2.3,12.3-3.8,23.4-4.7,32.8c-0.9,9.4-1.3,17-1.4,22.3C696.9,954.6,696.8,957.5,696.6,957.5z"/>
			</g>
		</g>
	</g>
	<g>
		<g>
			<g>
				<path class="st2" d="M715.4,975.7c-0.2,0-0.1-2.4,0.3-6.8c0.1-1.1,0.2-2.3,0.4-3.6c0.2-1.3,0.4-2.7,0.6-4.3
					c0.5-3.1,0.9-6.6,1.7-10.4c0.4-1.9,0.7-3.9,1.1-6c0.4-2.1,0.9-4.2,1.4-6.5c0.9-4.5,2.2-9.2,3.5-14.2c2.8-9.9,6.2-20.8,10.5-31.9
					c4.4-11.1,9.1-21.4,13.8-30.6c2.4-4.6,4.7-8.9,7-12.8c1.2-2,2.2-3.9,3.4-5.7c1.1-1.8,2.2-3.5,3.3-5.2c2-3.3,4.1-6.2,5.8-8.8
					c0.9-1.3,1.7-2.5,2.5-3.5c0.8-1.1,1.5-2,2.2-2.9c2.6-3.5,4.2-5.3,4.4-5.2c0.2,0.1-1,2.2-3.3,5.9c-0.6,0.9-1.2,1.9-1.9,3
					c-0.7,1.1-1.4,2.4-2.2,3.7c-1.6,2.6-3.5,5.6-5.4,9c-1,1.7-2,3.4-3,5.3c-1.1,1.8-2.1,3.8-3.2,5.8c-2.2,4-4.4,8.3-6.7,12.9
					c-4.5,9.2-9.1,19.4-13.5,30.4c-4.3,11-7.8,21.7-10.7,31.5c-1.4,4.9-2.7,9.6-3.8,14c-0.5,2.2-1.1,4.3-1.6,6.4
					c-0.5,2.1-0.9,4-1.3,5.9c-0.9,3.8-1.5,7.2-2.1,10.2c-0.3,1.5-0.6,2.9-0.8,4.2c-0.2,1.3-0.4,2.5-0.6,3.6
					C716.2,973.4,715.6,975.7,715.4,975.7z"/>
			</g>
		</g>
	</g>
	<g>
		<g>
			<g>
				<path class="st2" d="M705.3,989.3c-0.4,0.2-1.6-1-3.1-3.1c-0.8-1.1-1.7-2.3-2.7-3.6c-1-1.2-2.2-2.4-3.7-3
					c-1.5-0.7-3-0.8-4.1-0.3c-1.1,0.4-2,1.5-2.7,2.5c-0.7,1-1.4,2-1.9,2.5c-0.6,0.6-1,0.7-1.2,0.6c-0.2-0.1-0.1-0.6,0.1-1.3
					c0.2-0.7,0.5-1.7,1-3c0.3-0.6,0.6-1.4,1.1-2.1c0.5-0.7,1.3-1.5,2.3-2c2-1.1,4.6-1,6.8,0c2.2,1,3.7,2.7,4.8,4.2
					c1,1.5,1.7,3,2.3,4.2C705.2,987.5,705.7,989.1,705.3,989.3z"/>
			</g>
		</g>
	</g>
	<g>
		<g>
			<g>
				<path class="st2" d="M720.7,993.4c-0.1,0.2-0.7,0.1-1.4-0.5c-0.7-0.6-1.5-1.8-2-3.4c-0.5-1.6-0.7-3.5-0.9-5.3
					c-0.1-0.9-0.3-1.8-0.6-2.7c-0.1-0.2-0.2-0.4-0.2-0.6c-0.1-0.2-0.2-0.3-0.3-0.5c-0.2-0.3-0.5-0.7-0.8-0.9
					c-0.6-0.6-1.3-0.9-1.9-0.9c-0.3,0-0.5,0-0.8,0.2c-0.3,0.1-0.6,0.3-0.9,0.6c-1.3,1.1-2.4,2.4-3.2,3.6c-1.6,2.3-2.2,4.1-2.7,4
					c-0.4-0.1-0.6-2.1,0.6-5.1c0.6-1.5,1.6-3.1,3.2-4.7c0.4-0.4,0.9-0.8,1.5-1.2c0.6-0.3,1.4-0.6,2.2-0.6c1.6,0,3,0.7,4.1,1.7
					c0.5,0.5,1,1,1.4,1.6c0.2,0.3,0.3,0.6,0.5,0.9c0.1,0.3,0.2,0.6,0.3,0.9c0.4,1.2,0.5,2.4,0.5,3.4c0.1,2.1,0,3.7,0.2,5.1
					c0.1,1.4,0.5,2.4,0.8,3.1C720.6,992.8,720.9,993.3,720.7,993.4z"/>
			</g>
		</g>
	</g>
	<g>
		<g>
			<g>
				<path class="st2" d="M670.9,1057.8c-0.2,0.1-0.8-0.9-1.4-2.8c-0.7-1.9-1.3-4.7-1.6-8.3c-0.3-3.6-0.1-7.8,0.7-12.5
					c0.8-4.6,2.1-9.6,3.9-14.7c1.8-5.1,3.8-9.7,5.5-14c1.8-4.2,3.3-8.1,4.5-11.3c2.4-6.5,3.4-10.6,3.9-10.6
					c0.4,0.1,0.2,4.5-1.7,11.3c-0.9,3.4-2.3,7.4-3.9,11.7c-1.6,4.3-3.5,9-5.2,14c-1.7,4.9-3.1,9.7-4,14.1c-0.9,4.4-1.3,8.5-1.3,11.9
					C670.1,1053.5,671.4,1057.7,670.9,1057.8z"/>
			</g>
		</g>
	</g>
	<g>
		<g>
			<g>
				<path class="st2" d="M718.8,999.1c0.2,0.1-0.1,1.1-1,2.8c-0.9,1.7-2.3,4-4.2,6.7c-3.8,5.5-9.1,13-15.2,21.1
					c-6.1,8.1-11.8,15.4-16,20.5c-1.1,1.3-2.2,2.5-3.3,3.3c-1.1,0.9-2.3,1.4-3.3,1.6c-1,0.2-1.9,0.1-2.4-0.1
					c-0.5-0.2-0.7-0.4-0.7-0.5c0.1-0.3,1.1,0.1,2.7-0.6c1.5-0.6,3.4-2.4,5.1-5.2c3.8-5.5,9.1-13,15.2-21.1
					c6.1-8.1,11.8-15.4,16-20.5c2.1-2.5,3.8-4.6,5-6C717.9,999.8,718.6,999,718.8,999.1z"/>
			</g>
		</g>
	</g>
	<g>
		<g>
			<g>
				<path class="st2" d="M717.8,949.3c-0.4,0.3-1.4-0.5-3-1.6c-0.8-0.5-1.7-1.1-2.8-1.7c-1.1-0.6-2.3-1.1-3.6-1.6
					c-1.3-0.5-2.6-0.8-3.9-1c-1.2-0.2-2.3-0.4-3.3-0.4c-1.9-0.2-3.2-0.2-3.3-0.6c-0.1-0.4,1-1.2,3.1-1.7c1.1-0.2,2.4-0.3,3.8-0.3
					c1.4,0.1,3,0.4,4.6,0.9c1.6,0.6,3,1.3,4.2,2.1c1.2,0.8,2.1,1.7,2.8,2.6C717.8,947.7,718.1,949,717.8,949.3z"/>
			</g>
		</g>
	</g>
	<g>
		<g>
			<g>
				
					<ellipse transform="matrix(0.1208 -0.9927 0.9927 0.1208 -351.5634 1542.6832)" class="st2" cx="695.1" cy="969.8" rx="8.3" ry="1.6"/>
			</g>
		</g>
	</g>
	<g>
		<g>
			<g>
				<path class="st2" d="M719.2,935.4c-0.7,0.6-3.9-2.4-8.7-3.8c-1.2-0.4-2.4-0.6-3.4-0.8c-1.1-0.2-2.1-0.3-2.9-0.4
					c-0.4-0.1-0.9-0.1-1.2-0.1l-0.1,0l0,0l0,0l0,0l0,0c0-0.3,0-0.1,0-0.2l0,0c0,0,0,0.1,0,0.1c0,0,0,0-0.1,0c-0.1,0-0.2,0-0.2,0
					c-0.1,0-0.1,0-0.2,0c-0.2-0.1-0.3,0-0.3,0c0,0,0,0,0,0c0,0,0,0,0,0c0,0,0,0.1,0,0.1c0,0.1,0,0.1,0,0.2c-0.1,0.1-0.1,0.3-0.4,0.1
					c-0.1-0.1-0.2-0.4-0.2-0.6c0-0.2,0.1-0.4,0.2-0.5c0.1-0.2,0.2-0.3,0.4-0.5c0.1-0.1,0.2-0.2,0.4-0.2c0.2-0.1,0.3-0.1,0.4-0.1
					c0.4-0.1,0.7-0.3,1.2-0.4c1-0.2,2.1-0.4,3.4-0.3c1.3,0.1,2.7,0.3,4.1,0.7c2.9,0.9,5.1,2.6,6.4,4
					C719.1,934,719.5,935.2,719.2,935.4z"/>
			</g>
		</g>
	</g>
	<g>
		<g>
			<g>
				<path class="st2" d="M873.4,1012.8c0.2-0.1,0.7,0.8,1.4,2.4c0.7,1.7,1.6,4.1,2.3,7.3c0.3,1.6,0.5,3.4,0.5,5.4c0,1-0.1,2-0.3,3.1
					c-0.2,1-0.5,2.2-1.1,3.3c-0.6,1.2-1.8,2.2-3.2,2.7c-1.3,0.5-2.8,0.6-4.1,0.4c-2.8-0.5-4.9-2.1-6.9-3.6
					c-7.9-6.1-13.2-13.7-15.9-19.5c-2.8-5.9-3.4-9.9-3-10c0.5-0.2,1.9,3.5,5.1,8.9c3.2,5.3,8.4,12.3,15.9,18c1.9,1.5,3.7,2.7,5.4,3
					c0.9,0.2,1.8,0.1,2.5-0.1c0.7-0.3,1.3-0.7,1.7-1.3c0.4-0.7,0.7-1.5,0.9-2.4c0.2-0.9,0.3-1.8,0.4-2.6c0.2-1.7,0.1-3.4-0.1-4.9
					c-0.3-3.1-0.9-5.5-1.2-7.3C873.3,1013.9,873.2,1012.9,873.4,1012.8z"/>
			</g>
		</g>
	</g>
	<g>
		<g>
			<g>
				<path class="st2" d="M862.9,1011.8c-0.2,0.2-0.6,0-1.1,0c-0.3,0-0.6,0-1,0.1c-0.2,0-0.4,0.1-0.7,0.1c-0.1,0-0.3,0-0.4,0.1
					c-0.2,0-0.2,0-0.5,0.1c-0.9,0.1-2.1,0.1-3-0.3c-0.5-0.2-0.9-0.5-1.1-1c-0.2-0.5-0.2-1,0-1.6c0.1-0.6,0.5-1.2,0.9-1.9
					c0.2-0.4,0.4-0.8,0.6-1.3c0.3-0.5,0.6-1.1,0.8-1.7c0.1-0.2,0.3-0.4,0.3-0.6c-0.2,0-0.4-0.1-0.6-0.1c-0.1,0-0.2,0-0.4,0l-0.1,0
					l-0.3,0c-0.2,0-0.3,0-0.5,0.1c-0.7,0.1-1.3,0.3-1.8,0.4c-2.2,0.6-3.6,1.3-3.9,0.9c-0.3-0.3,0.7-1.7,3-3c0.6-0.3,1.3-0.6,2-0.9
					c0.2-0.1,0.4-0.1,0.6-0.2l0.3-0.1l0.5-0.1c0.6-0.1,1.3-0.2,2-0.3c1.4-0.1,2.6,0,4.1,0l0.1,0c0,0,0,0.1,0,0.1l-0.1,0.2l-0.2,0.5
					c-0.1,0.3-0.3,0.6-0.4,1c-0.1,0.3-0.3,0.6-0.4,1c-0.2,0.4-0.4,0.7-0.6,1.1c-0.4,0.7-0.7,1.3-1.1,2c-0.2,0.4-0.4,0.8-0.7,1.2
					c-0.1,0.2-0.2,0.4-0.3,0.6l-0.2,0.3l-0.1,0.1l0,0c-0.1,0.1-0.2,0.2-0.2,0.3c-0.1,0.1-0.2,0.2-0.2,0.4c0,0.1,0.1,0.2,0.2,0.3
					c0.2,0.1,0.5,0.2,0.7,0.2c0,0,0.3,0,0.4,0c0.2,0,0.3,0,0.4,0c0.3,0,0.6,0.1,0.9,0.1c0.6,0.1,1.1,0.3,1.4,0.6
					C863,1011.1,863,1011.7,862.9,1011.8z"/>
			</g>
		</g>
	</g>
	<g>
		<g>
			<g>
				<path class="st2" d="M691,1004.5c0.4,0.4-1.5,2.2-1.6,2.6c0.2,0.2,0.5,0.3,0.8,0.5c0-0.1,0.4,0.3,0.6,0.6
					c0.3,0.3,0.6,0.6,0.9,0.9c0.6,0.6,1,1.2,1.6,1.8l0.3,0.3l0.1,0.2l0.1,0.1c0,0-0.1,0-0.1,0.1l-0.7,0.4c-0.5,0.3-0.9,0.5-1.4,0.8
					c-0.9,0.5-1.9,0.9-2.8,1.1c-1.3,0.3-2.4,0.4-3.4,0.3c-1.9-0.1-3-0.8-2.9-1.2c0.1-0.5,1.2-0.7,2.7-1.1c0.8-0.2,1.7-0.5,2.6-0.9
					c0.2-0.1,0.3-0.2,0.4-0.3l0.2-0.1l0.1-0.1c0,0,0-0.1-0.1-0.1c-0.1-0.1-0.1-0.2-0.2-0.2l-0.1-0.1c-0.1-0.1,0,0-0.3-0.4
					c-1-1.1-2-2.2-2.7-3C689.6,1004.2,690.6,1004.1,691,1004.5z"/>
			</g>
		</g>
	</g>
	<g>
		<g>
			<g>
				<path class="st2" d="M754.4,763.9c0.4,0.2,0,1.5-0.9,3.4c-0.9,1.9-2.4,4.5-4.9,6.8c-2.4,2.4-5.3,3.8-7.5,4.2
					c-2.2,0.4-3.6,0-3.6-0.4c0-0.5,1.2-0.9,2.9-1.8c1.7-0.9,3.9-2.3,6-4.4c2.1-2,3.8-4.2,5.2-5.7C753,764.6,754,763.7,754.4,763.9z"
					/>
			</g>
		</g>
	</g>
	<g>
		<g>
			<g>
				<path class="st2" d="M845.5,590.1c0,0.1-0.3,0.1-0.8,0c-0.2,0-0.5-0.1-0.9-0.2c-0.3-0.1-0.7-0.3-1.2-0.4
					c-1.7-0.7-4.1-2.2-6.3-4.8c-2.2-2.5-4.3-6.1-5.7-10.3c-1.5-4.2-2.2-9-2.5-14c-0.2-5,0.1-9.9,0.8-14.2c0.7-4.3,1.6-8.1,2.6-11.2
					c2-6.2,3.8-9.8,4.2-9.7c0.5,0.2-0.6,4-2,10.3c-1.3,6.2-2.8,15-2.4,24.6c0.3,4.8,0.9,9.4,2.1,13.3c1.2,3.9,2.9,7.3,4.7,9.8
					c1.8,2.5,3.8,4.1,5.2,5.1c0.4,0.3,0.7,0.5,1,0.7c0.3,0.2,0.5,0.3,0.7,0.5C845.3,589.7,845.5,589.9,845.5,590.1z"/>
			</g>
		</g>
	</g>
	<g>
		<g>
			<g>
				<path class="st2" d="M880.1,574c0.4,0.2-0.1,1.9-1.7,4.2c-0.8,1.1-1.9,2.4-3.3,3.6c-1.4,1.2-3,2.4-4.9,3.4
					c-1.9,1-3.8,1.7-5.6,2.2c-1.8,0.4-3.4,0.7-4.8,0.7c-2.8,0.1-4.5-0.5-4.4-0.9c0-0.5,1.6-0.8,4.1-1.4c1.2-0.3,2.7-0.7,4.3-1.3
					c1.6-0.6,3.2-1.3,4.9-2.2c1.7-0.9,3.2-1.9,4.5-2.9c1.3-1,2.5-2,3.4-2.8C878.6,575,879.7,573.8,880.1,574z"/>
			</g>
		</g>
	</g>
	<g>
		<g>
			<g>
				<path class="st2" d="M888.1,556.8c-0.2,0-0.3-0.8,0.6-1.7c0.4-0.4,1.1-0.8,1.9-0.9c0.9-0.2,1.9,0,2.8,0.4c1,0.4,1.9,1.1,2.6,1.9
					c0.8,0.8,1.6,1.9,2,3.3c0.4,1.4,0.4,2.8,0.2,4.2c-0.2,1.4-0.7,2.7-1.3,4c-1.2,2.6-2.9,4.9-5.1,6.3c-0.5,0.4-1.1,0.7-1.7,0.9
					c-0.6,0.2-1.2,0.4-1.8,0.5c-1.2,0.2-2.3,0.2-3.3,0c-2-0.4-3.3-1.5-3.9-2.4c-0.6-0.9-0.7-1.5-0.5-1.6c0.2-0.1,0.6,0.3,1.4,0.7
					c0.7,0.5,1.9,0.9,3.4,1c0.7,0,1.5-0.1,2.3-0.3c0.8-0.2,1.6-0.7,2.4-1.3c1.5-1.2,2.9-3,3.9-5.3c1-2.2,1.6-4.4,1.2-6.1
					c-0.2-0.8-0.6-1.6-1.1-2.3c-0.5-0.7-1.1-1.3-1.7-1.7c-0.6-0.4-1.1-0.6-1.6-0.6c-0.5,0-1,0.1-1.4,0.2
					C888.7,556.5,888.3,556.9,888.1,556.8z"/>
			</g>
		</g>
	</g>
	<g>
		<g>
			<g>
				<path class="st2" d="M882.5,566.6c-0.4-0.1-0.7-0.8-0.5-1.7c0.1-1,0.7-2.2,1.7-3.2c1-1,2.3-1.6,3.2-1.7c1-0.1,1.6,0.1,1.7,0.6
					c0.1,0.4-0.2,1-0.7,1.5c-0.5,0.6-1.2,1.2-1.9,1.9c-0.7,0.7-1.4,1.4-2,1.9C883.5,566.3,883,566.7,882.5,566.6z"/>
			</g>
		</g>
	</g>
	<g>
		<g>
			<g>
				<path class="st2" d="M888.5,568.8c-0.4-0.2-0.6-0.7-0.9-1.1c-0.3-0.4-0.5-0.8-0.9-1.2c-0.4-0.5-0.7-0.8-1-1.2
					c-0.3-0.4-0.7-0.7-0.9-1.1c-0.1-0.4,0.2-1,1.2-1.2c0.5-0.1,1.1,0,1.6,0.2c0.6,0.3,1.1,0.7,1.5,1.2c0.4,0.6,0.7,1.2,0.8,1.8
					c0.1,0.6,0,1.2-0.2,1.7C889.6,568.9,888.9,569,888.5,568.8z"/>
			</g>
		</g>
	</g>
	<g>
		<g>
			<g>
				<path class="st2" d="M857.2,613.1c-0.4,0-1-2.1-0.6-5.6c0.3-3.5,1.7-8.2,4.2-12.8c2.6-4.6,5.7-8.2,8-10.7c2.4-2.4,4-3.7,4.4-3.5
					c0.3,0.3-0.7,2.1-2.6,4.9c-1.9,2.8-4.5,6.5-6.9,10.8c-2.4,4.3-4,8.5-4.8,11.7C857.9,611.1,857.6,613.1,857.2,613.1z"/>
			</g>
		</g>
	</g>
	<g>
		<g>
			<g>
				<path class="st2" d="M828.6,594.7c-0.4,0.8-3.5,0.2-6.6-1.9c-3.1-2.1-4.9-4.8-4.3-5.4c0.6-0.7,3.2,0.8,6.1,2.7
					C826.7,592,829,593.8,828.6,594.7z"/>
			</g>
		</g>
	</g>
	<g>
		<g>
			<g>
				<path class="st2" d="M856.6,610.3c0.1,0,0.2,0.2,0.2,0.5c0.1,0.4,0,0.9-0.1,1.5c-0.2,1.3-1.1,3.2-2.8,4.9
					c-1.8,1.7-4.5,3.2-7.8,3.4c-3.3,0.3-6.9-0.9-9.9-3.1c-3-2.2-5.1-5.1-6.5-7.9c-1.4-2.8-2.1-5.5-2.5-7.7c-0.8-4.5-0.7-7.3-0.3-7.3
					c0.5-0.1,1.2,2.6,2.5,6.7c0.7,2.1,1.6,4.5,2.9,6.9c1.3,2.4,3.2,4.8,5.7,6.6c2.5,1.8,5.3,2.8,7.9,2.8c2.5-0.1,4.8-1,6.4-2.2
					c1.6-1.2,2.6-2.5,3.1-3.6C856.1,610.9,856.3,610.2,856.6,610.3z"/>
			</g>
		</g>
	</g>
	<g>
		<g>
			<g>
				<path class="st2" d="M828.6,599.5c-0.1-0.5,0.8-1.1,1.9-2c0.6-0.5,1.3-1.1,2-1.7c0.7-0.7,1.4-1.5,2-2.4c0.6-0.9,1.2-1.8,1.6-2.7
					c0.4-0.9,0.8-1.7,1-2.4c0.5-1.4,0.8-2.4,1.3-2.5c0.4,0,1,1,1,2.8c0,0.9-0.1,2-0.5,3.2c-0.4,1.1-1,2.4-1.8,3.5
					c-0.8,1.1-1.8,2.1-2.8,2.8c-1,0.7-2,1.2-2.8,1.5C829.9,600.2,828.7,600,828.6,599.5z"/>
			</g>
		</g>
	</g>
	<g>
		<g>
			<g>
				<path class="st2" d="M860.9,560.4c0.4,0.2,0.1,2.1-1.9,4.3c-1,1.1-2.3,2.3-4.1,3.2c-1.8,0.9-4,1.5-6.3,1.5
					c-2.4-0.1-4.5-0.7-6.3-1.7c-1.8-1-3.1-2.2-4-3.3c-1.9-2.4-2.1-4.3-1.7-4.4c0.4-0.2,1.4,1.2,3.4,2.8c1.9,1.6,5.1,3.3,8.7,3.4
					c3.7,0,6.9-1.6,8.8-3.1C859.5,561.6,860.5,560.2,860.9,560.4z"/>
			</g>
		</g>
	</g>
	<g>
		<g>
			<g>
				<path class="st2" d="M849,551.5c-0.4-0.2-0.5-1-1-2c-0.4-1-1.4-2.2-2.6-2.5c-1.2-0.3-2.7,0.2-3.5,0.9c-0.9,0.6-1.4,1.3-1.8,1.3
					c-0.2,0-0.4-0.3-0.5-0.8c-0.1-0.5,0.1-1.2,0.5-2c0.4-0.8,1.2-1.5,2.2-2.1c1-0.6,2.5-0.8,3.9-0.5c1.5,0.4,2.5,1.3,3.2,2.3
					c0.7,1,0.9,2,0.9,2.9c0,0.9-0.2,1.6-0.5,1.9C849.5,551.4,849.2,551.5,849,551.5z"/>
			</g>
		</g>
	</g>
	<g>
		<g>
			<g>
				<path class="st2" d="M845.5,529.5c0.7,0.6,0,2.4-1.2,4.3c-1.2,1.8-2.6,3.2-3.4,2.8c-0.8-0.4-0.7-2.5,0.7-4.6
					C842.9,529.8,844.8,528.8,845.5,529.5z"/>
			</g>
		</g>
	</g>
	<g>
		<g>
			<g>
				
					<ellipse transform="matrix(0.5687 -0.8226 0.8226 0.5687 -71.7667 941.2845)" class="st2" cx="861.7" cy="539.1" rx="3.7" ry="1.6"/>
			</g>
		</g>
	</g>
	<g>
		<g>
			<g>
				<path class="st2" d="M843.5,519.5c0.2,0.4-1.5,1.7-4.5,3.6c-0.8,0.5-1.6,1-2.5,1.5c-0.9,0.5-1.9,1.1-3.2,1.5
					c-0.6,0.2-1.4,0.4-2.2,0.4c-0.8,0-1.8-0.2-2.6-0.7c-0.8-0.5-1.4-1.3-1.8-2.1c-0.4-0.8-0.6-1.7-0.6-2.6c0-1.8,0.7-3.3,1.4-4.5
					c0.7-1.2,1.5-2.1,2.3-3.1c1.6-1.8,3.3-3.3,5-4.2c1.6-0.9,3.1-1.3,4.1-1.5c1-0.1,1.6,0,1.7,0.2c0.1,0.5-2,1.1-4.5,3.1
					c-1.3,1-2.6,2.4-3.9,4.1c-1.3,1.7-2.8,3.9-2.8,5.6c0,0.9,0.4,1.7,0.9,2c0.5,0.3,1.3,0.4,2.2,0.2c0.9-0.2,1.9-0.6,2.8-1.1
					c0.9-0.4,1.8-0.8,2.6-1.1C841.2,519.7,843.3,519.1,843.5,519.5z"/>
			</g>
		</g>
	</g>
	<g>
		<g>
			<g>
				<path class="st2" d="M867.1,527.2c0.2,0.2-0.1,0.7-0.6,1.5c-0.6,0.8-1.5,2-3,3.2c-0.8,0.6-1.7,1.1-2.9,1.5
					c-1.2,0.4-2.6,0.4-4,0.1c-1.4-0.3-2.9-1.1-3.9-2.6c-0.5-0.7-0.8-1.6-0.9-2.5c0-0.2,0-0.4,0-0.7c0-0.2,0-0.5,0-0.4
					c0-0.1,0-0.2,0-0.2c0-0.2,0.1-0.4,0.2-0.5l0-0.1c0,0,0,0,0,0l-0.1,0l-0.2,0.1c-0.1,0-0.3,0.1-0.4,0.1l-0.3,0.1
					c-0.3,0.1-0.6,0.1-0.9,0.2c-0.6,0.1-1.2,0.1-1.9,0.1c-2.4-0.1-4.7-1.4-5.5-3.3c-0.8-1.8-0.3-3.5,0.3-4.3
					c0.7-0.8,1.3-0.9,1.4-0.7c0.1,0.2-0.2,0.6-0.3,1.3c-0.2,0.7-0.1,1.8,0.5,2.7c0.6,0.9,2,1.5,3.7,1.4c0.4,0,0.8-0.1,1.3-0.2
					c0.2-0.1,0.4-0.1,0.7-0.2l0.3-0.1l0.3-0.1c0.2-0.1,0.5-0.2,0.7-0.3c0.9-0.4,1.9-0.9,3-1.4c0.5-0.2,1-0.5,1.5-0.7l0.8-0.4
					l0.4-0.2l0.3-0.1c-0.6,1.5-1.2,3.1-1.9,4.7c-0.2,0.7-0.5,1.3-0.5,1.9c-0.1,0.4,0,0.4-0.1,0.6c0,0.1,0,0.2,0,0.3
					c0,0.4,0.2,0.8,0.4,1.1c0.4,0.6,1.2,1.2,2,1.4c0.9,0.3,1.8,0.3,2.5,0.2c0.8-0.1,1.6-0.5,2.3-0.8c1.4-0.7,2.5-1.6,3.4-2.2
					C866.4,527.2,866.9,527,867.1,527.2z"/>
			</g>
		</g>
	</g>
	<g>
		<g>
			<g>
				<path class="st2" d="M890.4,552.2c0.1,0.1-0.3,0.8-1.5,1.1c-0.6,0.1-1.4,0.2-2.2-0.1c-0.9-0.2-1.8-0.8-2.6-1.6
					c-0.8-0.8-1.4-1.9-1.9-3c-0.5-1.1-0.8-2.4-1.1-3.8c-0.5-2.7-0.5-5.9,0.4-9.1l3.1,0.9c-0.6,2.1-1.6,4.2-3.1,6.1
					c-1.4,1.7-3.4,3-5.7,3.3c-2.3,0.3-4.5-0.5-6-1.7c-3.1-2.5-4.2-5.8-4.5-8.5c-0.3-2.7,0.1-4.8,0.6-6.2c0.5-1.4,1-2.1,1.2-2
					c0.2,0.1,0.1,0.9,0.1,2.2c-0.1,1.4-0.1,3.3,0.5,5.6c0.3,1.2,0.7,2.3,1.3,3.4c0.7,1.1,1.6,2.2,2.7,3c1.1,0.8,2.4,1.2,3.8,1
					c1.3-0.2,2.6-1,3.7-2.3c1.2-1.4,2-3.1,2.6-4.8l3.1,0.9c-0.8,2.7-1,5.4-0.7,7.8c0.3,2.4,0.9,4.6,1.8,5.9c0.9,1.3,2.2,1.8,3.1,1.9
					C889.7,552.3,890.3,552.1,890.4,552.2z"/>
			</g>
		</g>
	</g>
	<g>
		<g>
			<g>
				<path class="st2" d="M876.8,497.1c-0.2,0.1-0.6-0.5-1.4-1.4c-0.7-0.9-1.9-2.2-3.6-3.3c-1.7-1.1-4-2-6.6-2.1
					c-1.3,0-2.8,0.1-3.5,0.7c-0.4,0.3-0.6,0.5-0.7,0.9c-0.1,0.4,0,1,0.2,1.5c0.1,0.1,0.1,0.3,0.2,0.4c0,0,0,0.1,0.1,0.1l0.1,0.1
					c0.1,0.2,0.2,0.3,0.4,0.4c0.5,0.6,1.2,1.1,2.1,1.6c1.7,1.1,3.5,2.2,5.1,3.3l-0.7,0.1l-0.2,0l-0.1,0l-0.2,0c-0.6,0-1.3,0-1.9,0
					c-1.2,0-2.4,0-3.6,0c-1.2,0-2.3,0-3.3,0c-0.4,0-0.8,0-1.2,0c-0.3,0-0.6,0-0.9,0c-2.3,0.1-4.3,0.4-5.9,0.8
					c-1.6,0.4-2.8,0.9-3.8,1.3c-0.2,0-0.4,0.3-0.4,0.4c0,0,0,0,0,0c0,0-0.1,0.1-0.1,0.1c0,0,0,0,0,0c0,0.1,0.1,0.1,0.1,0.1
					c0,0,0,0.1-0.1,0.2c-0.1,0-0.2,0.1-0.3,0c-0.1-0.1-0.2-0.2-0.2-0.3c-0.1-0.2-0.1-0.4-0.1-0.7c0-0.2,0.2-0.6,0.5-0.8
					c0.7-0.6,2-1.6,3.7-2.3c1.7-0.7,3.9-1.3,6.3-1.6c0.5-0.1,1.1-0.1,1.6-0.2c0.2,0,0.4-0.1,0.6-0.1c0.2,0,0.3,0,0.5-0.1l0.2,0
					c0,0-0.1-0.1-0.2-0.1c-0.2-0.1-0.4-0.2-0.5-0.4c-0.1-0.1-0.1-0.1-0.2-0.2l0-0.1l-0.1-0.1c0-0.1-0.1-0.1-0.1-0.2
					c-0.1-0.2-0.3-0.5-0.4-0.7c-0.4-1-0.6-2.2-0.3-3.4c0.1-0.6,0.4-1.2,0.8-1.7c0.4-0.5,0.8-0.9,1.3-1.2c1-0.6,1.9-0.8,2.8-0.9
					c0.9-0.1,1.7-0.1,2.6-0.1c3.3,0.3,6,1.7,7.8,3.2c1.8,1.6,2.9,3.3,3.3,4.5C877,496.3,877,497,876.8,497.1z"/>
			</g>
		</g>
	</g>
	<g>
		<g>
			<g>
				<path class="st2" d="M894.9,506.8c0-0.2,0.4-0.3,0.8-0.8c0.2-0.2,0.4-0.6,0.5-1c0.1-0.4,0.1-0.9,0-1.4c-0.3-1-1.3-2-2.9-2.7
					c-0.4-0.2-0.8-0.4-1.3-0.5c-0.3-0.1-1.3-0.5-2.2-0.6c-1-0.2-2.2-0.2-3.6-0.4c-1.3-0.1-2.7-0.2-4.1-0.3c1.6-0.9,3.8-2.1,5.8-3.2
					c0.5-0.3,1-0.6,1.4-0.9c0.2-0.2,0.4-0.3,0.6-0.5l0.2-0.2l0.1-0.1c0.1-0.2,0.3-0.3,0.4-0.5c0.1-0.2,0.2-0.3,0.3-0.5
					c0.2-0.5,0.3-1,0.2-1.5c-0.1-0.5-0.2-0.8-0.4-1c-0.4-0.5-1.8-0.6-3.1-0.8c-2.7-0.3-4.9-0.3-6.5,0.3c-1.7,0.6-2.7,1.8-3.1,2.6
					c-0.2,0.5-0.4,0.8-0.4,1.1c0,0.3,0,0.4-0.1,0.4c-0.1,0-0.4,0-0.6-0.3c-0.2-0.3-0.3-0.9-0.2-1.6c0.2-1.3,1.3-3.2,3.4-4.3
					c2.1-1.2,5-1.4,7.8-1.2c0.7,0,1.4,0.1,2.2,0.2c0.8,0.1,1.9,0.4,2.8,1.2c0.9,0.8,1.4,1.9,1.5,3c0.1,1.1,0,2.1-0.4,3.1
					c-0.1,0.4-0.3,0.7-0.6,1c-0.2,0.3-0.4,0.6-0.7,0.9l-0.2,0.2l-0.1,0.1c-0.1,0.1-0.1,0.1-0.1,0.1c-0.1,0-0.1,0.1-0.2,0.1
					c-0.1,0.1-0.2,0.2-0.4,0.2l-0.2,0.1l-0.1,0.1c0,0-0.1,0,0,0c0.3,0,0.5,0.1,0.8,0.2c0.3,0.1,0.5,0.2,0.8,0.4
					c0.5,0.2,1,0.5,1.5,0.8c0.9,0.6,1.8,1.2,2.4,2c0.7,0.8,1.1,1.7,1.2,2.7c0.1,1.9-1,3.1-1.8,3.6
					C895.4,507.2,894.8,506.9,894.9,506.8z"/>
			</g>
		</g>
	</g>
	<g>
		<g>
			<g>
				<path class="st2" d="M898.8,559.6c-0.4-0.3,1.2-3.2,3.4-8c2.1-4.8,4.7-11.7,5-19.6c0.2-3.9-0.2-7.7-1.1-11
					c-0.8-3.3-2.1-6.1-3.4-8.3c-2.6-4.5-5.7-5.8-5.5-6.3c0.1-0.2,1-0.2,2.4,0.5c1.4,0.7,3.3,2.1,5,4.4c1.7,2.3,3.3,5.3,4.3,8.8
					c1.1,3.6,1.6,7.7,1.4,11.9c-0.2,4.3-1.1,8.3-2.3,11.7c-1.2,3.5-2.6,6.4-4,8.8C901.4,557.4,899.1,559.8,898.8,559.6z"/>
			</g>
		</g>
	</g>
	<g>
		<g>
			<g>
				<path class="st2" d="M868.1,587.7c0.1-0.5,1.4-0.6,3.5-1c1-0.2,2.2-0.5,3.5-1c1.3-0.5,2.6-1,4-1.8c1.3-0.8,2.5-1.6,3.6-2.5
					c1-0.9,1.9-1.7,2.6-2.5c1.4-1.5,2.2-2.6,2.7-2.4c0.4,0.2,0.3,1.7-0.8,3.8c-0.5,1.1-1.4,2.2-2.4,3.4c-1.1,1.1-2.5,2.2-4,3.1
					c-1.6,0.9-3.2,1.5-4.8,1.8c-1.5,0.3-3,0.4-4.1,0.4C869.3,588.8,868,588.1,868.1,587.7z"/>
			</g>
		</g>
	</g>
	<g>
		<g>
			<g>
				<path class="st2" d="M784.7,523.7c-0.1,0.5-1.3,0.5-3,0.7c-0.9,0.1-1.9,0.3-2.9,0.5c-1.1,0.3-2.2,0.6-3.4,1.1
					c-1.2,0.5-2.2,1.1-3.2,1.7c-0.9,0.6-1.8,1.2-2.4,1.7c-1.3,1.1-2.2,1.9-2.6,1.6c-0.4-0.2-0.2-1.5,0.9-3.2
					c0.5-0.8,1.3-1.8,2.3-2.6c1-0.8,2.3-1.6,3.7-2.3c1.4-0.6,2.9-0.9,4.2-1.1c1.3-0.1,2.5-0.1,3.5,0.1
					C783.8,522.6,784.8,523.3,784.7,523.7z"/>
			</g>
		</g>
	</g>
	<g>
		<g>
			<g>
				<path class="st2" d="M788.1,537.5c-0.4,0.8-4.2-0.1-8.7,0.7c-2.3,0.4-4.1,1.1-5.3,1.8c-1.2,0.7-1.7,1.6-2.2,1.4
					c-0.2-0.1-0.4-0.4-0.3-0.9c0-0.6,0.3-1.4,0.9-2.2c1.2-1.6,3.7-3,6.4-3.4c2.7-0.5,5.3-0.1,7,0.6
					C787.4,536.3,788.2,537.1,788.1,537.5z"/>
			</g>
		</g>
	</g>
	<g>
		<g>
			<g>
				<path class="st2" d="M734.4,592.6c-0.1,0-0.4-0.3-0.8-1c-0.2-0.4-0.5-0.8-0.8-1.4c-0.3-0.6-0.6-1.2-0.9-1.9
					c-1.3-3-3.1-7.4-4.3-13.1c-1.3-5.7-2.1-12.7-2-20.4c0.1-7.7,1.2-16.2,3.2-24.9c2.1-8.7,4.8-16.7,7.7-23.8
					c2.8-7.1,5.9-13.3,7.9-18.6c2-5.3,3.1-9.8,3.4-12.9c0.4-3.1,0.3-4.9,0.6-5c0.2,0,0.7,1.7,0.7,5c0,3.3-0.7,8.1-2.5,13.6
					c-1.8,5.6-4.6,11.9-7.3,18.9c-2.7,7.1-5.3,15-7.3,23.5c-2,8.5-3.2,16.7-3.4,24.2c-0.2,7.5,0.3,14.3,1.3,19.9
					c0.9,5.6,2.3,10,3.2,13.1c0.2,0.8,0.5,1.4,0.7,2c0.2,0.6,0.4,1.1,0.5,1.5C734.4,592.1,734.5,592.6,734.4,592.6z"/>
			</g>
		</g>
	</g>
	<g>
		<g>
			<g>
				<path class="st2" d="M881.2,749.8c-0.2,0.4-1.2,0.3-2.6,0.3c-1.4,0-3.2,0.1-5.4,0.5c-1.1,0.2-2.2,0.3-3.1,0.5
					c-0.9,0.1-1.7,0.3-2.3,0.4c-0.6,0.2-1,0.4-1.3,0.6c-0.3,0.2-0.6,0.4-0.8,0.3c-0.2-0.1-0.4-0.4-0.3-0.9c0.1-0.6,0.5-1.3,1.3-1.9
					c0.7-0.6,1.7-1.1,2.8-1.4c1.1-0.3,2.1-0.6,3.3-0.7c2.4-0.4,4.8-0.2,6.4,0.5C880.7,748.4,881.4,749.4,881.2,749.8z"/>
			</g>
		</g>
	</g>
	<g>
		<g>
			<g>
				<path class="st2" d="M875.9,740.2c-0.3,0.9-2.9,0.7-5.9,0.9c-3,0.1-5.5,0.5-5.9-0.4c-0.2-0.4,0.3-1.1,1.3-1.7
					c1-0.6,2.6-1.1,4.4-1.2c1.8-0.1,3.5,0.3,4.5,0.8C875.5,739.1,876,739.8,875.9,740.2z"/>
			</g>
		</g>
	</g>
	<g>
		<g>
			<g>
				<path class="st2" d="M894.8,698.4c-1,0-1.1-15.7-4.1-34.8c-2.9-19.1-7.6-34.1-6.6-34.4c0.4-0.1,2.1,3.5,4.1,9.5
					c1,3,2.1,6.7,3.1,10.8c1,4.1,1.9,8.7,2.7,13.5c0.7,4.8,1.2,9.5,1.5,13.7c0.3,4.2,0.4,8,0.4,11.2
					C895.7,694.5,895.2,698.4,894.8,698.4z"/>
			</g>
		</g>
	</g>
	<g>
		<g>
			<g>
				<path class="st2" d="M690.3,926.6c-0.4,0-1-5.8-0.9-15.3c0-2.4,0.1-5,0.2-7.7c0.1-2.8,0.4-5.7,0.6-8.9
					c0.6-6.2,1.5-13.1,2.7-20.2c1.3-7.1,2.9-13.8,4.5-19.9c0.9-3,1.7-5.9,2.5-8.5c0.8-2.7,1.7-5.1,2.5-7.3c3.2-8.9,5.8-14.1,6.2-14
					c0.5,0.2-1.4,5.7-4,14.7c-0.7,2.2-1.4,4.7-2.1,7.4c-0.8,2.6-1.4,5.5-2.2,8.5c-1.5,6-2.9,12.7-4.2,19.7c-1.3,7-2.2,13.8-3,19.9
					c-0.3,3.1-0.7,6-0.9,8.7c-0.3,2.7-0.5,5.3-0.6,7.6C691,920.8,690.8,926.6,690.3,926.6z"/>
			</g>
		</g>
	</g>
	<g>
		<g>
			<g>
				<path class="st2" d="M679.2,892.7c-0.8-0.1,0.3-17.2,5-37.8c4.7-20.6,11.1-36.5,11.9-36.2c0.9,0.3-4.1,16.6-8.7,37
					C682.7,876,680.2,892.8,679.2,892.7z"/>
			</g>
		</g>
	</g>
</g>
<g id="Layer_5">
	<path class="st3" d="M810.2,1081.5c-2.8-7.4-7.7-24.2,0-37.1c11.5-19.3,48.8-26.3,86.7-5.4c-1.3-1.5-2.6-3.1-3.9-4.6
		c-1.2-2.8-8.8-20.7,0-39.5c9.4-20,31.5-24.8,41.8-27.1c33-7.3,60,9.8,66.6,13.9c13.4,8.5,22.1,18.7,27.1,25.5
		c3.9-4.6,7.9-7.1,10.8-8.5c15-7.1,32,2.2,42.6,7.7c6.5,3.5,16.5,9.8,26.3,20.9c5.8-2.8,15.5-6.7,27.9-7.7
		c10.7-0.9,28.5-2.4,39.5,9.3c1.3,1.4,9,9.6,7.7,20.9c-1.1,9.9-8.6,18.6-19.3,22.4c-33.3,3.1-60.2,5.9-77.4,7.7
		c-126,13.6-175,23.8-245.3,9.3C827.6,1086.4,816.8,1083.4,810.2,1081.5z"/>
	<path class="st3" d="M380.5,725.7c-18.3-5.8-29.7-19.8-28.8-32.8c1.1-16.2,21.1-24.5,26.9-26.9c30.2-12.5,61.2,5.7,66.8,9.2
		c-2.6-2.1-8.4-7.4-8.5-14.4c-0.2-12.1,16.3-19.7,20.3-21.6c26.8-12.5,58.7,6.6,64.9,10.5c-13.5-1.9-23.6-10.5-25.6-21
		c-1.9-10.5,5.1-18.8,5.9-19.7c11-12.5,31.7-9.6,43.9-7.9c4.9,0.7,27.5,4.2,50.5,22.3c14.1,11.1,22.7,23.3,27.5,31.5
		c6-1.7,21.6-5.1,38,2c5.5,2.4,15.6,6.8,21,17.7c3.4,6.8,3.5,13.4,3.3,17c0.9-0.3,6.7-2.4,11.8,0.7c6.8,4,7.9,14,4.6,19
		c-3.9,5.9-14.2,5.4-17.7,5.2C664,715.8,547.3,719.7,380.5,725.7z"/>
	<path class="st3" d="M889.7,387.7c-4.5-4.2-5.5-10.8-2.5-15.7c2.4-3.9,7.1-6.1,11.9-5.6c-0.8-5-1.8-15.9,4.4-25.7
		c11.3-17.8,40.1-16.4,54.5-13.2c4.2,0.9,7.6,2.2,10,3.1c-2.5-4.8-5.4-12.5-3.1-20.4c5.9-20.1,41-22.5,45.7-22.9
		c17.3-1.2,31.9,3.8,42,8.8c2.5-3.9,7-9.7,14.4-13.2c13.4-6.4,27.3-1.2,40.7,3.8c9.8,3.6,25.3,10.9,41.3,25.7
		c2.8-1.4,7.3-3.4,13.2-4.4c25.6-4.4,45.3,15.2,46.4,16.3c2.9,3,6.4,7.3,9.4,13.2c0.8-0.5,8.5-4.9,16.9-1.3
		c5.8,2.5,11,8.6,10.6,15.7c-0.4,8.1-8.1,15.4-18.2,15.7c-22.7,2-153.4,13.5-202.3,14.4c-26.5,0.5-37.6,0.6-37.6,0.6
		c-29.8,0.3-36.8,0-51.4,0.6C925,383.8,909,384.9,889.7,387.7z"/>
	<g>
		<g>
			<g>
				<path class="st2" d="M914.9,1017.8c-0.2,0.6-7.7-1.9-20.2-3.6c-6.2-0.7-13.7-1.3-22-1c-8.3,0.3-17.4,1.5-26.7,3.8
					c-18.6,4.6-34.2,13.1-44,20.7c-4.8,3.9-7.6,8.2-8.6,11.5c-0.3,0.8-0.4,1.6-0.5,2.2c-0.1,0.7-0.2,1.2-0.2,1.7
					c0,0.9-0.1,1.4-0.2,1.4c-0.1,0-0.3-0.5-0.5-1.4c-0.1-0.5-0.1-1.1-0.1-1.8c0.1-0.7,0.1-1.5,0.3-2.4c0.3-1.8,1.2-4,2.6-6.2
					c1.4-2.2,3.3-4.5,5.7-6.7c1.2-1.1,2.5-2.2,3.9-3.2c1.4-1.1,3-2,4.5-3.1c0.8-0.5,1.6-1.1,2.4-1.6c0.8-0.5,1.7-1,2.6-1.5
					c1.8-1,3.5-2.1,5.4-3c7.6-3.9,16.3-7.3,25.9-9.7c9.5-2.4,18.9-3.5,27.4-3.7c8.5-0.2,16.1,0.6,22.5,1.7
					c6.3,1.1,11.3,2.5,14.7,3.7C913.2,1016.8,915,1017.6,914.9,1017.8z"/>
			</g>
		</g>
	</g>
	<g>
		<g>
			<g>
				<path class="st2" d="M1041.5,1023.1c-0.2,0.1-1.9-2.4-4.9-7c-3.3-4.4-7.8-10.9-14.7-17.9c-6.8-7-15.7-14.6-26.7-21.4l-1-0.7
					l-1.1-0.6c-0.7-0.4-1.4-0.8-2.1-1.2c-1.4-0.8-2.9-1.6-4.4-2.4c-1.5-0.7-3.1-1.5-4.6-2.2c-0.8-0.4-1.6-0.8-2.3-1.1
					c-0.8-0.4-1.6-0.7-2.4-1c-1.6-0.7-3.3-1.3-4.9-2c-1.6-0.7-3.4-1.2-5.1-1.8c-3.4-1.3-7-2.1-10.5-3.1c-0.9-0.3-1.8-0.5-2.7-0.6
					c-0.9-0.2-1.8-0.4-2.7-0.5c-0.9-0.2-1.8-0.4-2.7-0.5l-1.3-0.3l-1.3-0.2c-3.6-0.5-7.1-1-10.6-1.2c-1.7-0.1-3.5-0.3-5.2-0.3
					c-1.7,0-3.4,0-5.1,0c-3.4,0.1-6.6,0.3-9.8,0.8c-6.3,0.9-12.2,2.6-17.3,5c-2.5,1.2-4.9,2.6-6.9,4.2c-1.1,0.7-2,1.6-2.9,2.4
					c-0.9,0.9-1.8,1.7-2.5,2.7c-3.2,3.6-5.2,7.5-6.6,11c-1.3,3.6-1.8,6.9-1.9,9.6c0,0.3,0,0.7,0,1c0,0.3,0,0.6,0,0.9
					c0,0.6,0.1,1.2,0.1,1.7c0.2,1,0.3,1.9,0.4,2.6c0.3,1.4,0.5,2.2,0.3,2.2s-0.4-0.7-1-2c-0.2-0.7-0.4-1.6-0.7-2.6
					c-0.1-0.5-0.2-1.1-0.3-1.7c0-0.3-0.1-0.6-0.1-1c0-0.3,0-0.7,0-1c-0.1-2.8,0.2-6.3,1.4-10.2c1.2-3.8,3.3-8,6.5-11.9
					c0.8-1,1.7-1.9,2.6-2.9c1-0.9,1.9-1.9,3.1-2.7c2.2-1.7,4.6-3.3,7.3-4.6c5.3-2.7,11.5-4.6,18-5.6c3.3-0.5,6.7-0.8,10.1-0.9
					c1.7-0.1,3.5-0.1,5.2,0c1.8,0,3.5,0.2,5.3,0.3c3.6,0.1,7.2,0.7,10.9,1.1l1.4,0.2l1.4,0.3c0.9,0.2,1.8,0.4,2.8,0.5
					c0.9,0.2,1.8,0.4,2.8,0.6c0.9,0.2,1.9,0.4,2.8,0.6c3.7,1,7.3,1.9,10.8,3.2c1.7,0.6,3.5,1.1,5.2,1.8c1.7,0.7,3.4,1.4,5,2.1
					c0.8,0.4,1.7,0.7,2.5,1.1c0.8,0.4,1.6,0.8,2.4,1.2c1.6,0.8,3.1,1.6,4.7,2.3c1.5,0.8,3,1.7,4.4,2.5c0.7,0.4,1.5,0.8,2.2,1.3
					l1.1,0.6l1,0.7c11.1,7.1,20,15,26.7,22.4c6.8,7.3,11.1,14.1,14.1,18.8C1040.4,1020.3,1041.7,1023,1041.5,1023.1z"/>
			</g>
		</g>
	</g>
	<g>
		<g>
			<g>
				<path class="st2" d="M1120.4,1050.1c-0.2,0.1-1-1.4-2.3-4c-1.3-2.6-3.3-6.4-6.1-10.8c-2.8-4.4-6.6-9.4-11.4-14.3
					c-4.8-4.9-10.8-9.7-17.7-13.4c-7-3.8-14.2-6.2-20.9-7.4c-3.4-0.6-6.6-0.9-9.7-1.1c-3.1-0.1-5.9,0-8.5,0.3
					c-5.2,0.4-9.2,1.8-11.5,3.4c-2.4,1.6-3.2,3.1-3.4,2.9c-0.1-0.1,0-0.5,0.4-1.2c0.4-0.7,1.1-1.7,2.3-2.7c1.2-1,2.8-2,4.8-2.9
					c2-0.8,4.5-1.5,7.1-1.8c2.7-0.5,5.6-0.7,8.8-0.7c3.2,0,6.6,0.2,10.1,0.8c7.1,1.1,14.7,3.6,22,7.5c7.3,3.9,13.5,9,18.4,14.2
					c4.9,5.2,8.6,10.5,11.2,15.2c2.7,4.7,4.3,8.7,5.3,11.5C1120.2,1048.4,1120.5,1050.1,1120.4,1050.1z"/>
			</g>
		</g>
	</g>
	<g>
		<g>
			<g>
				<path class="st2" d="M1169.3,1070.3c-0.2-0.2,0.9-1.4,2.9-3.5c2-2.2,5-5.2,7.7-9.5c1.3-2.1,2.5-4.7,3.2-7.5c0.7-2.8,0.9-5.9,0-9
					c-0.9-3-2.7-6-5.2-8.5c-1.3-1.3-2.7-2.5-4.2-3.6c-0.7-0.6-1.6-1-2.4-1.6l-1.2-0.8c-0.4-0.2-0.8-0.5-1.3-0.7
					c-6.8-3.7-14.2-5.4-20.9-6c-6.7-0.5-12.9,0-18,1c-2.5,0.5-4.8,1-6.8,1.6c-1,0.3-1.9,0.6-2.8,0.8c-0.8,0.3-1.6,0.5-2.2,0.8
					c-2.6,1.1-3.2,2.7-3.4,2.6c-0.1,0-0.1-0.5,0.3-1.2c0.4-0.7,1.2-1.7,2.5-2.5c0.7-0.4,1.4-0.8,2.3-1.1c0.8-0.3,1.8-0.7,2.7-1.1
					c2-0.7,4.3-1.4,6.9-2.1c5.2-1.3,11.6-2.1,18.7-1.7c7.1,0.5,14.9,2.2,22.2,6.2c0.5,0.2,0.9,0.5,1.4,0.7l1.3,0.8
					c0.9,0.6,1.7,1.1,2.5,1.7c1.6,1.2,3.2,2.5,4.5,4c2.8,2.9,4.9,6.3,5.8,10c0.9,3.7,0.6,7.4-0.3,10.5c-0.9,3.1-2.3,5.8-3.9,8
					c-3.1,4.4-6.5,7.2-8.7,9.1C1170.8,1069.5,1169.4,1070.4,1169.3,1070.3z"/>
			</g>
		</g>
	</g>
	<g>
		<g>
			<g>
				<path class="st2" d="M1161,1076.3c0,0.1-1.3,0.3-3.8,0.5c-2.5,0.2-6.1,0.6-10.8,0.9c-9.4,0.7-23.1,1.7-39.9,2.8
					c-33.7,2.2-80.3,5-131.8,7.9c-25.7,1.4-50.3,2.8-72.6,3.9c-22.3,1-42.6,1.3-59.5-0.7c-8.5-1-16-2.5-22.5-4.3
					c-1.6-0.5-3.2-0.9-4.7-1.5c-1.5-0.5-2.9-1-4.3-1.6c-2.7-1.2-5-2.6-6.9-4.1c-3.8-3-5.8-6.5-6.1-9.1c0-0.3-0.1-0.6-0.1-0.9
					c0-0.3,0-0.5,0-0.8c0-0.5,0-0.9,0.1-1.2c0.1-0.6,0.2-0.9,0.3-0.9c0.2,0-0.2,1.3,0.3,3.7c0.4,2.4,2.5,5.5,6.2,8.2
					c1.9,1.3,4.1,2.6,6.7,3.7c1.3,0.5,2.7,1,4.2,1.4c1.5,0.5,3,0.9,4.6,1.3c6.5,1.7,13.9,3,22.3,3.8c16.7,1.6,36.8,1.2,59.1,0
					c22.3-1.3,46.8-2.7,72.6-4.2c51.5-2.9,98.1-5.4,131.9-7c16.9-0.8,30.5-1.4,40-1.7c4.7-0.2,8.4-0.3,10.9-0.3
					C1159.7,1076.1,1161,1076.2,1161,1076.3z"/>
			</g>
		</g>
	</g>
	<g>
		<g>
			<g>
				<path class="st2" d="M938.6,1098.5c0,0.2-1.9,0.7-5.4,1.4c-1.7,0.4-3.9,0.8-6.4,1.2c-2.5,0.4-5.4,0.9-8.5,1.2
					c-1.6,0.2-3.2,0.4-5,0.6c-1.7,0.2-3.5,0.4-5.4,0.6c-3.7,0.4-7.7,0.7-12,1c-8.4,0.5-17.7,0.8-27.5,0.7c-9.8-0.2-19-0.7-27.5-1.4
					c-4.2-0.4-8.2-0.8-11.9-1.3c-1.9-0.2-3.7-0.5-5.4-0.7c-1.7-0.3-3.4-0.5-5-0.8c-3.2-0.5-6-1-8.5-1.5c-2.5-0.5-4.6-0.9-6.4-1.3
					c-3.5-0.8-5.4-1.4-5.3-1.6c0.1-0.5,7.9,0.7,20.5,2.1c1.6,0.2,3.2,0.4,5,0.6c1.7,0.2,3.5,0.3,5.4,0.5c3.7,0.4,7.7,0.7,11.9,1
					c8.4,0.6,17.6,1,27.3,1.2c9.7,0.1,18.9-0.1,27.3-0.4c4.2-0.2,8.2-0.4,11.9-0.7c1.9-0.1,3.7-0.2,5.4-0.4c1.7-0.1,3.4-0.3,5-0.4
					C930.7,1099,938.5,1098,938.6,1098.5z"/>
			</g>
		</g>
	</g>
	<g>
		<g>
			<g>
				<path class="st2" d="M829.8,1004.4c0.2,0.4-3.8,2.2-10,5.3c-3.1,1.5-6.8,3.4-10.8,5.6c-4,2.2-8.4,4.7-12.6,7.7
					c-4.2,3-7.6,6.5-10.1,10.2c-2.5,3.6-4.3,7.3-5.4,10.5c-1.2,3.2-1.7,5.9-2.1,7.8c-0.4,1.9-0.6,3-0.8,3c-0.2,0-0.4-1.1-0.4-3.1
					c0-2,0.2-4.9,1.2-8.3c0.9-3.5,2.5-7.5,5.1-11.5c2.6-4,6.2-8,10.7-11.2c4.4-3.2,9-5.6,13.1-7.7c4.1-2.1,8-3.8,11.2-5.1
					C825.4,1005,829.6,1004,829.8,1004.4z"/>
			</g>
		</g>
	</g>
	<g>
		<g>
			<g>
				<path class="st2" d="M476.9,687.8c-0.1,0.2-2.7-1-7.2-3.2c-4.6-2.2-11.1-5.4-19.5-8.8c-8.3-3.4-18.4-7.1-30-9.6
					c-11.5-2.4-24.7-3.6-38.1-1.7c-6.7,1-13.2,2.6-19.1,4.9c-5.9,2.3-11.4,5.3-15.4,9.3c-2,2-3.6,4.3-4.7,6.7
					c-1.1,2.4-1.7,5-1.9,7.5c-0.4,5,0.7,9.8,2.6,13.7c1.9,3.9,4.5,7,7.1,9.3c2.6,2.3,5.2,4,7.4,5.2c4.4,2.4,7.1,3.1,7,3.4
					c0,0.2-2.9-0.2-7.6-2.3c-2.3-1.1-5.1-2.6-8-4.9c-2.8-2.3-5.8-5.5-8-9.7c-2.2-4.2-3.6-9.3-3.3-14.9c0.2-2.8,0.8-5.7,2-8.5
					c1.2-2.8,3-5.3,5.2-7.6c4.4-4.5,10.2-7.7,16.4-10.1c6.2-2.5,12.9-4.2,19.8-5.2c13.9-1.9,27.4-0.6,39.2,2
					c11.8,2.7,22,6.6,30.3,10.4c8.3,3.7,14.7,7.3,19.1,9.8C474.6,686,477,687.6,476.9,687.8z"/>
			</g>
		</g>
	</g>
	<g>
		<g>
			<g>
				<path class="st2" d="M542.8,663.4c-0.1,0.2-1.8-1-4.7-3.1c-1.5-1-3.3-2.2-5.4-3.7c-1.1-0.7-2.2-1.4-3.5-2.1
					c-0.6-0.4-1.2-0.8-1.9-1.2c-0.7-0.4-1.4-0.7-2.1-1.1c-5.6-3.1-12.5-6.3-20.6-8.8c-8-2.5-17.2-4.4-26.9-4.9
					c-9.7-0.6-19,0.1-27.2,1.8c-4.1,0.8-8,1.9-11.4,3.3c-3.4,1.4-6.3,3.2-8.7,5.2c-2.3,2-4,4.3-5.1,6.5c-1.1,2.2-1.7,4.2-2,6
					c-0.5,3.5,0,5.4-0.3,5.5c-0.1,0.1-1.2-1.9-1-5.6c0.1-1.9,0.6-4.2,1.6-6.6c1.1-2.4,2.8-5.1,5.2-7.4c2.4-2.3,5.6-4.4,9.1-6
					c3.6-1.6,7.6-2.8,11.8-3.7c8.5-1.9,18.1-2.7,28.1-2.1c10,0.6,19.4,2.6,27.6,5.3c8.2,2.7,15.2,6.3,20.8,9.7
					c0.7,0.4,1.4,0.8,2,1.2c0.6,0.4,1.3,0.9,1.9,1.3c1.2,0.8,2.4,1.6,3.4,2.4c2,1.6,3.8,3,5.2,4.2
					C541.6,661.8,543,663.3,542.8,663.4z"/>
			</g>
		</g>
	</g>
	<g>
		<g>
			<g>
				<path class="st2" d="M635.7,686.6c-0.1,0-0.4-0.7-0.9-2c-0.5-1.3-1.1-3.3-2.1-5.8c-1.9-5-4.8-12.2-9.4-20.6
					c-1.1-2.1-2.5-4.2-3.8-6.4c-1.5-2.2-2.9-4.5-4.6-6.7c-1.6-2.3-3.5-4.5-5.3-6.8c-1-1.1-2-2.2-3-3.4c-1-1.1-2.1-2.2-3.2-3.4
					c-8.8-8.9-20.2-17.2-33.7-22.4c-13.4-5.3-27.4-7.1-39.9-6.1c-6.2,0.5-12.1,1.6-17.4,3.2c-1.3,0.4-2.6,0.9-3.9,1.3
					c-0.6,0.2-1.3,0.4-1.9,0.7c-0.6,0.3-1.2,0.5-1.8,0.8c-1.2,0.5-2.4,1-3.5,1.5c-1.1,0.5-2.2,1.1-3.2,1.7
					c-4.1,2.3-7.6,4.9-10.2,7.5c-2.7,2.6-4.6,5.2-5.9,7.5c-0.6,1.2-1.2,2.2-1.5,3.1c-0.3,0.9-0.4,1.8-0.3,2.4
					c0.2,1.3,0.9,1.7,0.8,1.8c0,0-0.2,0-0.5-0.2c-0.3-0.2-0.7-0.7-0.9-1.5c-0.2-0.7-0.2-1.7,0-2.8c0.2-1.1,0.8-2.2,1.3-3.5
					c1.2-2.5,3-5.4,5.7-8.2c2.7-2.9,6.2-5.7,10.4-8.2c1-0.6,2.1-1.3,3.3-1.8c1.1-0.6,2.3-1.1,3.5-1.7c0.6-0.3,1.2-0.6,1.8-0.8
					c0.6-0.3,1.3-0.5,1.9-0.8c1.3-0.5,2.6-1,4-1.5c5.5-1.8,11.5-3,18-3.6c12.9-1.2,27.4,0.6,41.3,6.1c7,2.7,13.4,6.2,19.2,10.2
					c5.8,4,10.9,8.5,15.4,13.1c1.1,1.2,2.2,2.3,3.3,3.5c1,1.2,2,2.4,3,3.5c1.9,2.4,3.7,4.7,5.3,7.1c1.7,2.3,3.1,4.7,4.5,6.9
					c1.3,2.3,2.6,4.5,3.7,6.7c4.5,8.6,7.1,16.1,8.6,21.3c0.8,2.6,1.2,4.6,1.5,6C635.7,685.9,635.8,686.6,635.7,686.6z"/>
			</g>
		</g>
	</g>
	<g>
		<g>
			<g>
				<path class="st2" d="M684.1,704.6c-0.2,0-0.2-1.4-0.1-3.8c0.1-2.4,0.3-5.9,0.2-10.2c-0.2-4.3-0.8-9.4-3-14.5
					c-1.1-2.5-2.5-5.1-4.4-7.3c-1.9-2.3-4.2-4.2-7-5.8c-2.7-1.6-5.7-2.7-8.6-3.7c-2.9-0.9-5.8-1.7-8.6-2.2c-5.6-1.1-10.7-1.4-15-1.4
					c-4.3,0-7.8,0.4-10.2,0.6c-1.1,0.2-1.9,0.5-2.3,0.9c-0.4,0.4-0.5,0.7-0.6,0.7c-0.1,0-0.2-0.4,0.1-1.1c0.4-0.7,1.3-1.3,2.6-1.7
					c2.4-0.7,5.9-1.4,10.4-1.7c4.4-0.3,9.8-0.2,15.6,0.7c2.9,0.5,5.9,1.2,9,2.1c3.1,1,6.2,2.2,9.3,3.9c3,1.7,5.8,4,7.9,6.6
					c2.1,2.6,3.6,5.4,4.7,8.3c2.2,5.7,2.6,11.1,2.5,15.6c-0.1,4.5-0.7,8-1.2,10.4C684.8,703.3,684.4,704.6,684.1,704.6z"/>
			</g>
		</g>
	</g>
	<g>
		<g>
			<g>
				<path class="st2" d="M687.6,716.6c0,0.1-1.1,0.3-3.2,0.4c-2.1,0.2-5.2,0.4-9.2,0.6c-8,0.4-19.6,0.9-33.9,1.5
					c-28.6,1.1-68.2,2.4-111.9,3.6c-21.9,0.6-42.7,1.1-61.6,1.6c-18.9,0.4-36,0.8-50.3,1.6c-14.3,0.7-25.8,1.8-33.8,2.7
					c-7.9,0.9-12.3,1.5-12.4,1.3c0-0.1,1.1-0.4,3.1-0.9c2.1-0.5,5.1-1,9.1-1.7c7.9-1.3,19.5-2.8,33.8-3.8
					c14.3-1.1,31.4-1.7,50.3-2.3c18.9-0.6,39.8-1.2,61.6-1.8c43.7-1.2,83.3-2.1,112-2.6c14.3-0.3,25.9-0.4,33.9-0.4c4,0,7.1,0,9.2,0
					C686.5,716.4,687.6,716.5,687.6,716.6z"/>
			</g>
		</g>
	</g>
	<g>
		<g>
			<g>
				<path class="st2" d="M700.8,712.1c-0.4-0.3,0.5-1.7,1.1-4.1c0.6-2.3,0.8-5.8-0.6-9.1c-1.4-3.2-4.1-5.4-6.3-6.6
					c-2.2-1.2-3.8-1.5-3.8-2c0-0.4,1.8-0.9,4.6-0.2c1.4,0.4,3,1.1,4.5,2.4c1.5,1.2,3,2.9,3.9,5c0.9,2.1,1.2,4.3,1.1,6.3
					c-0.1,2-0.7,3.6-1.3,4.9C702.7,711.4,701.1,712.4,700.8,712.1z"/>
			</g>
		</g>
	</g>
	<g>
		<g>
			<g>
				<path class="st2" d="M385.9,653.4c-0.1,0.5-5-0.1-12.8,0.4c-2,0.1-4.1,0.4-6.4,0.7c-2.3,0.4-4.7,0.8-7.1,1.6
					c-4.9,1.4-10.2,3.6-15,6.9c-2.4,1.7-4.5,3.6-6.4,5.6c-1.9,2-3.4,4.2-4.8,6.3c-2.6,4.3-4.2,8.7-4.9,12.5c-0.7,3.8-0.7,7-0.5,9.1
					c0,0.3,0,0.5,0,0.8c0,0.2,0.1,0.5,0.1,0.7c0,0.4,0.1,0.8,0.1,1.1c0,0.6,0,0.9-0.1,1c-0.1,0-0.3-0.2-0.5-0.8
					c-0.1-0.3-0.3-0.6-0.4-1c-0.1-0.2-0.1-0.4-0.2-0.7c-0.1-0.2-0.1-0.5-0.2-0.8c-0.6-2.2-0.9-5.6-0.5-9.7c0.4-4.1,1.9-8.9,4.6-13.7
					c1.4-2.4,3-4.8,5-7c2-2.2,4.3-4.3,6.9-6.1c5.2-3.6,10.8-5.9,16.1-7.2c2.6-0.7,5.2-1,7.5-1.3c2.4-0.2,4.6-0.3,6.6-0.3
					c4.1,0,7.3,0.4,9.5,0.8C384.8,652.8,386,653.2,385.9,653.4z"/>
			</g>
		</g>
	</g>
	<g>
		<g>
			<g>
				<path class="st2" d="M453.2,748.4c-0.1,0.5-6,0-15.5-0.9c-9.5-0.9-22.7-2.3-37.2-3.5c-7.2-0.6-14.1-0.9-20.4-0.7
					c-6.3,0.1-11.9,0.7-16.5,1.6c-4.6,0.8-8.3,1.9-10.9,2.7c-2.5,0.8-4,1.3-4.1,1c-0.1-0.2,1.2-1,3.6-2.2c2.5-1.1,6.1-2.6,10.9-3.8
					c4.7-1.2,10.5-2,16.9-2.3c6.4-0.3,13.4-0.1,20.8,0.5c14.6,1.2,27.8,2.9,37.2,4.4C447.4,746.7,453.2,748,453.2,748.4z"/>
			</g>
		</g>
	</g>
	<g>
		<g>
			<g>
				<path class="st2" d="M897.8,365.6c0.1,0.2-0.5,0.7-1.6,1.3c-1.1,0.6-2.8,1.5-4.7,2.6c-1.9,1.1-4.1,2.7-5.6,4.8
					c-1.6,2.1-2.6,5.2-1.9,8c0.3,1.4,1.1,2.5,2.1,3.4c1,0.9,2.4,1.5,3.7,2c2.7,0.9,5.4,1.3,7.6,1.5c4.4,0.4,7.3,0.1,7.4,0.6
					c0.1,0.4-2.7,1.5-7.5,1.7c-2.4,0-5.2-0.1-8.4-1c-1.6-0.5-3.3-1.1-4.8-2.4c-1.5-1.2-2.8-3-3.3-5.1c-0.5-2.1-0.3-4.1,0.2-5.9
					c0.5-1.8,1.4-3.4,2.5-4.7c2.2-2.7,4.8-4.1,7-5.1c2.2-1,4-1.5,5.3-1.7C897,365.5,897.7,365.4,897.8,365.6z"/>
			</g>
		</g>
	</g>
	<g>
		<g>
			<g>
				<path class="st2" d="M1000.8,350.9c-0.1,0.2-2-1-5.4-3.2c-3.4-2.2-8.2-5.4-14.4-8.8c-6.2-3.5-13.8-7.3-22.6-10.7
					c-8.7-3.4-18.8-6.3-29.5-6.4c-2.7,0-5.3,0.1-7.8,0.5c-0.6,0.1-1.3,0.2-1.9,0.3c-0.6,0.1-1.2,0.3-1.9,0.4c-1.2,0.3-2.4,0.6-3.6,1
					c-2.4,0.7-4.6,1.8-6.7,2.9c-1,0.6-2.1,1.1-3.1,1.8c-0.5,0.3-1,0.6-1.5,1c-0.5,0.4-0.9,0.7-1.4,1c-3.6,2.8-6.5,6.1-8.6,9.6
					c-2.1,3.5-3.2,7.1-3.8,10.5c-0.5,3.4-0.1,6.5,1,9c1,2.5,2.8,4.1,4.4,5.1c1.6,1,3.1,1.3,4.1,1.4c1,0.1,1.6,0.1,1.6,0.2
					c0,0.1-0.5,0.4-1.6,0.5c-1.1,0.1-2.8,0-4.7-1c-1.9-0.9-4.1-2.7-5.4-5.4c-1.4-2.7-1.9-6.3-1.6-10c0.4-3.7,1.5-7.7,3.7-11.6
					c2.1-3.9,5.2-7.5,9-10.6c0.5-0.4,1-0.8,1.5-1.2c0.5-0.4,1-0.7,1.5-1.1c1-0.7,2.2-1.3,3.3-2c2.3-1.2,4.7-2.4,7.2-3.2
					c1.3-0.5,2.6-0.8,3.9-1.2c0.7-0.1,1.3-0.3,2-0.4c0.7-0.2,1.4-0.3,2-0.3c2.7-0.4,5.5-0.6,8.3-0.6c5.6,0,11.1,0.9,16.2,2.1
					c5.1,1.3,9.9,2.9,14.4,4.7c8.9,3.7,16.5,7.8,22.7,11.5c6.2,3.8,10.9,7.3,14,9.8C999.4,349.2,1000.9,350.8,1000.8,350.9z"/>
			</g>
		</g>
	</g>
	<g>
		<g>
			<g>
				<path class="st2" d="M1096.4,335.9c-0.1,0.1-0.6-0.4-1.4-1.3c-0.8-0.9-2.1-2.3-3.7-4c-3.2-3.5-7.9-8.5-14.3-14.1
					c-3.2-2.8-6.8-5.8-10.7-8.7c-4-3-8.4-6-13.1-8.9c-4.8-2.9-9.9-5.7-15.4-8.3c-5.5-2.6-11.3-5-17.4-6.8c-6.1-1.8-12.3-3-18.3-3.2
					c-6-0.2-11.7,0.6-16.9,2.3c-5.2,1.7-9.8,4.2-13.5,7.3c-3.7,3.1-6.5,6.7-8.2,10.4c-1.8,3.7-2.7,7.4-3,10.7
					c-0.3,3.3-0.1,6.1,0.4,8.4c0.9,4.6,2.5,6.8,2.2,7c-0.1,0.1-0.5-0.5-1.2-1.5c-0.3-0.5-0.7-1.3-1.1-2.1c-0.2-0.4-0.4-0.9-0.6-1.4
					c-0.2-0.5-0.4-1-0.5-1.6c-0.7-2.3-1.2-5.3-1-8.8c0.2-3.5,0.9-7.5,2.7-11.5c0.9-2,2.1-4,3.5-6c1.4-2,3.2-3.8,5.1-5.5
					c3.9-3.5,8.8-6.2,14.3-8.1c5.5-1.9,11.6-2.8,18-2.6c6.3,0.2,12.8,1.3,19.1,3.2c6.3,1.9,12.3,4.4,17.9,7.1
					c5.6,2.7,10.8,5.6,15.6,8.6c4.8,3,9.2,6.2,13.2,9.3c4,3.1,7.5,6.2,10.6,9.2c6.2,5.9,10.8,11.2,13.7,15c1.5,1.9,2.6,3.4,3.3,4.5
					C1096.1,335.3,1096.5,335.8,1096.4,335.9z"/>
			</g>
		</g>
	</g>
	<g>
		<g>
			<g>
				<path class="st2" d="M1174.1,341c-0.5,0.3-5.1-6.7-14.5-16.4c-4.7-4.8-10.5-10.3-17.6-15.7c-7.1-5.4-15.2-10.8-24.4-15.3
					c-9.2-4.6-18.3-8.1-26.9-10.4c-4.3-1.1-8.4-1.8-12.2-1.8c-3.9-0.1-7.4,0.5-10.5,1.6c-3.1,1.1-5.6,2.7-7.6,4.3
					c-2,1.7-3.4,3.5-4.3,5c-0.5,0.8-0.8,1.5-1.1,2.1c-0.1,0.3-0.3,0.7-0.4,0.9c-0.1,0.1-0.1,0.3-0.2,0.4c0,0.1,0,0.1,0,0.2
					c0,0.4,0.3,0.7,0.4,0.8c0.1,0.1,0.1,0,0.2,0c0,0,0.1,0,0.1,0.1c0,0,0,0.1-0.1,0.2c-0.1,0.1-0.2,0.1-0.3,0.1
					c-0.3-0.1-0.7-0.3-1-0.9c-0.1-0.2-0.1-0.3,0-0.6c0-0.1,0.1-0.3,0.1-0.5c0.1-0.3,0.1-0.6,0.2-1c0.2-0.7,0.5-1.6,0.9-2.4
					c0.8-1.8,2.2-3.8,4.2-5.8c2-1.9,4.7-3.8,8-5.1c3.3-1.4,7.2-2.1,11.3-2.2c4.1-0.1,8.5,0.5,13,1.6c8.9,2.2,18.2,5.7,27.6,10.4
					c9.4,4.7,17.7,10.3,24.8,15.9c7.1,5.6,12.9,11.4,17.4,16.5c2.3,2.5,4.2,5,5.9,7.1c1.6,2.2,3,4.1,4,5.7
					C1173.2,339,1174.2,340.8,1174.1,341z"/>
			</g>
		</g>
	</g>
	<g>
		<g>
			<g>
				<path class="st2" d="M1224.1,351.9c-0.5,0.2-2.2-5.1-6.9-12.5c-2.3-3.7-5.5-7.8-9.6-11.8c-4.1-4-9.2-7.9-15-10.9
					c-5.9-3-11.9-5-17.6-6c-5.6-1.1-10.9-1.3-15.2-1.1c-8.7,0.4-14,2-14.2,1.5c-0.1-0.2,1.2-0.8,3.6-1.6c2.4-0.8,6-1.7,10.5-2.2
					c4.5-0.5,9.9-0.5,15.9,0.5c5.9,0.9,12.3,2.9,18.5,6.1c6.2,3.3,11.4,7.4,15.6,11.7c4.2,4.3,7.3,8.8,9.5,12.8
					c2.2,4,3.5,7.4,4.2,9.8C1224.1,350.5,1224.3,351.9,1224.1,351.9z"/>
			</g>
		</g>
	</g>
	<g>
		<g>
			<g>
				<path class="st2" d="M1245.1,351.8c-0.5-0.2,0.5-2.2-0.4-5.2c-0.7-2.9-3.4-6.7-7.7-8.4c-2.2-0.9-4.5-1.3-6.6-1.5
					c-2.1-0.2-4.1-0.2-5.8-0.3c-0.8,0-1.6-0.1-2.3-0.1c-0.6-0.1-1,0-1.4,0.1c-0.3,0.1-0.6,0.2-0.7,0.4c-0.1,0.2-0.1,0.3-0.2,0.2
					c-0.1,0-0.3-0.2-0.3-0.5c-0.1-0.3,0.1-0.8,0.6-1.2c0.5-0.4,1.2-0.7,1.9-0.8c0.7-0.1,1.4-0.3,2.3-0.4c1.7-0.2,3.8-0.5,6.1-0.4
					c2.3,0.1,5,0.4,7.6,1.5c1.3,0.5,2.6,1.2,3.7,2.1c1.1,0.9,2,1.8,2.7,2.8c1.5,2,2.2,4.2,2.4,6.1c0.2,1.9-0.3,3.5-0.8,4.4
					C1245.8,351.5,1245.3,351.9,1245.1,351.8z"/>
			</g>
		</g>
	</g>
	<g>
		<g>
			<g>
				<path class="st2" d="M1228.6,367.8c0,0.1-0.9,0.5-2.9,1.1c-1.9,0.6-4.8,1.3-8.5,2.1c-3.7,0.8-8.3,1.5-13.7,2.1
					c-5.4,0.7-11.4,1.3-18.2,2c-27,2.8-64.3,5.7-105.6,7.4c-41.3,1.7-78.8,1.8-105.9,1.2c-6.8-0.1-12.9-0.3-18.3-0.5
					c-5.4-0.2-10-0.3-13.8-0.5c-3.8-0.2-6.7-0.4-8.7-0.5c-2-0.2-3-0.3-3-0.4c0-0.1,1.1-0.2,3-0.3c2-0.1,4.9-0.1,8.7-0.1
					c7.6,0,18.5,0,32.1,0c27.1,0,64.5-0.5,105.7-2.2c41.3-1.7,78.6-4.3,105.5-6.5c6.7-0.5,12.9-1,18.2-1.5c5.3-0.5,9.9-1,13.7-1.6
					C1224.5,368.6,1228.5,367.6,1228.6,367.8z"/>
			</g>
		</g>
	</g>
	<g>
		<g>
			<g>
				<path class="st2" d="M1027.1,395.4c0,0.5-6.8,0.6-17.6,0.8c-5.4,0.1-11.9,0.3-19.1,0.5c-7.2,0.3-15.1,0.7-23.3,1.2
					c-8.3,0.6-16.1,1.2-23.3,1.9c-7.2,0.7-13.6,1.4-19,2c-10.8,1.2-17.5,2-17.6,1.6c-0.1-0.4,6.5-2,17.3-3.8
					c5.4-0.9,11.8-1.8,19-2.7c7.2-0.8,15.1-1.6,23.4-2.1c8.3-0.5,16.3-0.8,23.5-0.9c7.2-0.1,13.7,0,19.2,0.2
					C1020.4,394.2,1027.2,394.9,1027.1,395.4z"/>
			</g>
		</g>
	</g>
	<g>
		<g>
			<g>
				<path class="st2" d="M930.5,311.4c0,0.5-4.1,0.4-10.5,1.1c-6.4,0.7-15.2,2.5-24.2,6.4c-9,4-16.5,9-20.6,13.8
					c-2.1,2.4-3.4,4.6-4.2,6.2c-0.2,0.4-0.4,0.7-0.5,1c-0.1,0.3-0.1,0.5-0.1,0.7c0,0.5,0.3,0.5,0.2,0.5c-0.1,0.1-0.6,0.2-0.8-0.4
					c-0.1-0.2-0.2-0.6-0.2-1c0-0.1,0-0.2,0.1-0.4c0-0.1,0-0.2,0.1-0.3c0-0.2,0.1-0.4,0.1-0.6c0.5-1.8,1.5-4.5,3.6-7.2
					c2-2.8,5-5.6,8.6-8.2c3.6-2.6,7.8-5.1,12.5-7.1c9.4-4.1,18.7-5.6,25.4-5.7C926.5,310.1,930.6,311,930.5,311.4z"/>
			</g>
		</g>
	</g>
</g>
</svg>
